<?xml version="1.0" encoding="utf-8"?>
<!-- Generator: Adobe Illustrator 16.0.0, SVG Export Plug-In . SVG Version: 6.00 Build 0)  -->
<svg version="1.2" baseProfile="tiny" id="Layer_1" xmlns="http://www.w3.org/2000/svg" xmlns:xlink="http://www.w3.org/1999/xlink"
	 x="0px" y="0px" width="3000px" height="3000px" viewBox="0 0 3000 3000" xml:space="preserve">
<g>
	<path fill="#14205B" d="M1071.8,1265.271c0,49.789,20.8,93.27,83.21,93.27c43.48,0,80.99-24.15,80.99-112.57v-73.59
		c0-51.64-10.77-51.64-49.02-51.64c-2.98,0-2.98-2.21-2.98-5.561c0-4.46,1.11-5.58,2.98-5.58c6.33,0,30.47,1.48,54.629,1.48
		c11.511,0,43.08-1.48,48.271-1.48c3.72,0,5.21,0.74,5.21,6.32c0,1.49-0.35,4.81-3.34,4.81c-35.65,0-43.09,0-43.09,43.86v88.03
		c0,100.33-63.91,127.08-107,127.08c-83.24,0-106.641-55.72-106.641-96.601v-85.09c0-26.37-0.39-35.3-0.739-52.39
		c-0.37-21.9-6.681-24.9-39.011-24.9c-4.1,0-4.1-2.96-4.1-6.319c0-2.2,0.78-4.811,3.33-4.811c2.99,0,35.32,1.48,58.71,1.48
		c23.81,0,56.12-1.48,59.11-1.48c2.59,0,3.319,2.61,3.319,4.811c0,3.359,0,6.319-4.079,6.319c-32.311,0-38.621,2.99-39.011,24.9
		c-0.37,17.09-0.729,26.02-0.729,52.39v67.261H1071.8z"/>
	<path fill="#14205B" d="M1330.65,1339.95c0,21.18,0.729,25.67,17.09,25.67c10.02,0,10.75,0.32,10.75,4.8c0,2.25,0,4.84-3.67,4.84
		c-1.881,0-6.721-0.76-32.73-0.76c-34.9,0-44.59,0.76-50.13,0.76c-3,0-3-2.239-3-4.109c0-4.811,0.37-5.53,14.11-5.53
		c9.67,0,13.01-3.75,15.24-8.96c1.47-3.351,2.239-29.71,2.239-53.521v-50.88c0-13-3.34-20.439-21.93-22.29
		c-2.97-0.359-3.351-1.84-3.351-4.449c0-2.98,1.141-4.83,2.99-5.2c42.35-8.54,47.551-18.21,52-18.21c0.75,0,1.12,1.119,1.12,4.08
		c0,2.239-0.729,10.399-0.729,26.77c19.31-13.04,38.229-25.65,58.33-25.65c12.619,0,49.029,2.591,49.029,55.721v89.18
		c0,6.32,1.11,13.4,24.141,13.4c3.71,0,3.71,2.199,3.71,4.8c0,2.25,0,4.84-5.19,4.84c-11.14,0-17.82-0.76-37.52-0.76
		c-30.11,0-36.051,0.76-38.99,0.76c-2.24,0-2.63-2.59-2.63-4.46c0-1.86,0.729-5.18,5.2-5.18c17.859,0,21.18-1.511,21.18-13.771
		v-66.52c0-34.55-2.97-57.561-41.6-57.561c-14.131,0-34.19,12.61-35.66,17.08V1339.95L1330.65,1339.95z"/>
	<path fill="#14205B" d="M1539.12,1339.94c0,21.199,0.76,25.67,17.09,25.67c8.16,0,8.931,0.369,8.931,4.81c0,2.24,0,4.84-3.711,4.84
		c-1.88,0-6.68-0.76-30.859-0.76c-34.96,0-44.62,0.76-50.2,0.76c-2.98,0-2.98-2.239-2.98-4.08c0-4.84,0.36-5.58,14.13-5.58
		c9.681,0,13.021-3.729,15.211-8.939c1.499-3.33,2.27-29.71,2.27-53.521v-50.859c0-13.03-3.35-20.45-21.939-22.301
		c-2.971-0.39-3.341-1.869-3.341-4.47c0-2.97,1.11-4.84,2.99-5.2c42.37-8.54,47.61-18.22,52.06-18.22c1.46,0,2.21,1.851,2.21,4.09
		c0,1.471-1.86,5.2-1.86,53.511L1539.12,1339.94L1539.12,1339.94z M1504.54,1130.78c0-10.03,8.17-19.69,19.29-19.69
		c11.21,0,19.38,9.65,19.38,19.69s-8.16,19.699-19.38,19.699C1512.71,1150.479,1504.54,1140.82,1504.54,1130.78"/>
	<path fill="#14205B" d="M1694.04,1234.08c0-10.78-19.34-10.78-24.92-10.78c-2.21,0-3.36-2.229-3.36-5.21
		c0-1.86,1.521-4.46,4.86-4.46c10,0,21.54,0.73,31.93,0.73c10.761,0,21.91-0.73,32.729-0.73c2.58,0,3.32,2.601,3.32,4.46
		c0,2.24-0.39,3.7-3.75,4.09c-21.54,3.36-22.619,4.841-34.529,33.82c-13.011,31.95-35.291,78.771-41.971,94.37
		c-10.43,24.89-13.79,29.34-16.74,29.34c-4.119,0-6.68-7.8-14.119-23.75c-12.99-27.89-43.83-118.54-49.041-125.96
		c-3.689-5.57-7.42-5.96-12.989-5.96c-10.021,0-11.521-1.11-11.521-6.29c0-2.63,1.881-4.11,4.08-4.11
		c11.91,0,23.42,0.73,35.311,0.73c7.42,0,36.779-0.73,44.16-0.73c2.64,0,3.05,3.33,3.05,5.2c0,1.851-1.48,4.47-3.75,4.47
		c-11.17,0-21.58,1.131-21.58,8.91c0,12.28,30.14,87.33,37.93,103.69C1688.09,1258.24,1694.04,1244.09,1694.04,1234.08"/>
	<path fill="#14205B" d="M1760.51,1263.04c3.71-25.23,14.84-47.53,41.58-47.53c12.66,0,32.75,6.3,32.75,35.28
		c0,10.04-5.25,12.26-12.64,12.26h-61.69V1263.04z M1864.16,1274.19c2.99,0,4.47-0.37,4.47-4.091c0-11.13-4.84-64.279-66.54-64.279
		c-38.24,0-74.3,36.06-74.3,89.18c0,52.01,27.87,84.71,81.04,84.71c49.02,0,63.91-46.07,63.91-47.189c0-1.131-3.38-4.461-5.98-4.461
		c-1.859,0-3.319,3.33-5.55,6.33c-11.909,17.07-26.37,22.301-43.52,22.301c-40.47,0-60.92-37.19-60.92-61.32
		c0-7.05,0.409-14.11,1.499-21.19h105.891V1274.19z"/>
	<path fill="#14205B" d="M1907.641,1252.28c0-13.021-3.381-20.45-21.931-22.29c-2.989-0.391-3.36-1.851-3.36-4.45
		c0-2.98,1.131-4.84,2.971-5.21c42.38-8.54,47.58-18.21,52.01-18.21c0.76,0,1.52,2.22,1.52,3.7c0,4.45-1.84,13.77-1.84,33.84
		c12.21-13.78,32.271-32.36,51.95-32.36c12.99,0,23.771,7.061,23.771,20.83c0,9.65-7.4,18.55-18.16,18.55
		c-15.25,0-17.5-14.109-28.61-14.109c-6.35,0-16.33,5.58-25.64,15.979c-2.62,2.96-2.62,7.05-2.62,10.76v84.351
		c0,13.74,0,21.93,18.55,21.93c13.75,0,15.25,0.37,15.25,4.45c0,4.83-1.5,5.2-5.55,5.2c-13.399,0-25.29-0.75-42.36-0.75
		c-29.729,0-36.02,0.75-43.109,0.75c-2.58,0-3.34-2.21-3.34-4.811c0-3.72,4.449-4.83,11.479-4.83c16.021,0,19-2.97,19-18.96v-94.359
		H1907.641z"/>
	<path fill="#14205B" d="M2137.73,1329.18c0,18.21-9.67,50.55-60.551,50.55c-6.699,0-28.24-2.97-42.75-2.97
		c-0.76,0-1.88-1.149-1.88-1.87c-0.33-3.72-8.55-36.42-8.55-40.109c0-2.261,5.23-2.261,6.68-2.261c8.95,0,11.19,37.561,46.86,37.561
		c26.37,0,33.81-20.07,33.81-33.101c0-38.989-83.22-26.369-83.22-79.13c0-30.46,25.25-50.55,56.479-50.55
		c17.07,0,38.631,2.99,40.121,3.35c4.819,1.15,5.59,8.181,5.59,10.41c0.72,15.24,4.04,24.91,4.04,29.71c0,2.271-2.19,2.99-4.04,2.99
		c-3.36,0-5.59-0.37-7.461-5.2c-2.56-6.319-12.25-31.58-38.609-31.58c-17.48,0-29.75,10.04-29.75,27.86
		c0,13.01,9.32,20.82,17.46,24.92C2110.98,1288.32,2137.73,1287.22,2137.73,1329.18"/>
	<path fill="#14205B" d="M2213.54,1339.94c0,21.199,0.7,25.67,17.07,25.67c8.18,0,8.89,0.369,8.89,4.81c0,2.24,0,4.84-3.689,4.84
		c-1.881,0-6.7-0.76-30.84-0.76c-34.9,0-44.57,0.76-50.16,0.76c-2.971,0-2.971-2.239-2.971-4.08c0-4.84,0.351-5.58,14.101-5.58
		c9.67,0,13.029-3.729,15.229-8.939c1.5-3.33,2.25-29.71,2.25-53.521v-50.859c0-13.03-3.359-20.45-21.91-22.301
		c-2.989-0.39-3.359-1.869-3.359-4.47c0-2.97,1.109-4.84,2.97-5.2c42.32-8.54,47.58-18.22,51.99-18.22c1.52,0,2.25,1.851,2.25,4.09
		c0,1.471-1.82,5.2-1.82,53.511V1339.94L2213.54,1339.94z M2178.96,1130.78c0-10.03,8.16-19.69,19.3-19.69
		c11.141,0,19.36,9.65,19.36,19.69s-8.22,19.699-19.36,19.699C2187.12,1150.479,2178.96,1140.82,2178.96,1130.78"/>
	<path fill="#14205B" d="M2295.55,1309.12c0,39.39,3.4,53.51,32.71,53.51c12.641,0,23.77-8.53,25.27-8.53
		c1.48,0,4.101,3.7,4.101,5.921c0,2.239-15.59,19.709-49.43,19.709c-42.73,0-42.73-36.789-42.73-46.079v-97.71
		c0-2.961-1.109-4.841-3.689-4.841h-18.591c-1.109,0-2.229-1.109-2.229-3.33c0-1.51,0.39-3.729,2.229-5.229
		c34.591-26.021,41.621-45.68,49.08-45.68c2.211,0,4.451,1.47,4.451,4.8c0,6.689-1.171,13.01-1.171,34.18h57.25
		c2.62,0,3.73,2.601,3.73,7.8c0,4.851-2.25,9.32-10.021,9.32c-2.619,0-20.119-1.88-50.959-1.88L2295.55,1309.12L2295.55,1309.12z"/>
	<path fill="#14205B" d="M2512.5,1235.92c0-12.24-17.5-12.64-28.63-12.64c-3.36,0-3.73-1.851-3.73-4.811c0-2.62,1.5-4.83,3.42-4.83
		c11.86,0,24.101,0.73,35.96,0.73c11.54,0,23.051-0.73,34.57-0.73c2.6,0,2.6,3.33,2.6,4.83c0,3.34-1.109,4.45-6.289,4.811
		c-12.641,1.14-17.83,3.359-23.381,16.38c-13.42,30.81-64.84,138.58-73.07,159.38c-28.689,71.7-40.959,76.52-53.199,76.52
		c-11.93,0-20.82-10.39-20.82-21.909c0-11.141,10.76-20.051,21.52-20.051c9.28,0,14.141,6.311,18.61,6.311
		c6.66,0,24.12-35.67,24.12-53.13c0-9.29-8.87-31.21-12.99-41.601c-23.4-60.21-30.45-92.55-38.26-113.34
		c-3.36-8.56-21.971-8.56-26.76-8.56c-2.601,0-3.36-2.601-3.36-5.2c0-2.96,1.88-4.45,4.12-4.45c4.43,0,27.87,0.73,41.21,0.73
		c12.66,0,25.66-0.73,36.8-0.73c3.75,0,4.51,2.21,4.51,4.83c0,1.86-1.149,4.81-3.75,4.81c-2.27,0-18.22,0-18.22,8.171
		c0,17.85,12.64,54.659,36.95,116.68C2481.641,1312.83,2512.5,1247.46,2512.5,1235.92"/>
	<path fill="#14205B" d="M2785.63,1293.51c0,31.59-7.44,76.55-51.25,76.55c-43.5,0-50.88-44.96-50.88-76.55
		c0-36.399,12.25-76.54,50.88-76.54C2773.38,1216.97,2785.63,1257.11,2785.63,1293.51 M2820.98,1293.51
		c0-50.13-36.82-86.189-86.601-86.189c-49.41,0-86.21,37.17-86.21,86.189c0,49.42,35.33,86.22,86.21,86.22
		C2786.391,1379.729,2820.98,1345.54,2820.98,1293.51"/>
	<path fill="#14205B" d="M2888.63,1343.68c0,13.74,0,21.931,18.57,21.931c13.729,0,15.25,0.369,15.25,4.449
		c0,4.841-1.521,5.211-5.591,5.211c-13.42,0-25.31-0.761-42.379-0.761c-29.73,0-36,0.761-39.391,0.761c-2.58,0-3.34-2.24-3.34-4.83
		c0-3.711,0.76-4.83,7.83-4.83c15.979,0,18.96-2.971,18.96-18.96V1242.97c0-4.439,0-11.859-7.11-11.859h-20.41
		c-2.619,0-4.49,0-4.49-4.84c0-2.99,2.66-4.461,11.521-6.311c14.51-3.33,18.26-4.11,19.38-20.82
		c3.63-56.479,20.41-87.689,64.26-99.199c5.961-1.48,15.98-2.99,22.641-2.99c9.689,0,23.439,3.72,23.439,15.979
		c0,10.79-6.33,18.21-17.479,18.21c-3.341,0-11.521-1.09-20.41-8.529c-6.329-5.21-13.01-8.561-16.39-8.561
		c-21.131,0-24.86,30.83-24.86,53.87v47.92h46.07c2.579,0,3.689,2.62,3.689,7.83c0,4.811-2.229,9.28-10.021,9.28
		c-2.6,0-31.189-1.851-39.75-1.851v112.58H2888.63z"/>
	<path fill="#14205B" d="M1086.75,1569.27c-0.47-39.02,3.78-39.02,39.5-39.02c46.07,0,77.07,34.35,77.07,82.78
		c0,54.05-38.53,83.66-89.771,83.66c-23.96,0-26.81-7.061-26.81-17.87V1569.27H1086.75z M1040.21,1743.22
		c0,20.23-0.47,50.771-1.41,74.25c-0.479,12.71-3.28,20.71-40.43,20.71c-13.17,0-13.17,2.811-13.17,8c0,4.23,0,6.101,3.76,6.101
		c3.29,0,5.181-0.94,74.29-0.94c69.57,0,82.74,0.94,86.02,0.94c3.771,0,3.771-1.88,3.771-6.101c0-5.189,0-8-13.16-8
		c-48.42,0-51.22-11.29-52.19-30.069c-0.459-14.12-0.939-27.28-0.939-102.011c19.28,3.74,38.09,4.681,56.9,4.681
		c63.92,0,110.449-34.33,110.449-101.53c0-19.27-11.76-93.07-124.08-93.07c-24.439,0-62.529,1.88-66.77,1.88
		c-29.63,0-63.47-1.88-67.24-1.88c-3.25,0-4.22,3.28-4.22,6.091c0,4.229,0,7.97,5.19,7.97c33.84,0,41.83,3.8,42.3,31.54
		c0.46,21.59,0.93,32.91,0.93,66.25V1743.22z"/>
	<path fill="#14205B" d="M1335.63,1807.61c0,26.83,0.94,32.46,21.65,32.46c10.33,0,11.26,0.439,11.26,6.109
		c0,2.801,0,6.101-4.71,6.101c-2.33,0-8.45-0.94-39-0.94c-44.18,0-56.42,0.94-63.47,0.94c-3.771,0-3.771-2.811-3.771-5.17
		c0-6.12,0.49-7.051,17.881-7.051c12.22,0,16.449-4.699,19.27-11.3c1.88-4.21,2.811-37.59,2.811-67.699v-64.381
		c0-16.46-4.221-25.859-27.721-28.21c-3.76-0.46-4.25-2.35-4.25-5.649c0-3.74,1.43-6.05,3.77-6.54
		c53.601-10.84,60.17-23.05,65.82-23.05c1.881,0,2.811,2.329,2.811,5.17c0,1.88-2.351,6.59-2.351,67.71V1807.61z M1291.91,1542.97
		c0-12.71,10.34-24.91,24.47-24.91c14.06,0,24.42,12.211,24.42,24.91c0,12.69-10.36,24.91-24.42,24.91
		C1302.26,1567.88,1291.91,1555.65,1291.91,1542.97"/>
	<path fill="#14205B" d="M1450.85,1768.6c0,49.851,4.23,67.71,41.381,67.71c15.979,0,30.08-10.81,31.949-10.81
		c1.91,0,5.211,4.68,5.211,7.53c0,2.8-19.801,24.909-62.561,24.909c-54.061,0-54.061-46.539-54.061-58.29v-123.64
		c0-3.74-1.43-6.109-4.709-6.109h-23.51c-1.41,0-2.801-1.42-2.801-4.221c0-1.91,0.46-4.71,2.801-6.59
		c43.729-32.92,52.659-57.83,62.08-57.83c2.789,0,5.629,1.891,5.629,6.13c0,8.46-1.42,16.44-1.42,43.221h72.391
		c3.32,0,4.73,3.31,4.73,9.87c0,6.09-2.83,11.79-12.711,11.79c-3.289,0-25.399-2.37-64.399-2.37L1450.85,1768.6L1450.85,1768.6z"/>
	<path fill="#14205B" d="M1602.73,1768.6c0,49.851,4.26,67.71,41.369,67.71c16.021,0,30.08-10.81,31.95-10.81
		c1.91,0,5.181,4.68,5.181,7.53c0,2.8-19.75,24.909-62.48,24.909c-54.1,0-54.1-46.539-54.1-58.29v-123.64
		c0-3.74-1.391-6.109-4.69-6.109h-23.5c-1.431,0-2.83-1.42-2.83-4.221c0-1.91,0.49-4.71,2.83-6.59
		c43.729-32.92,52.64-57.83,62.05-57.83c2.83,0,5.631,1.891,5.631,6.13c0,8.46-1.41,16.44-1.41,43.221h72.38
		c3.3,0,4.729,3.31,4.729,9.87c0,6.09-2.85,11.79-12.699,11.79c-3.28,0-25.41-2.37-64.41-2.37V1768.6z"/>
	<path fill="#14205B" d="M1839.67,1793.99c0,23.04-12.27,63.95-76.62,63.95c-8.46,0-35.74-3.771-54.06-3.771
		c-0.94,0-2.36-1.439-2.36-2.33c-0.45-4.72-10.8-46.08-10.8-50.79c0-2.85,6.58-2.85,8.46-2.85c11.29,0,14.12,47.489,59.22,47.489
		c33.38,0,42.77-25.35,42.77-41.84c0-49.359-105.289-33.38-105.289-100.09c0-38.57,31.949-63.97,71.43-63.97
		c21.66,0,48.95,3.78,50.8,4.229c6.13,1.431,7.07,10.36,7.07,13.19c0.939,19.25,5.159,31.48,5.159,37.62
		c0,2.8-2.829,3.74-5.159,3.74c-4.24,0-7.07-0.46-9.41-6.551c-3.28-8.02-15.51-39.97-48.91-39.97c-22.07,0-37.6,12.7-37.6,35.25
		c0,16.46,11.779,26.311,22.109,31.5C1805.82,1742.29,1839.67,1740.88,1839.67,1793.99"/>
	<path fill="#14205B" d="M1916.78,1697.63c0-29.12,18.81-46.53,48.909-46.53c57.301,0,62.5,68.15,62.5,102.021
		c0,41.34-7.989,92.57-59.689,92.57c-37.13,0-51.72-23.49-51.72-62.53V1697.63z M1916.78,1569.27c0-61.14,2.359-65.819,2.359-67.689
		c0-2.84-0.939-5.17-2.81-5.17c-4.73,0-27.29,13.609-65.37,20.22c-2.38,0.49-3.771,2.83-3.771,6.58c0,3.28,1.391,5.17,4.26,5.65
		c25.86,2.35,27.271,7.989,27.271,48.88v245.39c0,11.32-0.94,16.93-0.94,23.98c0,2.35,0,6.1,3.75,6.1
		c6.58,0,6.091-13.64,18.36-13.64c14.08,0,36.64,18.33,72.34,18.33c43.261,0,100.63-30.99,100.63-111.391
		c0-79.939-53.13-109.55-99.18-109.55c-25.39,0-39.98,7.04-56.89,22.11v-89.801H1916.78z"/>
	<path fill="#14205B" d="M2117.07,1705.61c0-41.36-4.71-44.16-29.16-44.16c-3.75,0-10.33,0-10.33-4.71c0-3.761,0-9.4,5.16-9.4
		c4.71,0,12.25,1.4,27.75,1.4c16.43,0,34.34-1.4,40.899-1.4c2.811,0,3.73,0,3.73,6.58v126.92c0,35.26,11.33,55.47,46.09,55.47
		c16.93,0,46.52-10.359,46.52-24.939v-121.72c0-25.4-4.689-28.2-29.14-28.2c-8.46,0-15.02,0-15.02-4.71c0-7.07,0-9.4,3.3-9.4
		c6.54,0,12.21,1.4,40.859,1.4c11.78,0,24-1.4,35.721-1.4c4.26,0,6.579,1.88,6.579,6.58c0,1.88-4.199,38.07-4.199,71.46v88.34
		c0,7.55,0,17.43,11.76,17.43c6.561,0,16.91-1.88,20.2-1.88c1.88,0,2.81,0,2.81,8.91c0,2.84-0.449,3.78-15.51,6.101
		c-39.96,6.569-51.229,12.229-54.06,12.229c-3.3,0-5.64-3.29-5.64-6.59c0-5.63,0.939-13.15,1.409-17.83
		c-23.479,17.38-52.189,25.85-70.02,25.85c-46.54,0-59.71-30.109-59.71-78.97V1705.61z"/>
	<path fill="#14205B" d="M2369.96,1696.69c0-16.461-4.2-25.86-27.71-28.181c-3.77-0.52-4.26-2.38-4.26-5.66
		c0-3.76,1.43-6.069,3.79-6.56c53.59-10.84,60.16-23.05,65.8-23.05c0.96,0,1.89,2.8,1.89,4.68c0,5.65-2.359,17.4-2.359,42.83
		c15.51-17.43,40.92-40.96,65.84-40.96c16.43,0,30.04,8.95,30.04,26.34c0,12.24-9.391,23.51-23.01,23.51
		c-19.301,0-22.11-17.85-36.19-17.85c-7.97,0-20.7,7.04-32.44,20.229c-3.3,3.74-3.3,8.9-3.3,13.61v106.7
		c0,17.399,0,27.74,23.54,27.74c17.381,0,19.26,0.439,19.26,5.619c0,6.15-1.88,6.601-7.05,6.601c-16.93,0-31.97-0.94-53.609-0.94
		c-37.601,0-45.591,0.94-54.53,0.94c-3.26,0-4.2-2.811-4.2-6.1c0-4.74,5.61-6.11,14.57-6.11c20.229,0,23.95-3.76,23.95-23.96
		v-119.43H2369.96z"/>
	<path fill="#14205B" d="M2636.05,1867.32c30.55,0,47.97,8.45,47.97,37.12c0,36.71-24.979,53.109-78.539,53.109
		c-65.801,0-67.7-36.64-67.7-43.229c0-25.851,27.729-46.99,30.569-46.99h67.7V1867.32z M2574,1831.6c-10.82,0-22.15-1.89-22.15-15.5
		c0-16,11.82-25.859,19.34-30.1c9.391,4.24,28.181,5.18,33.791,5.18c51.739,0,83.709-30.109,83.709-80.85
		c0-12.23-8.93-36.24-17.83-45.601c7.031-3.289,9.841-6.1,17.83-6.1c8.48,0,19.75,26.79,31.95,26.79c9.9,0,17.87-9.41,17.87-16.46
		c0-9.87-5.18-26.33-35.25-26.33c-10.35,0-20.68,1.88-39.96,14.14c-15.53-11.779-37.58-18.369-56.88-18.369
		c-42.3,0-83.22,32.89-83.22,77.109c0,29.59,9.45,52.641,36.7,66.71c-21.15,14.58-36.19,26.83-36.19,55.03
		c0,15.04,13.63,27.25,28.14,28.67c-19.199,18.81-40.859,39.979-40.859,69.1c0,36.2,30.08,44.2,60.63,44.2
		c57.38,0,135.88-20.68,135.88-91.689c0-14.101,0.47-55.931-63.93-55.931H2574L2574,1831.6z M2606.43,1778.96
		c-32.949,0-42.3-28.21-42.3-55.95c0-16.47,0.47-72.41,44.2-72.41c39.45,0,39.45,49.83,39.45,56.87
		C2647.77,1727.7,2644.98,1778.96,2606.43,1778.96"/>
	<path fill="#14205B" d="M2804.8,1667.99c24.45-16.4,45.141-28.19,73.811-28.19c15.979,0,62.05,3.28,62.05,70.54v112.8
		c0,8.021,1.41,16.931,30.55,16.931c4.71,0,4.71,2.8,4.71,6.109c0,2.801,0,6.101-6.58,6.101c-14.1,0-22.56-0.94-47.459-0.94
		c-38.111,0-45.641,0.94-49.361,0.94c-2.85,0-3.319-3.3-3.319-5.67c0-2.32,0.94-6.54,6.601-6.54c22.539,0,26.779-1.91,26.779-17.38
		v-84.17c0-43.721-3.77-72.87-52.64-72.87c-20.23,0-43.261,9.409-45.141,17.409v124.57c0,26.811,0.94,32.44,21.66,32.44
		c12.681,0,13.569,0.47,13.569,6.109c0,2.801,0,6.101-4.67,6.101c-2.359,0-8.46-0.94-41.35-0.94c-44.22,0-56.45,0.94-61.17,0.94
		c-3.73,0-3.73-2.811-3.73-5.17c0-6.12,0.49-7.051,17.87-7.051c9.88,0,14.101-4.699,16.931-11.279c1.879-4.23,2.81-66.29,2.81-86.49
		v-164.53c0-40.91-1.39-46.55-27.29-48.899c-2.83-0.49-4.2-2.36-4.2-5.641c0-3.739,1.37-6.109,3.771-6.58
		c38.05-6.619,60.609-20.26,65.33-20.26c1.879,0,2.789,2.351,2.789,5.21c0,1.87-2.34,6.55-2.34,67.71v98.69H2804.8z"/>
	<path fill="#B6A269" d="M450.33,1027.3c-231.45,0-419.73,188.3-419.73,419.76c0,231.45,188.28,419.711,419.74,419.711
		c231.42,0,419.7-188.261,419.7-419.711C870.03,1215.6,681.75,1027.3,450.33,1027.3"/>
	<path fill="#FFFFFF" d="M452.29,1654.38l4.229-1.53c5.11-1.79,21.78-7.89,42.78-20.159c51.28-29.841,128.311-103.99,128.311-231.53
		l0.63-111.33H541.97l-0.2-4.021l-0.92-21.67c-0.46-5.93-4.159-8.899-5.55-10.609c-1.38-1.681-3.68-4.66-3.68-6.78l-1.37-13.56
		c0,0,1.14-6.08,3.91-8.21c2.75-2.11,6.229-8.721,5.29-12.521v-8.49l-57.69,0.351v-16.87h-58.54l-0.33,15.89l-57.68,0.63v8.49
		c-0.91,3.811,2.59,8.15,5.37,10.26c2.729,2.13,3.859,10.471,3.859,10.471l-1.369,13.56c0,2.12-2.33,5.09-3.7,6.78
		c-1.4,1.71-5.07,4.68-5.55,10.609l-0.9,21.67l0.76,4.021h-87.03l-0.62,111.33c0,126.229,76.37,200.38,127.689,230.689
		c21.78,12.83,39.09,19.21,44.38,21.04L452.29,1654.38z"/>
	<path fill="#B6A269" d="M311.35,1505.4c-16.479-38.45-19.709-61.07-20.209-99.45h321.65c0.04,30.76-5.01,61.439-20.53,99.479
		L311.35,1505.4z"/>
	<g>
		<path fill="none" d="M450.33,1862.27c229.3,0,415.189-185.89,415.189-415.239c0-229.271-185.89-415.21-415.189-415.21
			c-229.33,0-415.22,185.93-415.22,415.21C35.11,1676.38,221.01,1862.27,450.33,1862.27z M237.09,1489.23
			c1.96-6.33,5.61-23.79,13.95-37.471c6.4,38.16,39.4,92.8,46.25,103.58c1.07,1.61,4.83,0.59,0,3.67l-11.11,10.08
			c35.339,41.18,77.65,68.19,121.62,72.25c22.2,12.93,34.19,13.49,39.55,15.26l4.261,1.49l4.319-1.56
			c5.21-1.71,17.94-2.851,39.41-15.2c40.75-4.05,80.25-26.88,121.85-70.46l-4.81-7.62c-6.87-4.43-6.87-4.43-3.92-10.18
			c5.86-11.38,38.28-67.88,44.7-106.03c8.35,13.7,11.22,35.84,13.14,42.18c12.311-12.7,25.22-21.42,33.561-30.24
			c-1.46,17.631-12.24,61.45-25.54,85.421c8.88,5.39,7.39,4.409,12.32,7.35c4.909,2.95,6.88,6.38,0.979,16.64
			c-40.63,70.721-101.55,109.36-184.95,131.681c0,5.35,4.57,9.72-6.24,11.68c-10.8,1.98-24.149,2.95-44.29,2.95
			c-20.159,0-33.409-0.97-44.229-2.95c-10.82-1.96-6.3-6.33-6.3-11.68c-83.341-22.32-144.29-60.96-184.9-131.681
			c-5.91-10.26-3.96-13.689,0.96-16.64c4.95-2.94,3.45-1.96,12.3-7.35c-13.26-23.96-22.12-69.101-23.57-86.74
			C214.73,1466.521,224.79,1476.54,237.09,1489.23z"/>
		<path fill="#FFFFFF" d="M217.67,1551.76c-4.91,2.95-6.87,6.38-0.96,16.641c40.62,70.72,101.56,109.359,184.9,131.68
			c0,5.35-4.521,9.72,6.3,11.68c10.82,1.98,24.07,2.95,44.229,2.95c20.141,0,33.49-0.97,44.29-2.95
			c10.811-1.96,6.24-6.33,6.24-11.68c83.4-22.32,144.32-60.96,184.95-131.68c5.899-10.261,3.939-13.69-0.98-16.641
			c-4.93-2.939-3.45-1.96-12.319-7.35c13.3-23.96,24.08-67.78,25.54-85.42c-8.341,8.83-21.25,17.55-33.561,30.24
			c-1.92-6.33-4.79-28.48-13.14-42.181c-6.42,38.15-38.84,94.65-44.7,106.03c-2.95,5.74-2.95,5.74,3.92,10.18l4.81,7.62
			c-41.59,43.58-81.09,66.41-121.85,70.46c-21.47,12.34-34.21,13.49-39.41,15.2l-4.33,1.56l-4.26-1.489
			c-5.359-1.78-17.35-2.33-39.55-15.261c-43.97-4.05-86.28-31.06-121.62-72.25l11.11-10.08c4.83-3.09,1.069-2.06,0-3.67
			c-6.85-10.779-39.85-65.42-46.25-103.58c-8.34,13.681-11.98,31.141-13.95,37.471c-12.3-12.7-22.36-22.71-30.69-31.57
			c1.46,17.65,10.31,62.78,23.57,86.74C221.11,1549.79,222.62,1548.82,217.67,1551.76z"/>
		<path fill="#14205B" d="M450.33,1873.32c235.03,0,426.22-191.25,426.22-426.29c0-234.83-190.88-425.931-425.64-426.25h-1.15
			c-234.79,0.31-425.7,191.42-425.7,426.25C24.06,1682.07,215.28,1873.32,450.33,1873.32z M450.33,1031.82
			c229.3,0,415.189,185.93,415.189,415.21c0,229.35-185.89,415.239-415.189,415.239c-229.33,0-415.22-185.89-415.22-415.239
			C35.11,1217.75,221.01,1031.82,450.33,1031.82z"/>
	</g>
	<path fill="#14205B" d="M336.04,1492.79h-23.03v-23.03h23.03V1492.79z M336.04,1442h-23.03v-23h23.03V1442z M361.43,1467.38H338.4
		v-23.01h23.029V1467.38z M386.8,1492.79h-23v-23.03h23V1492.79z M386.8,1442h-23v-23h23V1442z M412.2,1467.38h-23.01v-23.01h23.01
		V1467.38z M437.6,1492.79H414.57v-23.03H437.6V1492.79z M437.6,1442H414.57v-23H437.6V1442z M462.97,1467.38h-23.03v-23.01h23.03
		V1467.38z M488.46,1492.79h-23.12v-23.03h23.12V1492.79z M488.46,1442h-23.12v-23h23.12V1442z M513.85,1467.38h-23v-23.01h23
		V1467.38z M539.23,1492.79H516.2v-23.03h23.03V1492.79z M539.23,1442H516.2v-23h23.03V1442z M564.6,1467.38h-23v-23.01h23V1467.38z
		 M590.01,1492.79h-23.04v-23.03h23.04V1492.79z M590.01,1442h-23.04v-23h23.04V1442z"/>
	<rect x="465.34" y="1418.99" fill="#14205B" width="23.12" height="23"/>
	<rect x="465.34" y="1469.76" fill="#14205B" width="23.12" height="23.03"/>
	<rect x="490.85" y="1444.37" fill="#14205B" width="23" height="23.01"/>
	<rect x="516.2" y="1418.99" fill="#14205B" width="23.03" height="23"/>
	<rect x="516.2" y="1469.76" fill="#14205B" width="23.03" height="23.03"/>
	<rect x="541.6" y="1444.37" fill="#14205B" width="23" height="23.01"/>
	<rect x="566.97" y="1418.99" fill="#14205B" width="23.04" height="23"/>
	<rect x="566.97" y="1469.76" fill="#14205B" width="23.04" height="23.03"/>
	<rect x="313" y="1418.99" fill="#14205B" width="23.03" height="23"/>
	<rect x="313" y="1469.76" fill="#14205B" width="23.03" height="23.03"/>
	<rect x="389.189" y="1444.37" fill="#14205B" width="23.011" height="23.01"/>
	<rect x="363.82" y="1418.99" fill="#14205B" width="23" height="23"/>
	<rect x="363.82" y="1469.76" fill="#14205B" width="23" height="23.03"/>
	<rect x="414.57" y="1418.99" fill="#14205B" width="23.029" height="23"/>
	<rect x="414.57" y="1469.76" fill="#14205B" width="23.029" height="23.03"/>
	<rect x="439.96" y="1444.37" fill="#14205B" width="23.03" height="23.01"/>
	<rect x="338.4" y="1444.37" fill="#14205B" width="23.029" height="23.01"/>
	<path fill="#14205B" d="M555.42,1406.28h6.98l0.069-22.46c-2.149,1.439-4.52,2.54-7.01,3.43L555.42,1406.28z"/>
	<path fill="#14205B" d="M342.55,1406.28h7.011l-0.051-18.07c-2.46-0.689-4.79-1.66-7-2.86L342.55,1406.28z"/>
	<path fill="#14205B" d="M455.29,1526.94v-21.511h-7.84v21.511c1.29-0.16,2.58-0.381,3.93-0.381
		C452.73,1526.56,453.99,1526.79,455.29,1526.94"/>
	<path fill="#14205B" d="M615.78,1301.62H288.03v104.64c0,171.101,145.96,226.601,162.71,232.41l1.34,0.49l1.42-0.55
		c16.6-5.75,162.05-60.971,162.64-231.32v-103.51L615.78,1301.62z M608.5,1406.26c0,13.54-1.26,26.061-3.01,38.13h-13.11v23h8.67
		c-8.05,32.561-22.189,59.15-38.67,80.931v-42.92h-6.61v51.27c-14.859,17.89-31.1,32.07-46.489,43.08l0.12-94.35h-7.04l-0.13,99.34
		c-19.94,13.34-37.351,21.17-46.9,24.96v-38.78c-1.311,0.18-2.59,0.41-3.96,0.41c-1.33,0-2.62-0.23-3.92-0.41v38.25
		c-9.74-3.97-26.22-11.6-44.88-24.01v-99.76H395.6v94.899c-15.33-10.95-31.569-24.95-46.5-42.7l0.19-52.21h-6.74l-0.16,43.811
		c-16.75-21.91-31.159-48.82-39.35-81.82h8.45v-23H298.64c-1.75-12.07-3-24.59-3-38.13v-97.021h46.68l0.04,19.561
		c2.2-1.2,4.529-2.16,7.01-2.86l-0.04-16.699h46.31v97.05h7.011v-97.05h45.22l-0.15,97.05h6.99l0.18-97.05h47.46v97.05h6.99v-97.05
		h46.33l-0.04,17.319c2.46,0.91,4.83,2.01,6.97,3.45l0.04-20.77h45.851v97.029H608.5z"/>
	<path fill="#14205B" d="M691.43,1549.76c-5.04-3.09-3.529-2.05-12.56-7.63c13.54-24.76,22.58-73.78,24.069-91.979
		c-8.52,9.119-22.569,20.21-35.1,33.34c-1.979-6.58-7.03-29.84-15.57-43.971c-6.52,39.41-37.1,97.601-44.149,108.71
		c-6.97,11.131-4.47,13.601,2.53,18.19l3.5,2.53c-42.44,45.029-73.961,62.12-113.61,68.069c-21.9,12.79-39.24,19.171-44.55,21
		l-4.381,1.631l-4.35-1.591c-5.51-1.869-23.55-8.52-46.18-21.92c-40.15-7.05-72.851-25.66-108.9-68.21l8-4.54
		c4.94-3.18,0.08-11.47-1.029-13.149c-6.971-11.11-40.601-68.22-47.141-107.681c-8.52,14.16-13.51,34.37-15.53,40.95
		c-12.55-13.13-26.6-24.22-35.11-33.34c1.5,18.2,10.52,67.23,24.07,91.98c-9.03,5.58-7.54,4.54-12.55,7.63
		c-5.03,3.02-7,6.54-1.01,17.18c41.45,73.07,101,112.45,186.06,135.48c0,5.58-1.979,10.6,9.04,12.649
		c11.04,2.04,24.57,3.021,45.141,3.021c20.55,0,34.2-0.98,45.18-3.021c11.04-2.05,9.01-7.069,9.01-12.649
		C591.4,1679.38,650.95,1640,692.41,1566.93C698.42,1556.3,696.439,1552.771,691.43,1549.76 M654.311,1462.76
		c5.5,10.63,8.52,26.311,10.539,33.391c9.011-7.08,22.53-19.25,27.57-24.311c-3.52,15.72-7.95,46.99-19,64.21
		c-10.52-6.59-14.05-9.59-19.06-13.18c-5.011-3.49-8.591-2.44-15.62,6.63c-7.01,9.1-14.01,14.66-21.55,20.25
		C629.24,1527.99,651.28,1481.47,654.311,1462.76 M211.89,1471.85c5.02,5.061,18.57,17.23,27.59,24.311
		c2.03-7.08,5.02-19.72,10.55-30.351c3.01,18.7,28.09,64.2,40.11,85.931c-7.53-5.55-16.29-15.8-23.3-24.9
		c-7.05-9.05-11.87-7.439-16.88-3.96c-5.01,3.59-8.54,6.59-19.07,13.18C219.85,1518.84,215.41,1487.57,211.89,1471.85
		 M393.97,1654.41c1.15,8.979,3.2,26.149,3.83,38.57c-83.189-17.36-146.73-72.2-175.36-123.54c-5.53-9.851-10-11.37-3.43-15.15
		c3.49-2.01,28.49-18.74,31.51-21.76c0.46-0.49,1.62-5.771,8.52,2.479c35.91,43.21,64.96,95.87,148.75,109.58
		C399.36,1646.8,393.4,1649.98,393.97,1654.41 M501.84,1669.55c-1.02,9.601-1.99,24.3-1.99,30.84c0,6.58-3.54,7.601-8.56,8.12
		c-4.94,0.46-25.59,2.49-39.14,2.49c-13.54,0-34.101-2.03-39.11-2.49c-5.03-0.52-8.54-1.53-8.54-8.12c0-6.54-0.99-21.239-2.01-30.84
		c-1.25-11.92-2.431-12.24,6.51-10.899c6.53,1,43.14,2.069,43.14,2.069s36.66-1.069,43.19-2.069
		C504.26,1657.31,503.07,1657.63,501.84,1669.55 M681.87,1569.44c-28.63,51.35-92.16,106.17-175.36,123.54
		c0.641-12.42,2.7-29.591,3.84-38.57c0.61-4.43-5.359-7.53-13.83-9.74c70.851-11.06,110.69-50.08,150.24-108.57
		c6.04-8.949,8.08-3.05,8.53-2.59c3.02,3.07,25.74,18.771,29.27,20.78C691.07,1558.08,687.35,1559.59,681.87,1569.44"/>
	<path fill="#14205B" d="M451.6,1659.64l4.381-1.649c5.31-1.811,22.659-8.181,44.569-20.95c53.391-31.08,134.011-100,134.011-232.79
		v-119.729H544.7l0.46-0.37l-0.94-22.601c-0.479-6.17-4.34-9.25-5.77-11.04c-1.44-1.75-3.811-4.83-3.811-7.05l-1.46-14.12
		c0,0,3.83-5.27,6.7-7.49c2.9-2.22,3.86-10.149,2.9-14.109v-8.82h-58.05v-17.2H419.39v17.2h-58.02v8.82
		c-0.97,3.96,0,11.89,2.86,14.109c2.859,2.221,6.72,7.49,6.72,7.49l-1.42,14.12c0,2.22-2.44,5.3-3.87,7.05
		c-1.44,1.79-5.26,4.87-5.76,11.04l-0.94,22.601l0.15,0.37H268.5v119.729c0,131.46,79.11,200.36,132.58,231.89
		c22.64,13.391,40.68,20.04,46.16,21.95L451.6,1659.64z M534.67,1284.521h-48.8l0.53-14.041h47.71L534.67,1284.521z
		 M533.79,1262.021l0.07,1.959h-47.21l0.069-1.959c0.44-5.461,3.83-8.2,5.12-9.771c0.59-0.729,1.37-1.72,2.021-2.76h32.79
		c0.67,1.04,1.439,2.03,2.02,2.76C529.96,1253.82,533.36,1256.56,533.79,1262.021 M493.54,1234.06h30.83l0.69,8.95h-30.24
		L493.54,1234.06z M484.35,1210.1v-3.62h7.99v5.08h11.41v-5.08h8.89v5.08h11.46v-5.08h8.431v3.62c0.85,3.54,0,10.561-2.55,12.511
		c-1.57,1.199-3.44,3.42-4.66,4.97h-33.75c-1.221-1.55-3.101-3.771-4.66-4.97C484.35,1220.66,483.5,1213.64,484.35,1210.1
		 M426.9,1194.35v-3.12h10.27v5.82h9.61v-5.82h10.5v5.82h9.6v-5.82h10.25v3.12c0.851,3.521-3.88,10.57-6.43,12.5
		c-1.09,0.841-2,2.17-2.66,3.431h-32.05c-0.67-1.26-1.561-2.59-2.66-3.431C430.811,1204.92,426.06,1197.87,426.9,1194.35
		 M467.87,1232.76h-31.65l1.04-16.01h29.53L467.87,1232.76z M429.41,1243.25v-5.88h7.99v5.88h8.93v-5.88h11.41v5.88h8.93v-5.88h7.99
		v5.88h8.37v-5.88h5.64l1.13,7.14c0,2.11-2.28,5.061-3.64,6.721c-1.38,1.689-5.05,4.64-5.53,10.5l-0.939,22.779H464.34v-18.85
		c0-6.8-5.51-12.3-12.3-12.3s-12.3,5.5-12.3,12.3v18.85h-15.33l-0.91-22.779c-0.46-5.86-4.11-8.811-5.48-10.5
		c-1.39-1.671-3.67-4.61-3.67-6.721l1.141-7.14h5.62v5.88H429.41z M371.64,1210.1v-3.62h8.431v5.08h11.43v-5.08h8.92v5.08h11.41
		v-5.08h7.97v3.62c0.87,3.54,0,10.561-2.53,12.511c-1.539,1.199-3.449,3.42-4.68,4.97H378.86c-1.23-1.55-3.101-3.771-4.65-4.97
		C371.64,1220.66,370.8,1213.64,371.64,1210.1 M410.62,1234.06l-1.4,9.761H379.03l0.75-9.761H410.62z M370.36,1262.021
		c0.439-5.461,3.84-8.2,5.12-9.771c0.409-0.521,0.939-1.22,1.459-1.94h33.91c0.53,0.721,1.061,1.42,1.48,1.94
		c1.28,1.57,4.68,4.31,5.109,9.771l0.07,1.959H370.28L370.36,1262.021z M370.02,1270.47h47.74l0.521,14.04h-48.79L370.02,1270.47z
		 M279.63,1404.25v-108.6H623.4v108.6c0,148.84-105.591,214.01-151.82,235.36c-9.48,4.399-16.51,6.939-19.55,7.97l-0.48,0.18
		l-0.87-0.28c-3.01-1.029-10.04-3.59-19.62-8.039C384.92,1617.99,279.63,1552.771,279.63,1404.25"/>
	<path fill="#14205B" d="M379.54,1357.36c0,11.88-9.64,21.5-21.5,21.5c-11.91,0-21.54-9.62-21.54-21.5
		c0-11.891,9.63-21.511,21.54-21.511C369.9,1335.85,379.54,1345.47,379.54,1357.36"/>
	<path fill="#14205B" d="M566.02,1357.36c0,11.88-9.619,21.5-21.489,21.5c-11.88,0-21.511-9.62-21.511-21.5
		c0-11.891,9.631-21.511,21.511-21.511C556.4,1335.85,566.02,1345.47,566.02,1357.36"/>
	<path fill="#14205B" d="M472.74,1558.96c0,11.87-9.641,21.49-21.5,21.49c-11.88,0-21.51-9.63-21.51-21.49
		c0-11.88,9.63-21.51,21.51-21.51C463.11,1537.45,472.74,1547.08,472.74,1558.96"/>
	<polygon fill="#14205B" points="261.77,1560.94 265.04,1566.29 235.68,1573.19 232.68,1568.33 251.78,1544.87 255.15,1550.31 
		240.09,1567.18 	"/>
	<polygon fill="#14205B" points="277.08,1588.3 267.2,1576.86 262.62,1580.87 271.72,1591.38 267.98,1594.63 258.9,1584.09 
		253.34,1588.97 263.71,1600.97 259.83,1604.39 245.63,1587.95 267.17,1569.09 280.91,1584.99 	"/>
	<path fill="#14205B" d="M286.7,1598.42l-5.43,5.49l4.81,4.8c0.91,0.94,1.75,1.58,2.43,1.83c1.23,0.45,2.4,0.1,3.54-1.061
		c1.19-1.22,1.63-2.369,1.24-3.649c-0.23-0.72-0.78-1.47-1.69-2.45L286.7,1598.42z M298.689,1604.55
		c0.461,1.061,0.65,2.21,0.57,3.36c-0.09,0.99-0.31,1.88-0.67,2.72c-0.35,0.88-0.94,1.74-1.74,2.58c-0.96,0.94-2.14,1.68-3.55,2.1
		c-1.4,0.46-2.85,0.311-4.34-0.42c0.55,1.32,0.65,2.511,0.37,3.61c-0.27,1.04-1.17,2.31-2.56,3.75l-1.38,1.35
		c-0.91,0.94-1.48,1.62-1.78,2c-0.38,0.66-0.53,1.29-0.38,1.95l-0.49,0.48l-4.63-4.65c0.32-0.59,0.57-1.01,0.8-1.39
		c0.46-0.65,0.99-1.3,1.54-1.92l1.86-1.91c1.28-1.32,1.89-2.4,1.88-3.32c0-0.87-0.64-1.939-1.89-3.189l-4.37-4.381l-7.87,7.95
		l-4.15-4.13l20.18-20.3l9.9,9.9C297.37,1602.16,298.26,1603.46,298.689,1604.55"/>
	<polygon fill="#14205B" points="295.59,1637.5 290.78,1634.03 307.59,1610.7 312.33,1614.25 	"/>
	<polygon fill="#14205B" points="336.25,1630.51 333.56,1634.83 326.33,1630.24 313.9,1650.35 308.811,1647.13 321.25,1627.03 
		313.98,1622.49 316.66,1618.16 	"/>
	<path fill="#14205B" d="M337.25,1651.42l6.46,3.31l1.93-11.75L337.25,1651.42z M345.63,1635.6l6.01,3.12l-3.939,30.25l-5.771-2.979
		l1.04-6.101l-9.39-4.779l-4.39,4.359l-5.57-2.88L345.63,1635.6z"/>
	<path fill="#14205B" d="M361.71,1665.19c-0.24,1.289-0.21,2.31,0.12,3.1c0.55,1.479,1.96,2.52,4.16,3.28
		c1.37,0.449,2.5,0.63,3.42,0.6c1.78-0.02,2.89-0.83,3.38-2.39c0.29-0.88,0.15-1.75-0.49-2.49c-0.63-0.7-1.71-1.5-3.26-2.5
		l-2.69-1.6c-2.609-1.521-4.369-2.9-5.18-3.961c-1.42-1.92-1.7-4.119-0.8-6.83c0.75-2.479,2.28-4.22,4.59-5.229
		c2.271-1.03,5.15-1.01,8.55,0.09c2.87,0.931,5.061,2.48,6.561,4.7c1.55,2.19,1.88,4.76,1.05,7.67l-5.46-1.78
		c0.43-1.649,0.12-3.04-1.01-4.189c-0.721-0.721-1.74-1.34-3.051-1.761c-1.46-0.47-2.739-0.56-3.81-0.289
		c-1.04,0.329-1.74,1.029-2.11,2.09c-0.31,0.979-0.12,1.84,0.601,2.6c0.43,0.49,1.51,1.26,3.17,2.29l4.29,2.71
		c1.89,1.14,3.24,2.311,4.02,3.46c1.18,1.88,1.44,3.96,0.61,6.41c-0.771,2.49-2.41,4.24-4.87,5.27c-2.4,1.04-5.35,0.98-8.79-0.14
		c-3.55-1.11-6.05-2.85-7.58-5.14c-1.479-2.351-1.75-4.94-0.87-7.74L361.71,1665.19z"/>
	<polygon fill="#14205B" points="541.42,1643.56 547.19,1641.34 548.32,1671.71 543.08,1673.72 523.84,1650.39 529.81,1648.07 
		543.35,1666.19 	"/>
	
		<rect x="560.527" y="1634.493" transform="matrix(-0.8983 0.4393 -0.4393 -0.8983 1794.0652 2882.5708)" fill="#14205B" width="5.94" height="28.759"/>
	<path fill="#14205B" d="M576.77,1630.89l4.091,6.471l5.699-3.54c1.11-0.721,1.91-1.351,2.301-2.011
		c0.72-1.069,0.649-2.31-0.19-3.67c-0.939-1.5-2.05-2.18-3.31-2.04c-0.73,0.03-1.641,0.41-2.71,1.11L576.77,1630.89z
		 M585.37,1620.44c1.14-0.181,2.29-0.101,3.36,0.26c0.93,0.26,1.77,0.68,2.529,1.2c0.771,0.6,1.46,1.35,2.061,2.29
		c0.729,1.18,1.109,2.52,1.25,3.979c0.119,1.48-0.36,2.9-1.41,4.19c1.41-0.24,2.59-0.11,3.57,0.479c0.959,0.521,1.97,1.63,3.06,3.36
		l1.01,1.63c0.7,1.069,1.2,1.84,1.55,2.16c0.521,0.54,1.101,0.85,1.78,0.85l0.39,0.58l-5.619,3.49
		c-0.461-0.42-0.851-0.76-1.101-1.07c-0.569-0.56-1.04-1.28-1.52-1.96l-1.44-2.27c-0.99-1.521-1.9-2.421-2.76-2.5
		c-0.86-0.23-2.05,0.14-3.49,1.069l-5.27,3.271l5.93,9.58l-4.92,3.13l-15.141-24.42l11.87-7.431
		C582.77,1621.28,584.21,1620.63,585.37,1620.44"/>
	<polygon fill="#14205B" points="611.03,1597.93 614.36,1601.78 607.93,1607.38 623.311,1625.21 618.8,1629.18 603.39,1611.37 
		596.91,1617.01 593.58,1613.2 	"/>
	<path fill="#14205B" d="M617.2,1591.55l4.2-4.34l12.6,12.26c1.42,1.32,2.6,2.2,3.55,2.471c1.69,0.63,3.3,0.04,5.05-1.74
		c1.65-1.72,2.16-3.46,1.521-5.09c-0.34-0.98-1.21-2.16-2.63-3.511l-12.601-12.29l4.181-4.34l12.64,12.261
		c2.2,2.09,3.56,4.1,4.11,5.97c0.99,3.439-0.19,6.93-3.63,10.52c-3.421,3.62-6.87,4.95-10.33,4.051c-1.87-0.49-3.91-1.78-6.061-3.96
		L617.2,1591.55z"/>
	<path fill="#14205B" d="M656.65,1575.09c1.199,0.601,2.18,0.87,2.979,0.8c1.53-0.109,2.97-1.18,4.32-3.1
		c0.81-1.16,1.35-2.16,1.61-3.11c0.439-1.71,0.02-3.02-1.301-3.989c-0.77-0.48-1.62-0.561-2.49-0.19c-0.909,0.38-2,1.18-3.329,2.43
		l-2.301,2.051c-2.229,2.109-4.01,3.39-5.31,3.88c-2.17,0.8-4.4,0.42-6.71-1.21c-2.101-1.45-3.29-3.431-3.57-5.971
		c-0.35-2.55,0.5-5.26,2.57-8.239c1.74-2.46,3.83-4.15,6.39-4.98c2.5-0.81,5.051-0.38,7.601,1.24l-3.28,4.76
		c-1.48-0.88-2.9-0.979-4.3-0.24c-0.91,0.48-1.8,1.28-2.58,2.41c-0.87,1.26-1.32,2.47-1.34,3.58c0,1.11,0.43,2,1.34,2.63
		c0.83,0.59,1.75,0.65,2.67,0.23c0.59-0.3,1.61-1.12,3.069-2.44l3.791-3.359c1.67-1.46,3.149-2.431,4.489-2.811
		c2.08-0.63,4.181-0.21,6.261,1.25c2.119,1.51,3.329,3.561,3.6,6.24c0.25,2.66-0.66,5.46-2.74,8.52c-2.14,3.04-4.49,4.95-7.12,5.75
		c-2.62,0.771-5.11,0.311-7.55-1.43L656.65,1575.09z"/>
	<path fill="#14205B" d="M408.09,1678l0.33-3.79c1.77,0.09,3,0.09,3.68-0.02c1.141-0.16,2.11-0.591,2.851-1.25
		c0.53-0.471,0.939-1.101,1.229-1.96c0.221-0.46,0.29-0.83,0.311-1.11l4.62,0.45l-2.46,28.25l-5.66-0.45l1.74-19.561L408.09,1678z"
		/>
	<path fill="#14205B" d="M448.12,1676.94c-0.86,0.81-2.101,2.189-3.67,4.25c-1.57,1.989-2.94,4.13-4.07,6.31
		c-0.86,1.729-1.72,3.82-2.46,6.36c-0.74,2.479-1.17,4.569-1.26,6.199l-5.771-0.31c0.44-5.06,2.37-10.25,5.83-15.63
		c2.19-3.24,3.99-5.57,5.45-6.811l-14-0.76l0.311-4.99l19.89,1.021L448.12,1676.94z"/>
	<path fill="#14205B" d="M459.13,1695.22c0.771,0.7,1.81,1.04,3.03,0.98c1.279-0.04,2.25-0.49,2.92-1.29
		c0.689-0.78,1.02-1.92,0.939-3.29c-0.069-1.44-0.5-2.55-1.27-3.25c-0.78-0.69-1.78-1.04-3-0.94c-1.27,0.04-2.23,0.46-2.92,1.261
		c-0.7,0.8-1.01,1.869-0.94,3.319C457.96,1693.44,458.35,1694.51,459.13,1695.22 M453.01,1688.37c0.66-1.391,1.66-2.43,3.01-3.09
		c-1.42-0.891-2.31-1.79-2.8-2.84c-0.45-1.07-0.7-2.011-0.739-3c-0.12-2.021,0.539-3.83,2.02-5.351c1.46-1.52,3.61-2.38,6.42-2.49
		c2.79-0.18,5.02,0.45,6.62,1.851c1.62,1.31,2.49,3.04,2.62,5.06c0.05,0.94-0.13,1.96-0.5,3.08c-0.34,1.07-1.15,2.08-2.49,2.85
		c1.45,0.761,2.53,1.69,3.311,3.001c0.75,1.22,1.14,2.63,1.229,4.229c0.15,2.4-0.62,4.47-2.29,6.28c-1.67,1.74-4.06,2.72-7.22,2.92
		c-3.15,0.13-5.55-0.561-7.261-2.16c-1.72-1.601-2.619-3.59-2.739-5.97C452.1,1691.11,452.35,1689.68,453.01,1688.37 M458.83,1682.3
		c0.67,0.63,1.56,0.88,2.68,0.84c1.11-0.069,1.96-0.42,2.551-1.109c0.579-0.721,0.85-1.561,0.8-2.59
		c-0.05-1.131-0.41-1.95-1.04-2.54c-0.641-0.601-1.551-0.91-2.65-0.87c-1.12,0.1-2.01,0.45-2.58,1.1c-0.63,0.7-0.87,1.55-0.8,2.69
		C457.82,1680.88,458.189,1681.68,458.83,1682.3"/>
	<path fill="#14205B" d="M495.32,1674.01c-0.75,0.88-1.73,2.44-3.061,4.681c-1.3,2.26-2.33,4.489-3.149,6.81
		c-0.61,1.84-1.11,4.08-1.5,6.65c-0.431,2.63-0.591,4.68-0.431,6.34l-5.75,0.53c-0.279-5.091,0.94-10.57,3.631-16.261
		c1.68-3.6,3.18-6.12,4.42-7.59l-14.04,1.25l-0.33-4.99l19.84-1.77L495.32,1674.01z"/>
	<path fill="#14205B" d="M453.2,1044.16c-222.16,0-402.9,180.729-402.9,402.89s180.74,402.88,402.9,402.88
		c222.14,0,402.84-180.72,402.84-402.88S675.34,1044.16,453.2,1044.16 M816.22,1369.76c10.271,18.431-1.01,38.45-9.17,44.811
		C797.33,1392.08,807.6,1376.81,816.22,1369.76 M767.88,1528.55c-0.85-11.16,3.21-29.09,26.26-37.51
		C794.64,1496.43,785.23,1524.06,767.88,1528.55 M774.1,1569.51c-4.13-10.3-5.63-28.67,13.83-43.64
		C791.939,1535.44,792.04,1558.38,774.1,1569.51 M775.54,1490.16c-0.94-11.11,3-29.09,26.01-37.71
		C802.061,1457.89,792.86,1485.59,775.54,1490.16 M772.89,1379.42c17.57,3.65,28.181,30.83,27.91,36.28
		C777.41,1408.31,772.54,1390.55,772.89,1379.42 M793.46,1434.26c-0.13-6.18,4.79-11.27,10.979-11.38
		c6.181-0.12,11.271,4.811,11.371,11c0.109,6.16-4.791,11.271-10.99,11.39C798.66,1445.36,793.57,1440.45,793.46,1434.26
		 M802.39,1330.24c12.601,16.92,4.11,38.279-3.13,45.66C786.63,1354.9,794.78,1338.39,802.39,1330.24 M763.9,1341.28
		c17.569,3.55,28.439,30.66,28.189,36.069C768.64,1370.15,763.65,1352.44,763.9,1341.28 M784.65,1342.68
		c-20.211-13.87-19.67-32.29-16.091-42.8C787.04,1310.01,788.13,1332.93,784.65,1342.68 M740.76,1447.04
		c0,158.54-129.02,287.59-287.56,287.59c-158.6,0-287.61-129.04-287.61-287.59c0-158.58,129-287.61,287.61-287.61
		C611.74,1159.43,740.76,1288.46,740.76,1447.04 M138.25,1299.87c3.6,10.52,4.16,28.939-16.06,42.8
		C118.67,1332.93,119.79,1310.01,138.25,1299.87 M142.93,1341.28c0.25,11.16-4.75,28.87-28.17,36.069
		C114.49,1371.94,125.34,1344.83,142.93,1341.28 M112.72,1491.04c23.021,8.42,27.061,26.35,26.24,37.51
		C121.59,1524.06,112.2,1496.43,112.72,1491.04 M132.73,1569.51c-17.94-11.13-17.87-34.069-13.83-43.64
		C138.37,1540.84,136.86,1559.21,132.73,1569.51 M113.38,1434.26c-0.11,6.19-5.18,11.101-11.36,11.021
		c-6.19-0.12-11.11-5.23-11.01-11.391c0.11-6.189,5.19-11.119,11.39-11C108.58,1422.99,113.5,1428.08,113.38,1434.26 M106.04,1415.7
		c-0.27-5.45,10.35-32.63,27.9-36.28C134.29,1390.55,129.42,1408.31,106.04,1415.7 M131.3,1490.16
		c-17.32-4.57-26.54-32.271-26-37.71C128.3,1461.06,132.24,1479.05,131.3,1490.16 M104.41,1330.24
		c7.64,8.14,15.78,24.649,3.15,45.66C100.33,1368.53,91.85,1347.16,104.41,1330.24 M90.59,1369.76
		c8.64,7.05,18.92,22.32,9.19,44.811C91.61,1408.21,80.34,1388.19,90.59,1369.76 M87.51,1497.52c-9.25-18.96,3.03-38.35,11.51-44.31
		C107.55,1476.22,96.49,1490.96,87.51,1497.52 M105.46,1492.09c11.51,21.67,2.54,37.71-5.52,45.42
		C88.23,1519.98,97.84,1499.1,105.46,1492.09 M806.89,1537.51c-8.06-7.71-17.02-23.74-5.55-45.42
		C809.01,1499.1,818.59,1519.98,806.89,1537.51 M807.78,1453.21c8.52,5.95,20.81,25.35,11.54,44.31
		C810.31,1490.96,799.28,1476.22,807.78,1453.21"/>
	<path fill="#FFFFFF" d="M158.89,1594.03c9.6-5.66,10.54-6.48,8.57-11.12l-1.48-3.391c-0.07-1.199,2.01-2.449,3.36-1.689
		c4.44,6.46,9.53,14.21,14.79,23.13c5.13,8.68,7.55,14.99,8.55,20.18c1.5,7.551,0.14,16.771-9.08,22.21
		c-15.61,9.181-27.86-6.38-31.06-11.779c-0.69-1.24-1.24-2.181-1.85-3.36c0-1.08,1.42-2.16,2.42-1.81
		c7.46,7.04,14.1,5.479,21.15,1.29c7.03-4.131,12.37-12.521,6.93-21.7c-2.24-3.78-3.4-3.391-7.21-1.11l-40.16,23.61
		c-8.87,5.22-9.15,6.25-7.19,11.29l1.44,3.569c0.18,1.38-1.98,2.69-3.22,1.9c-3.19-5.83-6.07-10.92-8.96-15.83
		c-2.88-4.92-5.86-9.78-9.35-15.189c-0.09-1.46,2-2.95,3.13-2.12l2.17,2.609c3.47,4.15,4.5,4.37,13.36-0.85L158.89,1594.03z"/>
	<path fill="none" stroke="#FFFFFF" stroke-width="0.13" d="M158.89,1594.03c9.6-5.66,10.54-6.48,8.57-11.12l-1.48-3.391
		c-0.07-1.199,2.01-2.449,3.36-1.689c4.44,6.46,9.53,14.21,14.79,23.13c5.13,8.68,7.55,14.99,8.55,20.18
		c1.5,7.551,0.14,16.771-9.08,22.21c-15.61,9.181-27.86-6.38-31.06-11.779c-0.69-1.24-1.24-2.181-1.85-3.36
		c0-1.08,1.42-2.16,2.42-1.81c7.46,7.04,14.1,5.479,21.15,1.29c7.03-4.131,12.37-12.521,6.93-21.7c-2.24-3.78-3.4-3.391-7.21-1.11
		l-40.16,23.61c-8.87,5.22-9.15,6.25-7.19,11.29l1.44,3.569c0.18,1.38-1.98,2.69-3.22,1.9c-3.19-5.83-6.07-10.92-8.96-15.83
		c-2.88-4.92-5.86-9.78-9.35-15.189c-0.09-1.46,2-2.95,3.13-2.12l2.17,2.609c3.47,4.15,4.5,4.37,13.36-0.85L158.89,1594.03z"/>
	<path fill="#FFFFFF" d="M178.98,1691.07c-7.91,6.729-8.02,7.779-5.18,12.52l1.73,2.88c0.12,1.13-1.88,2.7-3.01,2.44
		c-3.96-5.06-7.67-9.55-11.3-13.81c-3.689-4.351-7.62-8.811-11.92-13.561c-0.12-1.11,1.8-2.76,2.93-2.5l2.57,2.19
		c4.21,3.58,5.26,3.63,13.18-3.08l30.94-26.391c7.93-6.72,8.04-7.75,5.19-12.5l-1.73-2.88c-0.13-1.149,1.83-2.83,2.94-2.529
		c3.97,5.069,7.729,9.67,11.46,13.989c3.61,4.23,7.54,8.681,11.87,13.46c0.12,1.15-1.83,2.771-2.94,2.471l-2.59-2.16
		c-4.22-3.59-5.26-3.63-13.15,3.12L178.98,1691.07z"/>
	<path fill="none" stroke="#FFFFFF" stroke-width="0.13" d="M178.98,1691.07c-7.91,6.729-8.02,7.779-5.18,12.52l1.73,2.88
		c0.12,1.13-1.88,2.7-3.01,2.44c-3.96-5.06-7.67-9.55-11.3-13.81c-3.689-4.351-7.62-8.811-11.92-13.561
		c-0.12-1.11,1.8-2.76,2.93-2.5l2.57,2.19c4.21,3.58,5.26,3.63,13.18-3.08l30.94-26.391c7.93-6.72,8.04-7.75,5.19-12.5l-1.73-2.88
		c-0.13-1.149,1.83-2.83,2.94-2.529c3.97,5.069,7.729,9.67,11.46,13.989c3.61,4.23,7.54,8.681,11.87,13.46
		c0.12,1.15-1.83,2.771-2.94,2.471l-2.59-2.16c-4.22-3.59-5.26-3.63-13.15,3.12L178.98,1691.07z"/>
	<path fill="#FFFFFF" d="M247.28,1690.1c1.65-2.04,2.01-2.449-0.21-4.26l-5.72-4.609c-6.76-5.471-11.48-3.591-19.32,0.449
		c-1.521-0.38-3.13-1.97-2.8-3.529c6.73-4.381,11.5-9.32,14.86-12.17c0.57,0.039,1.16,0.239,1.64,0.63c0.46,0.38,0.85,0.8,1.03,1.38
		c-0.72,1.84-0.72,2.399,6.29,8.08l34.39,27.72c6.1,4.92,7.56,5.97,9.85,4.82c0.51,0.14,0.85,0.27,1.4,0.689
		c0.56,0.45,0.94,1.36,0.92,1.74c-3.29,2.18-9.57,8.65-13.33,13.68c-1.09,0.381-3.72-1.46-3.62-2.52
		c2.85-6.75,4.83-11.83-2.11-17.44l-5.53-4.46c-2.25-1.81-2.72-1.779-4.53,0.49l-30.6,37.93c-6.46,7.98-6.4,9.021-2.7,12.971
		l3.33,3.43c0.25,1.04-1.35,3.021-2.41,3.021c-5.86-5.021-10.43-8.851-14.59-12.2c-4.42-3.601-9.31-7.351-15.93-12.41
		c-0.31-1.11,1.28-3.09,2.44-3.021l4.49,2.94c4.66,2.75,5.68,2.61,12.15-5.43L247.28,1690.1z"/>
	<path fill="none" stroke="#FFFFFF" stroke-width="0.13" d="M247.28,1690.1c1.65-2.04,2.01-2.449-0.21-4.26l-5.72-4.609
		c-6.76-5.471-11.48-3.591-19.32,0.449c-1.521-0.38-3.13-1.97-2.8-3.529c6.73-4.381,11.5-9.32,14.86-12.17
		c0.57,0.039,1.16,0.239,1.64,0.63c0.46,0.38,0.85,0.8,1.03,1.38c-0.72,1.84-0.72,2.399,6.29,8.08l34.39,27.72
		c6.1,4.92,7.56,5.97,9.85,4.82c0.51,0.14,0.85,0.27,1.4,0.689c0.56,0.45,0.94,1.36,0.92,1.74c-3.29,2.18-9.57,8.65-13.33,13.68
		c-1.09,0.381-3.72-1.46-3.62-2.52c2.85-6.75,4.83-11.83-2.11-17.44l-5.53-4.46c-2.25-1.81-2.72-1.779-4.53,0.49l-30.6,37.93
		c-6.46,7.98-6.4,9.021-2.7,12.971l3.33,3.43c0.25,1.04-1.35,3.021-2.41,3.021c-5.86-5.021-10.43-8.851-14.59-12.2
		c-4.42-3.601-9.31-7.351-15.93-12.41c-0.31-1.11,1.28-3.09,2.44-3.021l4.49,2.94c4.66,2.75,5.68,2.61,12.15-5.43L247.28,1690.1z"/>
	<path fill="#FFFFFF" d="M312.2,1732.83c1.109-2.39,1.34-2.88-1.24-4.09l-6.68-3.11c-7.86-3.649-11.98-0.67-18.62,5.12
		c-1.54,0-3.52-1.14-3.56-2.729c5.49-5.83,8.91-11.851,11.48-15.36c0.56-0.141,1.18-0.101,1.74,0.18c0.52,0.24,1.02,0.601,1.33,1.07
		c-0.26,1.99-0.12,2.53,8.081,6.359l40.06,18.591c7.1,3.3,8.77,3.96,10.729,2.319c0.521,0,0.9,0.04,1.521,0.32
		c0.63,0.3,1.24,1.05,1.31,1.46c-2.68,2.9-7.189,10.69-9.64,16.48c-0.96,0.66-3.97-0.511-4.13-1.551
		c1.16-7.279,1.86-12.659-6.24-16.46l-6.46-2.989c-2.58-1.2-3.05-1.021-4.27,1.56l-20.511,44.18c-4.34,9.36-4.02,10.33,0.5,13.271
		l4.091,2.53c0.47,0.949-0.61,3.22-1.66,3.5c-6.9-3.431-12.23-6.061-17.09-8.301c-5.16-2.399-10.81-4.92-18.46-8.189
		c-0.57-1.03,0.5-3.32,1.65-3.53l5.06,1.79c5.19,1.5,6.16,1.11,10.47-8.2L312.2,1732.83z"/>
	<path fill="none" stroke="#FFFFFF" stroke-width="0.13" d="M312.2,1732.83c1.109-2.39,1.34-2.88-1.24-4.09l-6.68-3.11
		c-7.86-3.649-11.98-0.67-18.62,5.12c-1.54,0-3.52-1.14-3.56-2.729c5.49-5.83,8.91-11.851,11.48-15.36
		c0.56-0.141,1.18-0.101,1.74,0.18c0.52,0.24,1.02,0.601,1.33,1.07c-0.26,1.99-0.12,2.53,8.081,6.359l40.06,18.591
		c7.1,3.3,8.77,3.96,10.729,2.319c0.521,0,0.9,0.04,1.521,0.32c0.63,0.3,1.24,1.05,1.31,1.46c-2.68,2.9-7.189,10.69-9.64,16.48
		c-0.96,0.66-3.97-0.511-4.13-1.551c1.16-7.279,1.86-12.659-6.24-16.46l-6.46-2.989c-2.58-1.2-3.05-1.021-4.27,1.56l-20.511,44.18
		c-4.34,9.36-4.02,10.33,0.5,13.271l4.091,2.53c0.47,0.949-0.61,3.22-1.66,3.5c-6.9-3.431-12.23-6.061-17.09-8.301
		c-5.16-2.399-10.81-4.92-18.46-8.189c-0.57-1.03,0.5-3.32,1.65-3.53l5.06,1.79c5.19,1.5,6.16,1.11,10.47-8.2L312.2,1732.83z"/>
	<path fill="#FFFFFF" d="M365.59,1822.04c-10.67-2.39-16.66-6.66-18.79-8.51c-1.689-2.86-1.45-10.99,0.21-18.29
		c1.11-1.21,3.811-0.75,4.46,0.66c0.75,7.52,6.3,19.159,16.13,21.39c8.58,1.93,13.761-2.71,14.98-8.08
		c1.95-8.729-5.68-15.91-11.92-20.66c-7.48-5.75-15.061-14.27-12.771-24.96c2.721-12.22,14.721-18.32,31.511-14.55
		c3.84,0.87,8.489,2.33,12.819,4.68c1.42,0.771,2.42,1.221,3.75,1.75c0.4,2.601,0.24,8.66-1.38,15.87
		c-0.87,1.18-3.79,0.63-4.59-0.66c-0.72-5.97-3.95-14.93-12.29-16.819c-7.68-1.721-12.87,1.979-14.08,7.39
		c-1.12,4.95,2.63,10.54,7.78,14.64l6.8,5.49c6.42,5.17,14.15,13.5,11.5,25.311C396.73,1819.96,383.09,1825.96,365.59,1822.04"/>
	<path fill="none" stroke="#FFFFFF" stroke-width="0.13" d="M365.59,1822.04c-10.67-2.39-16.66-6.66-18.79-8.51
		c-1.689-2.86-1.45-10.99,0.21-18.29c1.11-1.21,3.811-0.75,4.46,0.66c0.75,7.52,6.3,19.159,16.13,21.39
		c8.58,1.93,13.761-2.71,14.98-8.08c1.95-8.729-5.68-15.91-11.92-20.66c-7.48-5.75-15.061-14.27-12.771-24.96
		c2.721-12.22,14.721-18.32,31.511-14.55c3.84,0.87,8.489,2.33,12.819,4.68c1.42,0.771,2.42,1.221,3.75,1.75
		c0.4,2.601,0.24,8.66-1.38,15.87c-0.87,1.18-3.79,0.63-4.59-0.66c-0.72-5.97-3.95-14.93-12.29-16.819
		c-7.68-1.721-12.87,1.979-14.08,7.39c-1.12,4.95,2.63,10.54,7.78,14.64l6.8,5.49c6.42,5.17,14.15,13.5,11.5,25.311
		C396.73,1819.96,383.09,1825.96,365.59,1822.04z"/>
	<path fill="#FFFFFF" d="M425.61,1775c0.159-11.16-0.05-12.36-5.03-13.021l-3.19-0.46c-1.069-0.619-1.25-3.909,0.521-3.979
		c9.04-0.38,17.72-0.69,29.609-0.51c11.41,0.199,18.98,1.479,24.17,4.489c5.03,2.94,8.041,7.62,7.95,14.141
		c-0.159,9.28-8.64,12.76-12.34,13.62c-1.2,0.21-2.37,0.6-2.39,1.149c0,0.34,0.609,0.69,1.649,0.92
		c9.351,2.051,17.221,7.88,17.15,18.62c-0.04,10.181-6.66,16.01-14.19,18.32c-7.539,2.32-16.439,2.5-23.67,2.399
		c-4.279-0.079-8.8-0.6-12.25-0.659c-5.819-0.091-11.63-0.091-18.409,0.029c-0.94-0.67-0.9-3.529,0.069-3.87l3.471-0.63
		c5.33-0.88,6.06-1.64,6.239-11.58L425.61,1775z M441.4,1811.5c-0.141,8.59,0.96,14.021,10.21,14.21c8.8,0.1,13.52-6.07,13.67-15.05
		c0.159-9.59-5.65-16.43-17.061-16.601c-6.55-0.1-6.55,0-6.62,4.381L441.4,1811.5z M441.811,1785.97
		c-0.051,2.9,0.06,3.12,6.25,3.221c10.199,0.17,14.09-5.86,14.22-12.48c0.159-9.6-6.19-14.45-14.38-14.59
		c-5.57-0.08-5.73,0.79-5.801,5.649L441.811,1785.97z"/>
	<path fill="none" stroke="#FFFFFF" stroke-width="0.13" d="M425.61,1775c0.159-11.16-0.05-12.36-5.03-13.021l-3.19-0.46
		c-1.069-0.619-1.25-3.909,0.521-3.979c9.04-0.38,17.72-0.69,29.609-0.51c11.41,0.199,18.98,1.479,24.17,4.489
		c5.03,2.94,8.041,7.62,7.95,14.141c-0.159,9.28-8.64,12.76-12.34,13.62c-1.2,0.21-2.37,0.6-2.39,1.149
		c0,0.34,0.609,0.69,1.649,0.92c9.351,2.051,17.221,7.88,17.15,18.62c-0.04,10.181-6.66,16.01-14.19,18.32
		c-7.539,2.32-16.439,2.5-23.67,2.399c-4.279-0.079-8.8-0.6-12.25-0.659c-5.819-0.091-11.63-0.091-18.409,0.029
		c-0.94-0.67-0.9-3.529,0.069-3.87l3.471-0.63c5.33-0.88,6.06-1.64,6.239-11.58L425.61,1775z M441.4,1811.5
		c-0.141,8.59,0.96,14.021,10.21,14.21c8.8,0.1,13.52-6.07,13.67-15.05c0.159-9.59-5.65-16.43-17.061-16.601
		c-6.55-0.1-6.55,0-6.62,4.381L441.4,1811.5z M441.811,1785.97c-0.051,2.9,0.06,3.12,6.25,3.221c10.199,0.17,14.09-5.86,14.22-12.48
		c0.159-9.6-6.19-14.45-14.38-14.59c-5.57-0.08-5.73,0.79-5.801,5.649L441.811,1785.97z"/>
	<path fill="#FFFFFF" d="M498.54,1771.65c-2.37-9.98-3.23-10.61-8.64-10.19l-3.011,0.14c-1.1-0.42-1.76-2.75-0.64-3.689
		c5.6-1.09,11.39-2.38,16.93-3.68c5.681-1.381,11.32-2.82,16.82-4.381c1.07,0.45,1.65,2.811,0.85,3.66l-2.649,1.11
		c-4.98,2.22-5.5,3.13-3.11,13.109l5.88,24.811c3,12.58,7.79,26.1,25.341,21.93c14.8-3.51,16.449-16.64,12.93-31.37l-3.09-13
		c-2.07-8.699-4.46-16.779-6.41-19.229c-1.561-2.05-4.271-2.05-7.51-1.88l-3.24,0.21c-1.13-0.641-1.42-2.86-0.891-3.63
		c6.301-1.29,10.841-2.23,15.57-3.391c4.29-0.979,8.54-2.09,12.86-3.39c0.87,0.5,1.609,2.59,0.899,3.66l-1.979,0.89
		c-2.851,1.391-4.9,2.58-5.41,5.061c-0.601,3.1,0.86,11.369,2.95,20.109l2.85,12.021c2.391,10.1,3.55,19.59-1.24,27.689
		c-3.88,6.25-11.67,10.931-21.04,13.17c-8.79,2.061-16.949,2.67-24.3-0.619c-7.13-3.181-11.54-10.511-14.34-22.261L498.54,1771.65z"
		/>
	<path fill="none" stroke="#FFFFFF" stroke-width="0.13" d="M498.54,1771.65c-2.37-9.98-3.23-10.61-8.64-10.19l-3.011,0.14
		c-1.1-0.42-1.76-2.75-0.64-3.689c5.6-1.09,11.39-2.38,16.93-3.68c5.681-1.381,11.32-2.82,16.82-4.381
		c1.07,0.45,1.65,2.811,0.85,3.66l-2.649,1.11c-4.98,2.22-5.5,3.13-3.11,13.109l5.88,24.811c3,12.58,7.79,26.1,25.341,21.93
		c14.8-3.51,16.449-16.64,12.93-31.37l-3.09-13c-2.07-8.699-4.46-16.779-6.41-19.229c-1.561-2.05-4.271-2.05-7.51-1.88l-3.24,0.21
		c-1.13-0.641-1.42-2.86-0.891-3.63c6.301-1.29,10.841-2.23,15.57-3.391c4.29-0.979,8.54-2.09,12.86-3.39
		c0.87,0.5,1.609,2.59,0.899,3.66l-1.979,0.89c-2.851,1.391-4.9,2.58-5.41,5.061c-0.601,3.1,0.86,11.369,2.95,20.109l2.85,12.021
		c2.391,10.1,3.55,19.59-1.24,27.689c-3.88,6.25-11.67,10.931-21.04,13.17c-8.79,2.061-16.949,2.67-24.3-0.619
		c-7.13-3.181-11.54-10.511-14.34-22.261L498.54,1771.65z"/>
	<path fill="#FFFFFF" d="M590.63,1746.21c-5.399-9.59-6.2-10.57-10.88-8.71l-3.02,1.22c-1.301,0.09-2.67-2.34-1.681-3.529
		c7.5-4.851,15.38-9.75,25.21-15.25c8.811-4.98,17.07-7.91,22.24-7.91c7.83-0.101,13.67,2.93,17.13,9.13
		c4.81,8.55,0.66,15.729-2.87,20.59c-0.76,1.09-0.43,1.65,0.67,2.45c14.09,9.05,22.391,13.89,29.59,15.05
		c3.83,0.51,6.841-0.43,8.431-1.18c1.22-0.04,2.04,1.43,1.83,2.25c-1.271,1.63-4.46,3.68-7.69,5.51
		c-9.54,5.3-17.33,5.51-25.779,1.14c-6.181-3.26-11.211-6.649-16.461-10.42c-2.72-1.87-4.789-1.74-7.38-0.279
		c-3.64,2.01-3.729,2.329-2.64,4.26l6.64,11.859c4.98,8.87,5.99,9.181,11.061,7.351l3.069-1.07c1,0.04,2.301,2.36,1.891,3.36
		c-5.601,2.88-10.41,5.47-15.391,8.279c-5.17,2.881-9.67,5.521-14.96,8.73c-1.13-0.1-2.439-2.4-1.88-3.35l2.51-2.061
		c4.23-3.37,4.471-4.39-0.5-13.26L590.63,1746.21z M611.7,1750.51c1.89,3.37,2.37,3.46,8.47,0.04c3.74-2.06,5.42-4.16,6.36-7.1
		c0.85-2.641,1.08-6.83-2.091-12.48c-4.879-8.689-13.51-11.189-21.579-6.689c-4.25,2.41-4.091,2.71-1.7,7.45L611.7,1750.51z"/>
	<path fill="none" stroke="#FFFFFF" stroke-width="0.13" d="M590.63,1746.21c-5.399-9.59-6.2-10.57-10.88-8.71l-3.02,1.22
		c-1.301,0.09-2.67-2.34-1.681-3.529c7.5-4.851,15.38-9.75,25.21-15.25c8.811-4.98,17.07-7.91,22.24-7.91
		c7.83-0.101,13.67,2.93,17.13,9.13c4.81,8.55,0.66,15.729-2.87,20.59c-0.76,1.09-0.43,1.65,0.67,2.45
		c14.09,9.05,22.391,13.89,29.59,15.05c3.83,0.51,6.841-0.43,8.431-1.18c1.22-0.04,2.04,1.43,1.83,2.25
		c-1.271,1.63-4.46,3.68-7.69,5.51c-9.54,5.3-17.33,5.51-25.779,1.14c-6.181-3.26-11.211-6.649-16.461-10.42
		c-2.72-1.87-4.789-1.74-7.38-0.279c-3.64,2.01-3.729,2.329-2.64,4.26l6.64,11.859c4.98,8.87,5.99,9.181,11.061,7.351l3.069-1.07
		c1,0.04,2.301,2.36,1.891,3.36c-5.601,2.88-10.41,5.47-15.391,8.279c-5.17,2.881-9.67,5.521-14.96,8.73
		c-1.13-0.1-2.439-2.4-1.88-3.35l2.51-2.061c4.23-3.37,4.471-4.39-0.5-13.26L590.63,1746.21z M611.7,1750.51
		c1.89,3.37,2.37,3.46,8.47,0.04c3.74-2.06,5.42-4.16,6.36-7.1c0.85-2.641,1.08-6.83-2.091-12.48
		c-4.879-8.689-13.51-11.189-21.579-6.689c-4.25,2.41-4.091,2.71-1.7,7.45L611.7,1750.51z"/>
	<path fill="#FFFFFF" d="M729.51,1696.51c3.13,3.44,4.811,4.9,6.78,3.7c0.63,0,1.83,1.46,1.52,2.19c-1.25,1.6-3.329,3.96-5.01,6.87
		c-2.25,3.699-8.819,11.649-13.72,16.119c-5.94,5.471-11.55,9.551-19.85,12.98c-13.761,5.57-29.041,2.99-39.82-8.79
		c-9.3-10.19-12.63-23.59-7.141-38.72c3.221-8.48,9.101-16.28,16.551-23.101c9.71-8.92,16.33-11.359,19.109-13.92
		c2.521,2.2,7.83,7.771,13.26,11.99c0.48,1.19-1.81,3.44-3.17,3.18c-9.819-5.06-18.84-3.84-26.979,3.62
		c-13.94,12.771-10.83,29.66,0.979,42.57c10.67,11.649,21.341,14.609,30.29,12.979c6.591-1.26,11.601-4.93,14.841-7.899
		c4.989-4.57,5.22-6.45,0.35-11.721l-4.69-5.159c-4.04-4.37-5.01-4.381-9.76-1.11l-4.29,3.08c-1.42,0.38-3.13-1.48-2.62-2.9
		c6.391-5.52,10.74-9.359,15.03-13.27c4.21-3.891,8.43-7.87,11.26-10.771c1.13-0.149,2.87,1.721,2.59,2.83l-1.699,2.19
		c-2.17,2.899-2.04,4.09,2.01,8.52L729.51,1696.51z"/>
	<path fill="none" stroke="#FFFFFF" stroke-width="0.13" d="M729.51,1696.51c3.13,3.44,4.811,4.9,6.78,3.7
		c0.63,0,1.83,1.46,1.52,2.19c-1.25,1.6-3.329,3.96-5.01,6.87c-2.25,3.699-8.819,11.649-13.72,16.119
		c-5.94,5.471-11.55,9.551-19.85,12.98c-13.761,5.57-29.041,2.99-39.82-8.79c-9.3-10.19-12.63-23.59-7.141-38.72
		c3.221-8.48,9.101-16.28,16.551-23.101c9.71-8.92,16.33-11.359,19.109-13.92c2.521,2.2,7.83,7.771,13.26,11.99
		c0.48,1.19-1.81,3.44-3.17,3.18c-9.819-5.06-18.84-3.84-26.979,3.62c-13.94,12.771-10.83,29.66,0.979,42.57
		c10.67,11.649,21.341,14.609,30.29,12.979c6.591-1.26,11.601-4.93,14.841-7.899c4.989-4.57,5.22-6.45,0.35-11.721l-4.69-5.159
		c-4.04-4.37-5.01-4.381-9.76-1.11l-4.29,3.08c-1.42,0.38-3.13-1.48-2.62-2.9c6.391-5.52,10.74-9.359,15.03-13.27
		c4.21-3.891,8.43-7.87,11.26-10.771c1.13-0.149,2.87,1.721,2.59,2.83l-1.699,2.19c-2.17,2.899-2.04,4.09,2.01,8.52L729.51,1696.51z
		"/>
	<path fill="#FFFFFF" d="M743.32,1639.85c-2.561,4.16-2.521,4.301,0.109,5.94l13.54,8.34c8.74,5.4,9.771,5.21,13.32,1.11l2.39-3.011
		c1.051-0.47,3.221,0.891,3.29,2.03c-3.739,5.641-6.979,10.641-9.77,15.19c-3.021,4.87-6.03,9.99-9.03,15.229
		c-1.05,0.511-3.22-0.83-3.29-2l1.23-2.62c1.96-5.06,1.67-6.079-7.07-11.47l-34.95-21.55c-8.779-5.41-9.8-5.21-13.45-1.15
		l-1.779,2.221c-1.04,0.479-3.221-0.88-3.29-2c3.25-4.851,6.6-10.07,9.58-14.9c2.81-4.57,5.819-9.68,8.38-14.25
		c1.069-0.43,3.239,0.87,3.29,2.04l-1.03,2.29c-1.83,4.86-1.56,5.89,7.22,11.29l10.9,6.729c2.71,1.671,2.859,1.641,5.43-2.5
		l12.98-21.039c2.609-4.261,2.52-4.33-0.2-5.98l-10.92-6.73c-8.73-5.399-9.71-5.3-13.341-1.109l-2.05,2.49
		c-1.05,0.489-3.22-0.86-3.29-2.04c3.62-5.44,6.78-10.351,9.771-15.21c3.06-4.94,5.81-9.63,8.51-14.391
		c1.07-0.489,3.25,0.84,3.29,2.011l-0.96,2.229c-2.03,5.13-1.74,6.15,7,11.53l34.979,21.59c8.75,5.43,9.75,5.18,13.4,1.01l1.85-2.18
		c1.07-0.47,3.24,0.85,3.301,2c-3.301,4.95-6.45,9.84-9.33,14.51c-3.131,5.04-6.061,10.05-8.9,14.99c-1.04,0.5-3.21-0.84-3.28-1.99
		l1.08-2.41c2.04-5.18,1.7-6.06-7.06-11.47l-13.54-8.35c-2.62-1.62-2.72-1.66-5.34,2.569L743.32,1639.85z"/>
	<path fill="none" stroke="#FFFFFF" stroke-width="0.13" d="M743.32,1639.85c-2.561,4.16-2.521,4.301,0.109,5.94l13.54,8.34
		c8.74,5.4,9.771,5.21,13.32,1.11l2.39-3.011c1.051-0.47,3.221,0.891,3.29,2.03c-3.739,5.641-6.979,10.641-9.77,15.19
		c-3.021,4.87-6.03,9.99-9.03,15.229c-1.05,0.511-3.22-0.83-3.29-2l1.23-2.62c1.96-5.06,1.67-6.079-7.07-11.47l-34.95-21.55
		c-8.779-5.41-9.8-5.21-13.45-1.15l-1.779,2.221c-1.04,0.479-3.221-0.88-3.29-2c3.25-4.851,6.6-10.07,9.58-14.9
		c2.81-4.57,5.819-9.68,8.38-14.25c1.069-0.43,3.239,0.87,3.29,2.04l-1.03,2.29c-1.83,4.86-1.56,5.89,7.22,11.29l10.9,6.729
		c2.71,1.671,2.859,1.641,5.43-2.5l12.98-21.039c2.609-4.261,2.52-4.33-0.2-5.98l-10.92-6.73c-8.73-5.399-9.71-5.3-13.341-1.109
		l-2.05,2.49c-1.05,0.489-3.22-0.86-3.29-2.04c3.62-5.44,6.78-10.351,9.771-15.21c3.06-4.94,5.81-9.63,8.51-14.391
		c1.07-0.489,3.25,0.84,3.29,2.011l-0.96,2.229c-2.03,5.13-1.74,6.15,7,11.53l34.979,21.59c8.75,5.43,9.75,5.18,13.4,1.01l1.85-2.18
		c1.07-0.47,3.24,0.85,3.301,2c-3.301,4.95-6.45,9.84-9.33,14.51c-3.131,5.04-6.061,10.05-8.9,14.99c-1.04,0.5-3.21-0.84-3.28-1.99
		l1.08-2.41c2.04-5.18,1.7-6.06-7.06-11.47l-13.54-8.35c-2.62-1.62-2.72-1.66-5.34,2.569L743.32,1639.85z"/>
	<path fill="#FFFFFF" d="M142.53,1257.49c-6.04-4.181-6.771-4.12-9.32-1.55l-1.44,1.399c-0.76,0.24-2.22-0.67-2.1-1.649
		c2.28-3.011,4.59-6.211,6.74-9.33c2.2-3.19,4.35-6.42,6.38-9.601c0.74-0.25,2.18,0.73,2.2,1.53l-0.83,1.71
		c-1.44,3.31-1.25,4.021,4.78,8.22l15,10.391c7.6,5.239,16.53,10.17,23.36,0.33c5.75-8.301,0.22-15.87-8.65-22.021l-7.85-5.46
		c-5.24-3.62-10.36-6.77-12.54-7.229c-1.77-0.37-3.13,0.8-4.68,2.319l-1.53,1.53c-0.87,0.17-2.08-0.89-2.22-1.53
		c2.57-3.399,4.38-5.88,6.23-8.55c1.67-2.4,3.24-4.84,4.83-7.39c0.67-0.141,2.05,0.64,2.2,1.5l-0.55,1.37
		c-0.78,1.939-1.24,3.449-0.27,4.97c1.18,1.87,5.93,5.55,11.2,9.189l7.26,5.021c6.09,4.24,11.28,8.67,12.75,14.99
		c1.07,4.96-0.6,10.819-4.25,16.06c-3.39,4.94-7.23,8.82-12.51,10.34c-5.13,1.44-10.899-0.45-17.99-5.359L142.53,1257.49z"/>
	<path fill="none" stroke="#FFFFFF" stroke-width="0.13" d="M142.53,1257.49c-6.04-4.181-6.771-4.12-9.32-1.55l-1.44,1.399
		c-0.76,0.24-2.22-0.67-2.1-1.649c2.28-3.011,4.59-6.211,6.74-9.33c2.2-3.19,4.35-6.42,6.38-9.601c0.74-0.25,2.18,0.73,2.2,1.53
		l-0.83,1.71c-1.44,3.31-1.25,4.021,4.78,8.22l15,10.391c7.6,5.239,16.53,10.17,23.36,0.33c5.75-8.301,0.22-15.87-8.65-22.021
		l-7.85-5.46c-5.24-3.62-10.36-6.77-12.54-7.229c-1.77-0.37-3.13,0.8-4.68,2.319l-1.53,1.53c-0.87,0.17-2.08-0.89-2.22-1.53
		c2.57-3.399,4.38-5.88,6.23-8.55c1.67-2.4,3.24-4.84,4.83-7.39c0.67-0.141,2.05,0.64,2.2,1.5l-0.55,1.37
		c-0.78,1.939-1.24,3.449-0.27,4.97c1.18,1.87,5.93,5.55,11.2,9.189l7.26,5.021c6.09,4.24,11.28,8.67,12.75,14.99
		c1.07,4.96-0.6,10.819-4.25,16.06c-3.39,4.94-7.23,8.82-12.51,10.34c-5.13,1.44-10.899-0.45-17.99-5.359L142.53,1257.49z"/>
	<path fill="#FFFFFF" d="M238.44,1187.72c3.54,3.721,6.94,7.34,8.86,9.12c0.22,1.07-0.78,3.22-2.15,4.521
		c-0.07,0.08-4.73-1.09-10.57-1.87l-28.75-3.88c-7.16-1.051-11.34-1.551-13.18-1.44c0.25,0.851,1.18,1.81,3.17,3.94l10.52,11.149
		c4.38,4.63,8.67,8.71,10.79,9.67c1.64,0.73,3.28-0.189,5.06-1.29l1.82-1.3c0.91,0.04,1.91,1.351,1.88,2.01
		c-3.19,2.83-5.55,4.931-7.85,7.12c-2.12,1.98-4.17,4.04-6.25,6.23c-0.67-0.021-1.94-1.11-1.89-2.01l0.8-1.091
		c1.24-1.81,1.98-3.17,1.38-4.88c-0.9-2.09-4.73-6.62-9.1-11.25l-13.79-14.59c-2.98-3.17-3.83-4.08-5.01-4.49
		c-1.32-0.609-2.73-0.37-5.11,1.141l-1.82,1.279c-0.84-0.09-2.08-1.51-1.67-2.22c2.8-2.439,5.72-5.09,8.08-7.319
		c1.96-1.841,3.56-3.471,4.66-4.721c3.01,2.03,10.86,2.88,21.82,4.16l10.2,1.11c5.41,0.54,8.9,1.04,11.47,1.109
		c-0.31-0.8-1.22-1.79-2.21-2.81l-7.49-7.91c-4.38-4.66-8.66-8.75-10.77-9.71c-1.66-0.7-3.24,0.15-5.06,1.33l-1.76,1.24
		c-0.92-0.04-1.94-1.341-1.92-2.021c3.22-2.83,5.5-4.88,7.85-7.08c2.13-2.02,4.16-4.02,6.29-6.24c0.65,0,1.9,1.101,1.88,1.99
		l-0.87,1.16c-1.17,1.76-1.91,3.13-1.3,4.811c0.82,2.149,4.66,6.659,9.05,11.319L238.44,1187.72z"/>
	<path fill="none" stroke="#FFFFFF" stroke-width="0.13" d="M238.44,1187.72c3.54,3.721,6.94,7.34,8.86,9.12
		c0.22,1.07-0.78,3.22-2.15,4.521c-0.07,0.08-4.73-1.09-10.57-1.87l-28.75-3.88c-7.16-1.051-11.34-1.551-13.18-1.44
		c0.25,0.851,1.18,1.81,3.17,3.94l10.52,11.149c4.38,4.63,8.67,8.71,10.79,9.67c1.64,0.73,3.28-0.189,5.06-1.29l1.82-1.3
		c0.91,0.04,1.91,1.351,1.88,2.01c-3.19,2.83-5.55,4.931-7.85,7.12c-2.12,1.98-4.17,4.04-6.25,6.23c-0.67-0.021-1.94-1.11-1.89-2.01
		l0.8-1.091c1.24-1.81,1.98-3.17,1.38-4.88c-0.9-2.09-4.73-6.62-9.1-11.25l-13.79-14.59c-2.98-3.17-3.83-4.08-5.01-4.49
		c-1.32-0.609-2.73-0.37-5.11,1.141l-1.82,1.279c-0.84-0.09-2.08-1.51-1.67-2.22c2.8-2.439,5.72-5.09,8.08-7.319
		c1.96-1.841,3.56-3.471,4.66-4.721c3.01,2.03,10.86,2.88,21.82,4.16l10.2,1.11c5.41,0.54,8.9,1.04,11.47,1.109
		c-0.31-0.8-1.22-1.79-2.21-2.81l-7.49-7.91c-4.38-4.66-8.66-8.75-10.77-9.71c-1.66-0.7-3.24,0.15-5.06,1.33l-1.76,1.24
		c-0.92-0.04-1.94-1.341-1.92-2.021c3.22-2.83,5.5-4.88,7.85-7.08c2.13-2.02,4.16-4.02,6.29-6.24c0.65,0,1.9,1.101,1.88,1.99
		l-0.87,1.16c-1.17,1.76-1.91,3.13-1.3,4.811c0.82,2.149,4.66,6.659,9.05,11.319L238.44,1187.72z"/>
	<path fill="#FFFFFF" d="M271.42,1166.6c4.16,6.16,4.87,6.341,8.22,4.83l2.05-0.909c0.78,0.039,1.74,1.6,1.48,2.35
		c-3.62,2.24-6.87,4.36-9.95,6.42c-3.14,2.11-6.39,4.4-9.82,6.9c-0.78-0.04-1.81-1.551-1.53-2.311l1.6-1.54
		c2.66-2.55,2.73-3.29-1.399-9.45l-16.25-24.069c-4.15-6.16-4.86-6.351-8.21-4.851l-2.06,0.92c-0.8-0.05-1.8-1.55-1.54-2.3
		c3.62-2.26,6.93-4.41,10.09-6.53c3.07-2.05,6.29-4.329,9.74-6.85c0.8,0.04,1.8,1.561,1.55,2.3l-1.6,1.54
		c-2.66,2.561-2.74,3.29,1.4,9.431L271.42,1166.6z"/>
	<path fill="none" stroke="#FFFFFF" stroke-width="0.13" d="M271.42,1166.6c4.16,6.16,4.87,6.341,8.22,4.83l2.05-0.909
		c0.78,0.039,1.74,1.6,1.48,2.35c-3.62,2.24-6.87,4.36-9.95,6.42c-3.14,2.11-6.39,4.4-9.82,6.9c-0.78-0.04-1.81-1.551-1.53-2.311
		l1.6-1.54c2.66-2.55,2.73-3.29-1.399-9.45l-16.25-24.069c-4.15-6.16-4.86-6.351-8.21-4.851l-2.06,0.92c-0.8-0.05-1.8-1.55-1.54-2.3
		c3.62-2.26,6.93-4.41,10.09-6.53c3.07-2.05,6.29-4.329,9.74-6.85c0.8,0.04,1.8,1.561,1.55,2.3l-1.6,1.54
		c-2.66,2.561-2.74,3.29,1.4,9.431L271.42,1166.6z"/>
	<path fill="#FFFFFF" d="M318.3,1132.26c0.4,10.36,1.08,16.931,1.311,21.7c-0.4,0.64-1.15,1.25-2.23,1.77
		c-0.85,0.391-1.61,0.471-2.2,0.32c-1.68-1.58-4.68-4.8-6.819-6.76l-25.2-23.71c-6.3-5.84-6.03-5.63-9.85-4.88l-2.25,0.43
		c-0.94-0.52-1.32-1.91-0.86-2.57c3.69-1.659,6.1-2.609,9.82-4.34c3.29-1.529,6.36-3.06,10.64-5.21c0.76,0.141,1.34,1.55,1.21,2.37
		l-1.94,1.44c-1.16,0.89-1.46,1.54-1.16,2.2c0.26,0.59,2.81,3.05,6.54,6.529l13.8,13.15c2.25,2.18,3.729,3.479,4.8,4.47
		c0-1.46-0.03-3.81-0.19-6.34l-0.479-7.97c-0.25-5.381-1.07-14.761-1.351-17.59c-0.14-1.601-0.27-2.49-0.479-2.921
		c-0.24-0.5-0.62-0.75-2.51-0.3l-2.311,0.45c-0.84-0.31-1.54-1.8-0.84-2.57c3.43-1.439,6.18-2.63,8.9-3.92
		c2.42-1.13,4.55-2.2,6.55-3.3c0.7,0.021,1.569,1.7,1.29,2.37l-1.69,1.2c-1.819,1.37-2.56,2.42-2.77,4.359
		c-0.48,3.091-0.521,7.83-0.34,14.79L318.3,1132.26z"/>
	<path fill="none" stroke="#FFFFFF" stroke-width="0.13" d="M318.3,1132.26c0.4,10.36,1.08,16.931,1.311,21.7
		c-0.4,0.64-1.15,1.25-2.23,1.77c-0.85,0.391-1.61,0.471-2.2,0.32c-1.68-1.58-4.68-4.8-6.819-6.76l-25.2-23.71
		c-6.3-5.84-6.03-5.63-9.85-4.88l-2.25,0.43c-0.94-0.52-1.32-1.91-0.86-2.57c3.69-1.659,6.1-2.609,9.82-4.34
		c3.29-1.529,6.36-3.06,10.64-5.21c0.76,0.141,1.34,1.55,1.21,2.37l-1.94,1.44c-1.16,0.89-1.46,1.54-1.16,2.2
		c0.26,0.59,2.81,3.05,6.54,6.529l13.8,13.15c2.25,2.18,3.729,3.479,4.8,4.47c0-1.46-0.03-3.81-0.19-6.34l-0.479-7.97
		c-0.25-5.381-1.07-14.761-1.351-17.59c-0.14-1.601-0.27-2.49-0.479-2.921c-0.24-0.5-0.62-0.75-2.51-0.3l-2.311,0.45
		c-0.84-0.31-1.54-1.8-0.84-2.57c3.43-1.439,6.18-2.63,8.9-3.92c2.42-1.13,4.55-2.2,6.55-3.3c0.7,0.021,1.569,1.7,1.29,2.37
		l-1.69,1.2c-1.819,1.37-2.56,2.42-2.77,4.359c-0.48,3.091-0.521,7.83-0.34,14.79L318.3,1132.26z"/>
	<path fill="#FFFFFF" d="M359.87,1105.22c0.59,2.15,0.69,2.29,2.74,1.73l5.27-1.391c3.97-1.05,4.65-1.8,4.54-5.68l-0.14-2.01
		c0.359-0.76,2.29-1.28,2.84-0.67c0.479,2.479,1.149,5.27,1.899,8.16c0.771,2.899,1.57,5.619,2.37,8.01
		c-0.21,0.79-2.1,1.37-2.8,0.82l-0.89-1.801c-1.811-3.449-2.811-3.85-6.771-2.79l-5.27,1.4c-2.061,0.54-2.11,0.63-1.521,2.92
		l2.391,9.08c0.939,3.51,1.899,5.86,3.13,6.93c1.37,1.11,2.96,1.33,8.54-0.13c6.64-1.76,9.17-2.66,11.109-12.39
		c0.38-1,2.37-1.2,2.91-0.37c0.74,4.07,0.561,10.71,0.03,13.06c-4.08,0.921-11.44,2.79-17.71,4.421l-9.91,2.63
		c-3.67,0.949-7.36,2.01-13.07,3.659c-0.729-0.289-1.21-2.119-0.689-2.659l3.42-1.48c3.34-1.37,3.64-2.02,1.79-9.03l-7.49-28.46
		c-1.84-6.939-2.439-7.35-6.01-7.05l-2.01,0.11c-0.82-0.29-1.211-2.061-0.561-2.72c3.6-0.791,7.38-1.711,11.05-2.66l16.15-4.271
		c4.88-1.28,9.22-2.51,10.18-2.92c0.391,1.21,2.391,6.56,4.11,11.57c-0.1,0.91-1.811,1.52-2.74,1.04
		c-1.52-2.44-3.21-4.471-4.49-5.271c-1.83-1.069-4.369-1.37-8.109-0.39l-6.08,1.6c-2.521,0.66-2.5,0.82-1.74,3.65L359.87,1105.22z"
		/>
	<path fill="none" stroke="#FFFFFF" stroke-width="0.13" d="M359.87,1105.22c0.59,2.15,0.69,2.29,2.74,1.73l5.27-1.391
		c3.97-1.05,4.65-1.8,4.54-5.68l-0.14-2.01c0.359-0.76,2.29-1.28,2.84-0.67c0.479,2.479,1.149,5.27,1.899,8.16
		c0.771,2.899,1.57,5.619,2.37,8.01c-0.21,0.79-2.1,1.37-2.8,0.82l-0.89-1.801c-1.811-3.449-2.811-3.85-6.771-2.79l-5.27,1.4
		c-2.061,0.54-2.11,0.63-1.521,2.92l2.391,9.08c0.939,3.51,1.899,5.86,3.13,6.93c1.37,1.11,2.96,1.33,8.54-0.13
		c6.64-1.76,9.17-2.66,11.109-12.39c0.38-1,2.37-1.2,2.91-0.37c0.74,4.07,0.561,10.71,0.03,13.06
		c-4.08,0.921-11.44,2.79-17.71,4.421l-9.91,2.63c-3.67,0.949-7.36,2.01-13.07,3.659c-0.729-0.289-1.21-2.119-0.689-2.659l3.42-1.48
		c3.34-1.37,3.64-2.02,1.79-9.03l-7.49-28.46c-1.84-6.939-2.439-7.35-6.01-7.05l-2.01,0.11c-0.82-0.29-1.211-2.061-0.561-2.72
		c3.6-0.791,7.38-1.711,11.05-2.66l16.15-4.271c4.88-1.28,9.22-2.51,10.18-2.92c0.391,1.21,2.391,6.56,4.11,11.57
		c-0.1,0.91-1.811,1.52-2.74,1.04c-1.52-2.44-3.21-4.471-4.49-5.271c-1.83-1.069-4.369-1.37-8.109-0.39l-6.08,1.6
		c-2.521,0.66-2.5,0.82-1.74,3.65L359.87,1105.22z"/>
	<path fill="#FFFFFF" d="M407.68,1087.46c-0.63-7.88-0.85-8.75-4.18-8.95l-2.18-0.16c-0.78-0.319-0.96-2.31-0.04-2.76
		c5.88-0.85,11.97-1.649,19.46-2.24c6.689-0.5,12.54,0.04,15.66,1.65c4.77,2.3,7.43,6.06,7.83,11.09c0.569,7-3.94,10.36-7.431,12.48
		c-0.75,0.43-0.729,0.92-0.239,1.76c6.029,10.13,9.699,15.79,13.729,18.71c2.18,1.5,4.25,1.8,5.44,1.8
		c0.739,0.351,0.84,1.53,0.479,2.01c-1.21,0.671-3.72,1.04-6.16,1.221c-7.239,0.55-12-1.69-15.93-7.08
		c-2.83-3.96-4.95-7.69-7.11-11.73c-1.08-2.05-2.39-2.569-4.35-2.42c-2.771,0.21-2.93,0.39-2.79,1.96l0.76,9.68
		c0.57,7.24,1.07,7.761,4.681,8.11l2.14,0.22c0.61,0.351,0.74,2.24,0.21,2.761c-4.18,0.159-7.811,0.37-11.58,0.659
		c-3.92,0.301-7.38,0.671-11.47,1.141c-0.67-0.43-0.811-2.32-0.221-2.76l2.12-0.57c3.48-0.89,3.9-1.49,3.34-8.75L407.68,1087.46z
		 M419.24,1096.61c0.21,2.739,0.46,2.96,5.12,2.6c2.83-0.23,4.42-1.06,5.79-2.67c1.26-1.44,2.55-4.09,2.199-8.72
		c-0.58-7.07-5.09-11.32-11.229-10.841c-3.22,0.25-3.22,0.48-3.09,4.271L419.24,1096.61z"/>
	<path fill="none" stroke="#FFFFFF" stroke-width="0.13" d="M407.68,1087.46c-0.63-7.88-0.85-8.75-4.18-8.95l-2.18-0.16
		c-0.78-0.319-0.96-2.31-0.04-2.76c5.88-0.85,11.97-1.649,19.46-2.24c6.689-0.5,12.54,0.04,15.66,1.65
		c4.77,2.3,7.43,6.06,7.83,11.09c0.569,7-3.94,10.36-7.431,12.48c-0.75,0.43-0.729,0.92-0.239,1.76
		c6.029,10.13,9.699,15.79,13.729,18.71c2.18,1.5,4.25,1.8,5.44,1.8c0.739,0.351,0.84,1.53,0.479,2.01
		c-1.21,0.671-3.72,1.04-6.16,1.221c-7.239,0.55-12-1.69-15.93-7.08c-2.83-3.96-4.95-7.69-7.11-11.73
		c-1.08-2.05-2.39-2.569-4.35-2.42c-2.771,0.21-2.93,0.39-2.79,1.96l0.76,9.68c0.57,7.24,1.07,7.761,4.681,8.11l2.14,0.22
		c0.61,0.351,0.74,2.24,0.21,2.761c-4.18,0.159-7.811,0.37-11.58,0.659c-3.92,0.301-7.38,0.671-11.47,1.141
		c-0.67-0.43-0.811-2.32-0.221-2.76l2.12-0.57c3.48-0.89,3.9-1.49,3.34-8.75L407.68,1087.46z M419.24,1096.61
		c0.21,2.739,0.46,2.96,5.12,2.6c2.83-0.23,4.42-1.06,5.79-2.67c1.26-1.44,2.55-4.09,2.199-8.72
		c-0.58-7.07-5.09-11.32-11.229-10.841c-3.22,0.25-3.22,0.48-3.09,4.271L419.24,1096.61z"/>
	<path fill="#FFFFFF" d="M479.38,1126.64c-7.24-0.63-11.55-3.069-13.13-4.18c-1.32-1.84-1.86-7.62-1.39-12.93
		c0.659-0.99,2.46-0.92,3.04,0.02c1.109,5.25,5.75,12.94,12.41,13.54c5.81,0.5,8.85-3.26,9.189-7.21
		c0.58-6.35-5.09-10.66-9.58-13.45c-5.439-3.33-11.14-8.58-10.54-16.38c0.78-8.89,8.16-14.43,19.58-13.41
		c2.59,0.221,5.79,0.811,8.86,2.051c1,0.42,1.68,0.609,2.62,0.869c0.47,1.771,0.89,6.091,0.43,11.36c-0.48,0.9-2.46,0.82-3.11-0.02
		c-0.99-4.141-3.859-10.19-9.52-10.69c-5.21-0.45-8.32,2.68-8.66,6.62c-0.33,3.63,2.63,7.21,6.37,9.58l4.95,3.22
		c4.66,3,10.47,8.141,9.699,16.79C499.77,1122.11,491.28,1127.67,479.38,1126.64"/>
	<path fill="none" stroke="#FFFFFF" stroke-width="0.13" d="M479.38,1126.64c-7.24-0.63-11.55-3.069-13.13-4.18
		c-1.32-1.84-1.86-7.62-1.39-12.93c0.659-0.99,2.46-0.92,3.04,0.02c1.109,5.25,5.75,12.94,12.41,13.54
		c5.81,0.5,8.85-3.26,9.189-7.21c0.58-6.35-5.09-10.66-9.58-13.45c-5.439-3.33-11.14-8.58-10.54-16.38
		c0.78-8.89,8.16-14.43,19.58-13.41c2.59,0.221,5.79,0.811,8.86,2.051c1,0.42,1.68,0.609,2.62,0.869
		c0.47,1.771,0.89,6.091,0.43,11.36c-0.48,0.9-2.46,0.82-3.11-0.02c-0.99-4.141-3.859-10.19-9.52-10.69
		c-5.21-0.45-8.32,2.68-8.66,6.62c-0.33,3.63,2.63,7.21,6.37,9.58l4.95,3.22c4.66,3,10.47,8.141,9.699,16.79
		C499.77,1122.11,491.28,1127.67,479.38,1126.64z"/>
	<path fill="#FFFFFF" d="M532.7,1122.3c-1.65,7.24-1.311,7.88,2.09,9.32l2.06,0.85c0.53,0.601,0.021,2.351-0.689,2.681
		c-4.12-1.091-7.86-2.03-11.47-2.851c-3.7-0.85-7.58-1.64-11.74-2.42c-0.54-0.6-0.11-2.37,0.61-2.7l2.239,0.101
		c3.67,0.18,4.261-0.26,5.91-7.471l6.41-28.34c1.649-7.229,1.33-7.87-2.07-9.29l-2.069-0.88c-0.53-0.59-0.12-2.35,0.619-2.68
		c4.101,1.09,7.94,2.07,11.631,2.88c3.609,0.82,7.459,1.62,11.67,2.42c0.5,0.6,0.109,2.35-0.601,2.7l-2.27-0.11
		c-3.67-0.189-4.261,0.24-5.91,7.48L532.7,1122.3z"/>
	<path fill="none" stroke="#FFFFFF" stroke-width="0.13" d="M532.7,1122.3c-1.65,7.24-1.311,7.88,2.09,9.32l2.06,0.85
		c0.53,0.601,0.021,2.351-0.689,2.681c-4.12-1.091-7.86-2.03-11.47-2.851c-3.7-0.85-7.58-1.64-11.74-2.42
		c-0.54-0.6-0.11-2.37,0.61-2.7l2.239,0.101c3.67,0.18,4.261-0.26,5.91-7.471l6.41-28.34c1.649-7.229,1.33-7.87-2.07-9.29
		l-2.069-0.88c-0.53-0.59-0.12-2.35,0.619-2.68c4.101,1.09,7.94,2.07,11.631,2.88c3.609,0.82,7.459,1.62,11.67,2.42
		c0.5,0.6,0.109,2.35-0.601,2.7l-2.27-0.11c-3.67-0.189-4.261,0.24-5.91,7.48L532.7,1122.3z"/>
	<path fill="#FFFFFF" d="M582.37,1101.43c0.67-1.75,0.81-2.13-0.94-2.83l-4.569-1.77c-5.36-2.11-8.051,0.22-12.36,4.75
		c-1.05,0.09-2.4-0.63-2.46-1.74c3.53-4.479,5.67-8.88,7.31-11.54c0.4-0.12,0.801-0.12,1.17,0.021c0.37,0.159,0.7,0.359,0.91,0.71
		c-0.109,1.39,0,1.779,5.601,3.949l27.33,10.721c4.859,1.89,6.01,2.26,7.26,0.96c0.36-0.021,0.63-0.021,1.05,0.16
		c0.43,0.189,0.84,0.689,0.88,0.96c-1.7,2.199-4.53,7.97-6.04,12.21c-0.63,0.5-2.68-0.11-2.81-0.851c0.6-5.18,0.92-9.06-4.61-11.199
		l-4.399-1.73c-1.75-0.71-2.08-0.55-2.8,1.35l-12.711,32.42c-2.659,6.851-2.41,7.53,0.67,9.341l2.791,1.52
		c0.34,0.63-0.311,2.351-1.011,2.57c-4.72-2.03-8.359-3.53-11.67-4.83c-3.54-1.37-7.399-2.81-12.58-4.66
		c-0.42-0.68,0.22-2.37,1-2.57l3.46,0.91c3.51,0.8,4.141,0.45,6.851-6.39L582.37,1101.43z"/>
	<path fill="none" stroke="#FFFFFF" stroke-width="0.13" d="M582.37,1101.43c0.67-1.75,0.81-2.13-0.94-2.83l-4.569-1.77
		c-5.36-2.11-8.051,0.22-12.36,4.75c-1.05,0.09-2.4-0.63-2.46-1.74c3.53-4.479,5.67-8.88,7.31-11.54c0.4-0.12,0.801-0.12,1.17,0.021
		c0.37,0.159,0.7,0.359,0.91,0.71c-0.109,1.39,0,1.779,5.601,3.949l27.33,10.721c4.859,1.89,6.01,2.26,7.26,0.96
		c0.36-0.021,0.63-0.021,1.05,0.16c0.43,0.189,0.84,0.689,0.88,0.96c-1.7,2.199-4.53,7.97-6.04,12.21
		c-0.63,0.5-2.68-0.11-2.81-0.851c0.6-5.18,0.92-9.06-4.61-11.199l-4.399-1.73c-1.75-0.71-2.08-0.55-2.8,1.35l-12.711,32.42
		c-2.659,6.851-2.41,7.53,0.67,9.341l2.791,1.52c0.34,0.63-0.311,2.351-1.011,2.57c-4.72-2.03-8.359-3.53-11.67-4.83
		c-3.54-1.37-7.399-2.81-12.58-4.66c-0.42-0.68,0.22-2.37,1-2.57l3.46,0.91c3.51,0.8,4.141,0.45,6.851-6.39L582.37,1101.43z"/>
	<path fill="#FFFFFF" d="M632.51,1165.22c-3.83,6.25-3.72,6.98-0.979,9.311l2.489,1.989c0.221,0.69-0.709,2.24-1.449,2.341
		c-4.29-2.811-7.551-4.9-10.801-6.86c-3.199-2-6.6-4-10.67-6.31c-0.29-0.721,0.65-2.29,1.44-2.341l2.51,1.07
		c3.311,1.39,4,1.16,7.851-5.11l2.029-3.35c2.07-3.38,2.681-4.5,3.12-9.12l2.13-21.479c0.351-3.58,0.351-4.971-1.699-6.891
		l-2.04-1.8c-0.28-0.91,0.76-2.49,1.699-2.19c2.96,2.011,5.4,3.601,9.38,6.021c4.101,2.54,7.57,4.57,9.94,5.82
		c0.46,0.64-0.36,2.27-1.29,2.46l-2.63-0.88c-1.37-0.471-1.94-0.45-1.99-0.391c-0.31,0.54-0.609,1.76-1.13,5.79l-1.26,9.13
		c-0.34,2.851-0.7,6.32-0.94,8.49c3.971-2.07,8.25-4.83,12.171-7.16c5.5-3.22,7.8-4.859,8.3-5.66c0.229-0.42-0.261-1.09-1.7-2.35
		l-1.4-1.2c-0.35-0.67,0.62-2.399,1.5-2.3c2.62,1.79,4.99,3.33,7.41,4.81c2.561,1.57,4.68,2.79,6.74,3.841
		c0.63,0.75-0.36,2.39-1.19,2.529l-1.939-0.75c-1.391-0.45-2.91-0.84-4.24-0.37c-1.79,0.66-4.95,2.061-11.76,5.931l-8.971,5.09
		c-3.649,2.08-5.37,3.35-7.72,7.19L632.51,1165.22z"/>
	<path fill="none" stroke="#FFFFFF" stroke-width="0.13" d="M632.51,1165.22c-3.83,6.25-3.72,6.98-0.979,9.311l2.489,1.989
		c0.221,0.69-0.709,2.24-1.449,2.341c-4.29-2.811-7.551-4.9-10.801-6.86c-3.199-2-6.6-4-10.67-6.31
		c-0.29-0.721,0.65-2.29,1.44-2.341l2.51,1.07c3.311,1.39,4,1.16,7.851-5.11l2.029-3.35c2.07-3.38,2.681-4.5,3.12-9.12l2.13-21.479
		c0.351-3.58,0.351-4.971-1.699-6.891l-2.04-1.8c-0.28-0.91,0.76-2.49,1.699-2.19c2.96,2.011,5.4,3.601,9.38,6.021
		c4.101,2.54,7.57,4.57,9.94,5.82c0.46,0.64-0.36,2.27-1.29,2.46l-2.63-0.88c-1.37-0.471-1.94-0.45-1.99-0.391
		c-0.31,0.54-0.609,1.76-1.13,5.79l-1.26,9.13c-0.34,2.851-0.7,6.32-0.94,8.49c3.971-2.07,8.25-4.83,12.171-7.16
		c5.5-3.22,7.8-4.859,8.3-5.66c0.229-0.42-0.261-1.09-1.7-2.35l-1.4-1.2c-0.35-0.67,0.62-2.399,1.5-2.3
		c2.62,1.79,4.99,3.33,7.41,4.81c2.561,1.57,4.68,2.79,6.74,3.841c0.63,0.75-0.36,2.39-1.19,2.529l-1.939-0.75
		c-1.391-0.45-2.91-0.84-4.24-0.37c-1.79,0.66-4.95,2.061-11.76,5.931l-8.971,5.09c-3.649,2.08-5.37,3.35-7.72,7.19L632.51,1165.22z
		"/>
	<path fill="#FFFFFF" d="M725.89,1227.68c-12.47,11.851-27.909,10.57-39.59-1.76c-10.899-11.52-11.25-27.06,0.73-38.39
		c11.35-10.73,28.13-10.551,39.5,1.42C737.8,1200.9,737.54,1216.67,725.89,1227.68 M723.45,1190.99
		c-6.681-7.05-16.87-4.61-26.431,4.47c-6.97,6.62-15.899,19.72-7.039,29.04c7.08,7.53,17.21,3.5,26.479-5.29
		C726.28,1209.93,730.189,1198.09,723.45,1190.99"/>
	<path fill="none" stroke="#FFFFFF" stroke-width="0.13" d="M725.89,1227.68c-12.47,11.851-27.909,10.57-39.59-1.76
		c-10.899-11.52-11.25-27.06,0.73-38.39c11.35-10.73,28.13-10.551,39.5,1.42C737.8,1200.9,737.54,1216.67,725.89,1227.68z
		 M723.45,1190.99c-6.681-7.05-16.87-4.61-26.431,4.47c-6.97,6.62-15.899,19.72-7.039,29.04c7.08,7.53,17.21,3.5,26.479-5.29
		C726.28,1209.93,730.189,1198.09,723.45,1190.99z"/>
	<path fill="#FFFFFF" d="M748.68,1252.93c-1.79,1.16-1.92,1.351-0.76,3.15l3.311,5.08c2.3,3.5,3.199,3.86,6.92,2.47l1.81-0.71
		c0.88,0.06,1.88,1.78,1.56,2.53c-2.22,1.26-4.699,2.779-7.209,4.43c-2.44,1.59-4.83,3.26-6.73,4.69
		c-0.87-0.03-2.01-1.591-1.72-2.46l1.37-1.381c2.71-2.789,2.789-3.779,0.51-7.289l-3.33-5.091c-1.16-1.77-1.42-1.699-3.2-0.55
		l-8.91,5.83c-6.14,4.021-6.34,4.7-4.87,7.98l1.28,2.67c-0.09,0.699-1.62,1.72-2.33,1.51c-2.53-4.18-4.59-7.47-6.649-10.65
		c-1.99-3.02-4.21-6.29-6.95-10.16c0.06-0.77,1.58-1.779,2.33-1.5l1.739,1.961c2.41,2.68,3.15,2.76,9.291-1.25l24.569-16.061
		c6.14-4.03,6.36-4.71,5.01-8.09l-0.67-1.44c0-0.87,1.65-1.93,2.391-1.39c1.72,2.92,3.81,6.27,5.899,9.45l9.08,13.87
		c2.74,4.22,5.271,7.939,6.03,8.779c-1.15,0.75-5.9,3.851-10.24,6.87c-0.899,0.2-1.89-1.189-1.89-2.33
		c2.239-2.51,3.489-4.069,3.899-5.29c0.66-2.029,0.17-4.52-2.05-7.899l-3.35-5.16c-1.45-2.16-1.551-2.09-4.141-0.38L748.68,1252.93z
		"/>
	<path fill="none" stroke="#FFFFFF" stroke-width="0.13" d="M748.68,1252.93c-1.79,1.16-1.92,1.351-0.76,3.15l3.311,5.08
		c2.3,3.5,3.199,3.86,6.92,2.47l1.81-0.71c0.88,0.06,1.88,1.78,1.56,2.53c-2.22,1.26-4.699,2.779-7.209,4.43
		c-2.44,1.59-4.83,3.26-6.73,4.69c-0.87-0.03-2.01-1.591-1.72-2.46l1.37-1.381c2.71-2.789,2.789-3.779,0.51-7.289l-3.33-5.091
		c-1.16-1.77-1.42-1.699-3.2-0.55l-8.91,5.83c-6.14,4.021-6.34,4.7-4.87,7.98l1.28,2.67c-0.09,0.699-1.62,1.72-2.33,1.51
		c-2.53-4.18-4.59-7.47-6.649-10.65c-1.99-3.02-4.21-6.29-6.95-10.16c0.06-0.77,1.58-1.779,2.33-1.5l1.739,1.961
		c2.41,2.68,3.15,2.76,9.291-1.25l24.569-16.061c6.14-4.03,6.36-4.71,5.01-8.09l-0.67-1.44c0-0.87,1.65-1.93,2.391-1.39
		c1.72,2.92,3.81,6.27,5.899,9.45l9.08,13.87c2.74,4.22,5.271,7.939,6.03,8.779c-1.15,0.75-5.9,3.851-10.24,6.87
		c-0.899,0.2-1.89-1.189-1.89-2.33c2.239-2.51,3.489-4.069,3.899-5.29c0.66-2.029,0.17-4.52-2.05-7.899l-3.35-5.16
		c-1.45-2.16-1.551-2.09-4.141-0.38L748.68,1252.93z"/>
</g>
</svg>
