<?xml version="1.0" encoding="utf-8"?>
<!-- Generator: Adobe Illustrator 13.0.2, SVG Export Plug-In . SVG Version: 6.00 Build 14948)  -->
<!DOCTYPE svg PUBLIC "-//W3C//DTD SVG 1.0//EN" "http://www.w3.org/TR/2001/REC-SVG-20010904/DTD/svg10.dtd">
<svg version="1.0" id="Ebene_1" xmlns="http://www.w3.org/2000/svg" xmlns:xlink="http://www.w3.org/1999/xlink" x="0px" y="0px"
	 width="1181.16px" height="335.376px" viewBox="0 0 1181.16 335.376" enable-background="new 0 0 1181.16 335.376"
	 xml:space="preserve">
<g>
	<path fill-rule="evenodd" clip-rule="evenodd" fill="#1A171B" d="M422.208,216.792c16.632,0,28.512-5.76,34.128-17.424
		c2.304-4.68,3.384-10.728,3.384-17.784V124.92h-16.488v55.44c0,4.968-0.792,9.072-2.448,12.384
		c-3.168,6.48-9.504,10.152-18.576,10.152c-9.072,0-15.336-3.672-18.504-10.152c-1.656-3.312-2.52-7.416-2.52-12.24V124.92h-16.488
		v56.664c0,6.912,1.152,12.96,3.456,17.64C393.624,211.032,405.504,216.792,422.208,216.792L422.208,216.792z M481.032,215.424
		h16.488v-51.336c0-5.04,0-10.296-0.216-14.04h0.216c3.024,4.32,6.192,8.856,10.224,13.896l39.96,51.48h15.12V124.92h-16.632v48.168
		c0,4.968,0,10.44,0.288,15.264h-0.288c-2.736-4.104-6.048-8.64-10.152-14.04l-38.664-49.392h-16.344V215.424L481.032,215.424z
		 M584.64,215.424h16.416V124.92H584.64V215.424L584.64,215.424z M650.016,216h13.32l37.008-91.08h-17.928l-18.792,49.032
		c-2.88,7.272-4.968,13.32-6.768,18.504h-0.216c-1.944-5.328-4.032-11.376-6.624-18.432L631.08,124.92h-18L650.016,216L650.016,216z
		 M712.296,215.424h50.112V201.96h-33.624v-25.992h28.944v-13.392h-28.944v-24.192h29.088l4.392-13.464h-49.968V215.424
		L712.296,215.424z M781.272,215.424h16.488v-35.352h7.776c2.232,0.576,5.544,4.32,9.936,12.384l13.032,22.968h19.008L832.392,189
		c-4.824-8.208-8.568-13.176-11.304-14.688v-0.288c10.44-3.24,17.712-11.16,17.712-23.256c0-9.216-3.816-17.568-13.464-22.104
		c-4.752-2.376-10.872-3.744-19.368-3.744h-24.696V215.424L781.272,215.424z M797.76,166.608v-28.224h7.56
		c4.896,0,7.92,1.08,10.152,2.592c3.96,2.376,6.048,6.624,6.048,11.448c0,5.616-2.448,9.72-6.336,11.952
		c-2.736,1.512-5.76,2.232-10.008,2.232H797.76L797.76,166.608z M857.808,208.944c6.84,4.824,16.776,7.848,27.36,7.848
		c18.504,0,32.256-9.864,32.256-25.992c0-28.656-39.168-26.424-39.168-43.056c0-7.272,6.048-9.792,12.384-9.792
		c7.128,0,14.4,2.088,21.6,5.832v-15.12c-4.968-2.52-12.816-4.536-22.176-4.536c-18.792,0-29.376,11.664-29.376,24.984
		c0,27.576,39.168,25.344,39.168,43.056c0,7.848-7.56,10.728-15.12,10.728c-8.28,0-15.12-2.88-20.52-6.552L857.808,208.944
		L857.808,208.944z M935.424,215.424h16.488V124.92h-16.488V215.424L935.424,215.424z M991.224,215.424h16.488v-77.04h24.336
		l4.248-13.464h-71.424v13.464h26.352V215.424L991.224,215.424z M1030.104,215.424l35.064-90.936h12.6l36.288,90.936h-17.424
		l-8.784-22.68h-32.328l-8.496,22.68H1030.104L1030.104,215.424z M1060.344,179.28h22.392l-6.336-17.928
		c-2.448-6.912-3.672-11.016-4.536-14.04h-0.216c-0.864,3.168-2.232,7.128-4.68,14.184L1060.344,179.28L1060.344,179.28z
		 M1058.4,119.16c4.68,0,8.568-3.744,8.568-8.352c0-4.68-3.888-8.568-8.568-8.568c-4.536,0-8.352,3.888-8.352,8.568
		C1050.048,115.416,1053.864,119.16,1058.4,119.16L1058.4,119.16z M1084.68,119.16c4.536,0,8.352-3.744,8.352-8.352
		c0-4.68-3.816-8.568-8.352-8.568c-4.68,0-8.424,3.888-8.424,8.568C1076.256,115.416,1080,119.16,1084.68,119.16L1084.68,119.16z
		 M1136.088,215.424h16.488v-77.04h24.336l4.248-13.464h-71.496v13.464h26.424V215.424z"/>
	<path fill-rule="evenodd" clip-rule="evenodd" fill="#1A171B" d="M381.312,327.528c6.912,4.824,16.776,7.848,27.36,7.848
		c18.576,0,32.256-9.864,32.256-25.992c0-28.728-39.096-26.496-39.096-43.128c0-7.272,5.976-9.792,12.312-9.792
		c7.2,0,14.472,2.088,21.6,5.832v-15.12c-4.968-2.52-12.816-4.536-22.104-4.536c-18.864,0-29.448,11.664-29.448,24.984
		c0,27.648,39.168,25.416,39.168,43.128c0,7.848-7.56,10.728-15.12,10.728c-8.208,0-15.12-2.88-20.448-6.552L381.312,327.528
		L381.312,327.528z M458.928,334.008h16.56v-90.576h-16.56V334.008L458.928,334.008z M497.448,334.008h50.184v-13.464h-33.696
		v-25.992h29.016v-13.464h-29.016v-24.192h29.16l4.392-13.464h-50.04V334.008L497.448,334.008z M642.744,290.016h-16.632v28.728
		c-3.528,1.656-9.072,2.736-15.12,2.736c-19.512,0-30.816-12.744-30.816-32.256c0-19.296,11.448-32.76,33.336-32.76
		c9.72,0,17.856,2.52,24.984,6.048v-15.336c-6.84-2.52-15.696-4.536-26.208-4.536c-30.096,0-49.68,20.16-49.68,47.664
		c0,25.992,17.568,45.072,47.16,45.072c12.672,0,24.768-3.168,32.976-7.272V290.016L642.744,290.016z M663.624,334.008h50.184
		v-13.464h-33.696v-25.992h29.016v-13.464h-29.016v-24.192h29.16l4.392-13.464h-50.04V334.008L663.624,334.008z M732.6,334.008
		h16.488V282.6c0-5.112,0-10.296-0.216-14.04h0.216c3.024,4.248,6.192,8.784,10.224,13.896l39.96,51.552h15.12v-90.576H797.76v48.24
		c0,4.968,0,10.44,0.288,15.264h-0.288c-2.736-4.104-6.048-8.64-10.152-14.04l-38.592-49.464H732.6V334.008z"/>
	<path fill-rule="evenodd" clip-rule="evenodd" fill="#030385" d="M0,124.92h124.92v125.568c0,49.824,59.04,32.976,59.04,0V114.912
		l-24.552,18.432l-0.792-68.256L246.744,0l87.408,65.088v68.256l-25.344-19.152v219.816H183.96V317.16
		C133.344,350.136,0,345.528,0,233.64V124.92z"/>
</g>
</svg>
