<?xml version="1.0" encoding="utf-8"?>
<!-- Generator: Adobe Illustrator 16.0.3, SVG Export Plug-In . SVG Version: 6.00 Build 0)  -->
<!DOCTYPE svg PUBLIC "-//W3C//DTD SVG 1.1//EN" "http://www.w3.org/Graphics/SVG/1.1/DTD/svg11.dtd">
<svg version="1.1" id="svg28674" xmlns:svg="http://www.w3.org/2000/svg"
	 xmlns="http://www.w3.org/2000/svg" xmlns:xlink="http://www.w3.org/1999/xlink" x="0px" y="0px" width="1009.761px"
	 height="237.306px" viewBox="5.811 6.039 1009.761 237.306" enable-background="new 5.811 6.039 1009.761 237.306"
	 xml:space="preserve">
<path id="path27861" d="M916.44,6.039c2.956,0,5.738,0.875,7.993,2.503c2.262,1.753,3.527,3.76,3.459,6.136L922.3,165.443
	c-0.061,2.506-1.268,4.383-3.612,6.012c-2.511,1.628-5.218,2.503-7.847,2.503h-25.702c-2.629,0-5.336-0.875-7.848-2.503
	c-2.344-1.629-3.54-3.506-3.611-6.012l-5.593-150.765c-0.062-2.376,1.204-4.383,3.455-6.136c2.27-1.628,5.041-2.503,8.005-2.503
	H916.44z M868.1,205.465c-0.061-2.381,1.147-4.383,3.416-6.012c2.423-1.752,5.03-2.627,7.994-2.627h36.972
	c2.964,0,5.579,0.875,8.001,2.627c2.255,1.629,3.48,3.631,3.409,6.012v28.551c0.071,2.377-1.154,4.381-3.409,6.01
	c-2.422,1.752-5.037,2.631-8.001,2.631H879.51c-2.964,0-5.571-0.879-7.994-2.631c-2.269-1.629-3.48-3.633-3.416-6.01V205.465
	L868.1,205.465z"/>
<path id="path27865" fill="#414141" d="M955.882,60.341c-0.061-2.357,1.147-4.34,3.416-5.955c2.415-1.731,5.016-2.601,7.979-2.601
	h36.904c2.957,0,5.564,0.87,7.979,2.601c2.263,1.615,3.47,3.598,3.409,5.955v28.279c0.062,2.36-1.146,4.343-3.409,5.955
	c-2.415,1.737-5.022,2.604-7.979,2.604h-36.904c-2.964,0-5.564-0.867-7.979-2.604c-2.269-1.612-3.479-3.595-3.416-5.955V60.341z"/>
<path id="path27973" fill="#717171" d="M818.166,219.3h3.591c-0.078-1.214-0.399-2.268-0.969-3.161
	c-0.569-0.897-1.35-1.648-2.337-2.254c-0.947-0.61-2.065-1.057-3.358-1.345c-1.255-0.29-2.618-0.431-4.101-0.431
	c-1.293,0-2.601,0.114-3.929,0.345c-1.293,0.232-2.473,0.591-3.534,1.084c-1.064,0.49-1.934,1.141-2.618,1.95
	c-0.645,0.808-0.973,1.775-0.973,2.902c0,0.953,0.207,1.761,0.628,2.428c0.416,0.633,0.986,1.184,1.709,1.645
	c0.76,0.433,1.636,0.81,2.615,1.127c0.99,0.287,2.073,0.549,3.252,0.779l4.609,0.778c0.802,0.146,1.582,0.316,2.341,0.522
	c0.798,0.201,1.503,0.461,2.108,0.777c0.603,0.291,1.083,0.668,1.426,1.128c0.381,0.433,0.569,0.983,0.569,1.647
	c0,0.777-0.271,1.441-0.802,1.988c-0.491,0.523-1.14,0.956-1.938,1.303c-0.794,0.348-1.671,0.594-2.618,0.734
	c-0.912,0.145-1.803,0.221-2.679,0.221c-2.387,0-4.402-0.464-6.038-1.388c-1.593-0.956-2.469-2.354-2.614-4.202h-3.591
	c0.306,2.744,1.514,4.738,3.644,5.979c2.166,1.241,4.977,1.86,8.432,1.86c1.365,0,2.75-0.115,4.161-0.347
	c1.399-0.23,2.65-0.604,3.758-1.124c1.14-0.553,2.066-1.244,2.79-2.081c0.723-0.866,1.079-1.904,1.079-3.118
	c0-0.986-0.242-1.834-0.737-2.558c-0.496-0.721-1.141-1.327-1.935-1.821c-0.759-0.486-1.656-0.88-2.679-1.167
	c-0.986-0.317-1.998-0.534-3.021-0.65l-4.784-0.821c-0.605-0.116-1.275-0.26-1.991-0.433c-0.724-0.206-1.386-0.45-1.999-0.739
	c-0.605-0.287-1.118-0.635-1.535-1.041c-0.378-0.434-0.57-0.951-0.57-1.561c0-0.718,0.207-1.324,0.623-1.818
	c0.421-0.486,0.97-0.877,1.657-1.167c0.684-0.317,1.421-0.536,2.219-0.653c0.837-0.141,1.649-0.217,2.451-0.217
	c1.022,0,1.995,0.1,2.906,0.306c0.912,0.171,1.707,0.46,2.395,0.866c0.716,0.401,1.286,0.924,1.706,1.559
	C817.903,217.742,818.131,218.461,818.166,219.3 M770.146,224.672h22.62c0.075-1.561-0.121-3.092-0.574-4.59
	c-0.448-1.533-1.214-2.877-2.272-4.031c-1.029-1.185-2.379-2.139-4.05-2.859c-1.671-0.723-3.688-1.083-6.031-1.083
	c-2.326,0-4.335,0.345-6.049,1.038c-1.667,0.666-3.031,1.561-4.097,2.688c-1.064,1.1-1.855,2.354-2.394,3.768
	c-0.495,1.414-0.737,2.861-0.737,4.336c0,1.584,0.242,3.102,0.737,4.545c0.538,1.42,1.329,2.675,2.394,3.77
	c1.065,1.07,2.43,1.92,4.097,2.558c1.714,0.604,3.723,0.907,6.049,0.907c3.716,0,6.579-0.693,8.6-2.075
	c2.044-1.39,3.451-3.354,4.207-5.896h-3.58c-0.573,1.734-1.604,3.121-3.078,4.158c-1.481,1.044-3.533,1.561-6.148,1.561
	c-1.713,0-3.181-0.271-4.392-0.822c-1.219-0.549-2.22-1.242-3.018-2.078c-0.802-0.84-1.393-1.775-1.767-2.818
	C770.32,226.679,770.146,225.654,770.146,224.672 M789.176,222.373h-19.029c0.152-1.01,0.459-1.99,0.919-2.944
	c0.487-0.983,1.133-1.831,1.935-2.555c0.791-0.753,1.76-1.344,2.899-1.777c1.144-0.464,2.458-0.694,3.939-0.694
	c1.439,0,2.726,0.23,3.869,0.694c1.14,0.433,2.105,1.024,2.899,1.777c0.802,0.724,1.414,1.558,1.831,2.511
	C788.891,220.339,789.133,221.339,789.176,222.373 M756.252,219.775h3.591c-0.424-2.57-1.734-4.491-3.939-5.762
	c-2.155-1.271-4.813-1.904-7.966-1.904c-2.24,0-4.235,0.316-5.984,0.95c-1.709,0.637-3.148,1.49-4.331,2.558
	c-1.179,1.064-2.069,2.324-2.672,3.766c-0.613,1.42-0.912,2.935-0.912,4.552c0,1.618,0.3,3.148,0.912,4.59
	c0.603,1.417,1.493,2.66,2.672,3.726c1.183,1.072,2.622,1.92,4.331,2.561c1.749,0.601,3.744,0.906,5.984,0.906
	c3.342,0,6.074-0.752,8.197-2.251c2.127-1.53,3.438-3.655,3.929-6.37h-3.587c-0.114,0.928-0.42,1.775-0.912,2.559
	c-0.487,0.779-1.115,1.457-1.881,2.031c-0.759,0.553-1.635,0.986-2.614,1.304c-0.987,0.317-2.03,0.477-3.132,0.477
	c-1.709,0-3.213-0.274-4.51-0.823c-1.285-0.548-2.372-1.271-3.241-2.165c-0.833-0.897-1.481-1.907-1.941-3.032
	c-0.409-1.156-0.623-2.326-0.623-3.511s0.214-2.338,0.623-3.466c0.459-1.153,1.107-2.18,1.941-3.077
	c0.869-0.894,1.956-1.617,3.241-2.165c1.297-0.55,2.801-0.823,4.51-0.823c2.387,0,4.25,0.474,5.579,1.431
	C754.845,216.785,755.757,218.102,756.252,219.775 M701.907,212.757v22.356h3.591v-13.042c0.038-1.101,0.264-2.108,0.681-3.034
	c0.459-0.951,1.065-1.758,1.823-2.422c0.802-0.693,1.746-1.228,2.854-1.604c1.141-0.404,2.426-0.61,3.869-0.61
	c1.446,0,2.643,0.177,3.587,0.522c0.99,0.348,1.771,0.824,2.341,1.432c0.569,0.604,0.965,1.324,1.196,2.164
	c0.221,0.811,0.339,1.691,0.339,2.645v13.949h3.584v-14.386c0-1.327-0.167-2.524-0.506-3.595c-0.343-1.068-0.934-1.965-1.768-2.686
	c-0.837-0.75-1.955-1.327-3.362-1.733c-1.364-0.403-3.074-0.604-5.126-0.604c-2.088,0-4.008,0.417-5.753,1.254
	c-1.749,0.809-2.968,1.895-3.641,3.252h-0.118v-3.857L701.907,212.757L701.907,212.757z M671.545,224.671h22.613
	c0.082-1.561-0.106-3.091-0.566-4.589c-0.449-1.533-1.215-2.878-2.28-4.031c-1.022-1.185-2.372-2.139-4.043-2.859
	c-1.671-0.723-3.68-1.084-6.038-1.084c-2.318,0-4.328,0.346-6.034,1.039c-1.674,0.666-3.038,1.561-4.104,2.688
	c-1.065,1.1-1.863,2.354-2.394,3.768c-0.496,1.414-0.738,2.861-0.738,4.336c0,1.584,0.242,3.102,0.738,4.545
	c0.53,1.42,1.328,2.675,2.394,3.77c1.065,1.07,2.43,1.92,4.104,2.557c1.706,0.605,3.716,0.908,6.034,0.908
	c3.723,0,6.587-0.693,8.606-2.075c2.045-1.39,3.452-3.354,4.214-5.896h-3.594c-0.566,1.734-1.596,3.121-3.07,4.158
	c-1.482,1.043-3.534,1.561-6.156,1.561c-1.706,0-3.174-0.271-4.385-0.822c-1.219-0.549-2.22-1.242-3.018-2.078
	c-0.801-0.84-1.386-1.775-1.767-2.818C671.719,226.679,671.545,225.654,671.545,224.671 M690.574,222.373h-19.029
	c0.153-1.01,0.459-1.99,0.912-2.944c0.498-0.983,1.14-1.831,1.941-2.556c0.798-0.752,1.767-1.344,2.899-1.776
	c1.144-0.464,2.451-0.694,3.933-0.694c1.446,0,2.732,0.23,3.876,0.694c1.14,0.433,2.105,1.024,2.907,1.776
	c0.794,0.725,1.399,1.559,1.823,2.512C690.289,220.339,690.539,221.339,690.574,222.373 M655.992,235.114h3.591v-22.356h-3.591
	V235.114z M655.992,208.553h3.591v-4.373h-3.591V208.553z M644.146,219.775h3.591c-0.417-2.57-1.728-4.492-3.933-5.762
	c-2.162-1.271-4.819-1.905-7.973-1.905c-2.24,0-4.229,0.317-5.984,0.951c-1.702,0.637-3.148,1.49-4.328,2.558
	c-1.176,1.064-2.065,2.324-2.675,3.766c-0.605,1.42-0.905,2.935-0.905,4.552c0,1.618,0.3,3.148,0.905,4.589
	c0.608,1.418,1.499,2.661,2.675,3.727c1.18,1.072,2.626,1.92,4.328,2.56c1.756,0.602,3.744,0.907,5.984,0.907
	c3.342,0,6.074-0.752,8.204-2.251c2.127-1.53,3.438-3.655,3.929-6.37h-3.59c-0.111,0.928-0.417,1.775-0.909,2.559
	c-0.495,0.779-1.122,1.457-1.881,2.031c-0.759,0.553-1.635,0.986-2.614,1.304c-0.986,0.317-2.037,0.477-3.139,0.477
	c-1.709,0-3.206-0.272-4.502-0.823c-1.286-0.548-2.373-1.271-3.242-2.165c-0.833-0.897-1.481-1.907-1.941-3.032
	c-0.417-1.156-0.627-2.326-0.627-3.511s0.21-2.339,0.627-3.466c0.459-1.154,1.108-2.18,1.941-3.077
	c0.869-0.894,1.956-1.618,3.242-2.165c1.296-0.55,2.793-0.823,4.502-0.823c2.395,0,4.25,0.474,5.579,1.431
	C642.739,216.785,643.651,218.102,644.146,219.775 M587.096,224.933h-3.876c-0.11,1.904,0.21,3.538,0.969,4.896
	c0.798,1.357,1.921,2.471,3.359,3.332c1.439,0.867,3.192,1.52,5.24,1.953c2.045,0.401,4.264,0.602,6.657,0.602
	c2.387,0,4.439-0.17,6.148-0.518c1.707-0.316,3.132-0.734,4.268-1.256c1.176-0.551,2.095-1.158,2.732-1.821
	c0.685-0.664,1.197-1.312,1.539-1.945c0.381-0.667,0.605-1.287,0.681-1.866c0.117-0.578,0.175-1.041,0.175-1.388
	c0-1.265-0.285-2.354-0.855-3.249c-0.53-0.894-1.286-1.641-2.276-2.251c-0.951-0.634-2.073-1.157-3.358-1.558
	c-1.254-0.434-2.604-0.794-4.044-1.084l-9.905-1.861c-0.83-0.148-1.628-0.334-2.387-0.563c-0.724-0.236-1.372-0.537-1.935-0.914
	c-0.57-0.377-1.029-0.823-1.372-1.341c-0.299-0.547-0.451-1.187-0.451-1.904c0-1.159,0.285-2.124,0.854-2.905
	c0.566-0.782,1.311-1.4,2.219-1.863c0.948-0.493,2.027-0.838,3.245-1.041c1.251-0.23,2.544-0.347,3.876-0.347
	c1.433,0,2.804,0.16,4.09,0.478c1.328,0.289,2.489,0.738,3.48,1.344c1.015,0.576,1.834,1.313,2.439,2.21
	c0.648,0.867,1.009,1.892,1.087,3.073h3.868c0-1.588-0.417-2.973-1.254-4.16c-0.794-1.211-1.877-2.221-3.241-3.031
	c-1.371-0.811-2.964-1.411-4.78-1.82c-1.824-0.4-3.744-0.602-5.753-0.602c-2.847,0-5.184,0.316-7,0.948
	c-1.824,0.609-3.264,1.357-4.328,2.255c-1.022,0.894-1.725,1.85-2.109,2.86c-0.374,1.011-0.563,1.888-0.563,2.639
	c0,1.217,0.246,2.243,0.737,3.077c0.531,0.841,1.212,1.548,2.052,2.125c0.83,0.576,1.803,1.037,2.903,1.385
	c1.133,0.346,2.294,0.637,3.474,0.867l9.052,1.689c0.943,0.177,1.913,0.406,2.899,0.691c0.986,0.262,1.877,0.609,2.672,1.04
	c0.833,0.434,1.503,0.973,1.998,1.606c0.527,0.632,0.791,1.388,0.791,2.252c0,1.127-0.359,2.092-1.079,2.901
	c-0.724,0.78-1.628,1.431-2.732,1.95c-1.065,0.494-2.22,0.852-3.474,1.082c-1.25,0.232-2.408,0.347-3.47,0.347
	c-1.859,0-3.604-0.13-5.239-0.388c-1.628-0.289-3.053-0.753-4.265-1.39c-1.183-0.632-2.108-1.487-2.792-2.552
	C587.382,227.845,587.054,226.52,587.096,224.933 M532.445,223.936c0-1.157,0.174-2.298,0.516-3.425
	c0.381-1.154,0.951-2.179,1.71-3.072c0.795-0.897,1.803-1.62,3.021-2.167c1.212-0.577,2.672-0.87,4.382-0.87
	c1.898,0,3.495,0.293,4.788,0.87c1.328,0.547,2.394,1.27,3.185,2.167c0.837,0.894,1.429,1.918,1.771,3.072
	c0.381,1.127,0.569,2.268,0.569,3.425c0,1.154-0.188,2.311-0.569,3.463c-0.343,1.127-0.934,2.137-1.771,3.033
	c-0.791,0.897-1.856,1.635-3.185,2.211c-1.293,0.551-2.89,0.824-4.788,0.824c-1.71,0-3.17-0.273-4.382-0.824
	c-1.218-0.576-2.226-1.313-3.021-2.211c-0.759-0.896-1.328-1.906-1.71-3.033C532.619,226.246,532.444,225.09,532.445,223.936
	 M555.974,235.113V204.18h-3.588V217h-0.12c-0.375-0.805-0.923-1.512-1.646-2.122c-0.684-0.604-1.481-1.108-2.394-1.515
	c-0.912-0.436-1.902-0.753-2.964-0.951c-1.022-0.203-2.087-0.303-3.188-0.303c-2.241,0-4.197,0.316-5.864,0.951
	c-1.635,0.637-3.006,1.504-4.106,2.598c-1.098,1.07-1.913,2.328-2.447,3.771c-0.531,1.412-0.795,2.918-0.795,4.506
	s0.264,3.105,0.795,4.549c0.534,1.417,1.35,2.672,2.447,3.766c1.101,1.073,2.472,1.922,4.106,2.561
	c1.667,0.602,3.623,0.908,5.864,0.908c1.064,0,2.13-0.117,3.188-0.348c1.104-0.23,2.127-0.547,3.082-0.951
	c0.947-0.433,1.78-0.953,2.504-1.561c0.759-0.609,1.328-1.27,1.706-1.99h0.117v4.245L555.974,235.113L555.974,235.113z
	 M499.696,224.672h22.612c0.075-1.561-0.114-3.092-0.57-4.59c-0.451-1.533-1.211-2.877-2.283-4.031
	c-1.021-1.185-2.372-2.139-4.043-2.859c-1.67-0.723-3.684-1.084-6.034-1.084c-2.315,0-4.332,0.346-6.038,1.039
	c-1.671,0.666-3.042,1.561-4.1,2.688c-1.069,1.1-1.863,2.354-2.395,3.768c-0.491,1.414-0.74,2.861-0.74,4.336
	c0,1.584,0.25,3.102,0.74,4.545c0.531,1.42,1.325,2.675,2.395,3.77c1.058,1.07,2.429,1.92,4.1,2.558
	c1.706,0.604,3.723,0.907,6.038,0.907c3.726,0,6.59-0.693,8.603-2.075c2.045-1.39,3.459-3.354,4.215-5.896h-3.588
	c-0.573,1.734-1.596,3.121-3.077,4.158c-1.482,1.044-3.53,1.561-6.152,1.561c-1.706,0-3.17-0.271-4.389-0.822
	c-1.211-0.549-2.219-1.242-3.018-2.078c-0.798-0.84-1.386-1.775-1.767-2.818C499.863,226.679,499.696,225.654,499.696,224.672
	 M518.718,222.373h-19.021c0.149-1.01,0.452-1.99,0.908-2.944c0.495-0.983,1.14-1.831,1.938-2.555
	c0.798-0.753,1.764-1.344,2.907-1.777c1.136-0.464,2.447-0.694,3.929-0.694c1.442,0,2.735,0.23,3.879,0.694
	c1.133,0.433,2.099,1.024,2.9,1.777c0.794,0.724,1.406,1.558,1.823,2.511C518.433,220.339,518.683,221.339,518.718,222.373
	 M484.141,235.114h3.591v-22.356h-3.591V235.114z M484.141,208.553h3.591v-4.373h-3.591V208.553z M470.64,235.114h3.591V204.18
	h-3.591V235.114z M458.454,223.936c0,1.154-0.192,2.311-0.566,3.463c-0.346,1.127-0.916,2.137-1.714,3.033
	c-0.759,0.897-1.742,1.635-2.96,2.211c-1.219,0.551-2.679,0.824-4.389,0.824c-1.898,0-3.509-0.273-4.841-0.824
	c-1.293-0.576-2.354-1.313-3.192-2.211c-0.79-0.896-1.386-1.906-1.763-3.033c-0.343-1.152-0.51-2.309-0.51-3.463
	c0-1.273,0.149-2.484,0.456-3.642c0.338-1.153,0.908-2.167,1.706-3.032c0.795-0.863,1.86-1.557,3.188-2.078
	c1.329-0.52,2.985-0.782,4.955-0.782c1.71,0,3.171,0.293,4.389,0.87c1.219,0.547,2.201,1.27,2.96,2.167
	c0.798,0.894,1.368,1.918,1.714,3.072C458.262,221.638,458.454,222.778,458.454,223.936 M434.93,212.757v30.588h3.591v-12.477h0.114
	c0.374,0.805,0.908,1.515,1.592,2.122c0.72,0.604,1.535,1.113,2.451,1.514c0.908,0.406,1.898,0.711,2.96,0.908
	c1.062,0.206,2.13,0.306,3.188,0.306c2.24,0,4.182-0.306,5.813-0.907c1.667-0.641,3.053-1.488,4.157-2.561
	c1.104-1.095,1.92-2.35,2.447-3.766c0.534-1.444,0.801-2.962,0.801-4.549c0-1.588-0.267-3.095-0.801-4.506
	c-0.527-1.444-1.344-2.701-2.447-3.771c-1.104-1.095-2.49-1.961-4.157-2.598c-1.632-0.635-3.573-0.951-5.813-0.951
	c-2.391,0-4.538,0.43-6.438,1.295c-1.855,0.84-3.209,2.037-4.043,3.595h-0.11v-4.243L434.93,212.757L434.93,212.757z
	 M422.794,223.936c0,1.154-0.188,2.311-0.566,3.463c-0.343,1.127-0.912,2.137-1.71,3.033c-0.759,0.897-1.746,1.635-2.964,2.211
	c-1.215,0.551-2.675,0.824-4.385,0.824c-1.898,0-3.512-0.273-4.841-0.824c-1.293-0.576-2.355-1.313-3.192-2.211
	c-0.798-0.896-1.386-1.906-1.763-3.033c-0.342-1.152-0.513-2.309-0.513-3.463c0-1.273,0.149-2.484,0.456-3.642
	c0.342-1.153,0.912-2.167,1.71-3.032c0.794-0.863,1.859-1.557,3.188-2.078c1.329-0.52,2.981-0.782,4.955-0.782
	c1.71,0,3.17,0.293,4.385,0.87c1.218,0.547,2.205,1.27,2.963,2.167c0.798,0.894,1.368,1.918,1.709,3.072
	C422.604,221.638,422.794,222.778,422.794,223.936 M399.269,212.757v30.588h3.59v-12.477h0.115c0.377,0.805,0.912,1.515,1.596,2.122
	c0.719,0.604,1.535,1.113,2.447,1.514c0.912,0.406,1.898,0.711,2.964,0.908c1.062,0.206,2.123,0.306,3.188,0.306
	c2.241,0,4.179-0.306,5.81-0.907c1.67-0.641,3.056-1.488,4.157-2.561c1.104-1.095,1.92-2.35,2.451-3.766
	c0.53-1.444,0.798-2.962,0.798-4.549c0-1.588-0.268-3.095-0.798-4.506c-0.53-1.444-1.347-2.701-2.451-3.771
	c-1.101-1.095-2.486-1.961-4.157-2.598c-1.631-0.635-3.569-0.951-5.81-0.951c-2.39,0-4.538,0.43-6.437,1.295
	c-1.859,0.84-3.209,2.037-4.043,3.595h-0.114v-4.243L399.269,212.757L399.269,212.757z M373.014,204.18l-16.347,30.934h4.1
	l4.898-9.617h18.513l4.952,9.617h4.164l-15.955-30.934H373.014L373.014,204.18z M366.858,222.979l8.147-15.852l7.862,15.852H366.858
	z M335.245,215.054v-2.298h-5.807v-1.947c0-0.607,0.022-1.171,0.055-1.691c0.038-0.52,0.175-0.967,0.399-1.344
	c0.267-0.402,0.67-0.721,1.197-0.951c0.531-0.23,1.29-0.347,2.284-0.347c0.413,0,0.833,0.027,1.25,0.087
	c0.413,0.027,0.869,0.07,1.364,0.13v-2.341c-0.57-0.055-1.083-0.1-1.539-0.131c-0.456-0.027-0.948-0.037-1.479-0.037
	c-1.446,0-2.643,0.16-3.587,0.477c-0.916,0.316-1.631,0.767-2.166,1.344c-0.535,0.576-0.891,1.271-1.083,2.078
	c-0.192,0.811-0.285,1.69-0.285,2.645v2.034h-5.012v2.298h5.012v20.059h3.591v-20.059h5.807L335.245,215.054z M301.698,212.108
	c-2.24,0-4.235,0.317-5.984,0.954c-1.71,0.634-3.149,1.486-4.328,2.555c-1.175,1.064-2.069,2.324-2.675,3.769
	c-0.609,1.417-0.912,2.931-0.912,4.549c0,1.617,0.302,3.147,0.912,4.593c0.605,1.414,1.5,2.657,2.675,3.725
	c1.179,1.07,2.618,1.921,4.328,2.558c1.749,0.604,3.744,0.907,5.984,0.907c2.241,0,4.214-0.303,5.924-0.907
	c1.742-0.637,3.206-1.487,4.385-2.558c1.176-1.067,2.07-2.311,2.675-3.725c0.609-1.445,0.912-2.976,0.912-4.593
	c0-1.618-0.303-3.132-0.912-4.549c-0.605-1.444-1.5-2.704-2.675-3.769c-1.179-1.068-2.643-1.921-4.385-2.555
	C305.912,212.426,303.938,212.108,301.698,212.108 M301.698,214.403c1.707,0,3.206,0.273,4.5,0.823
	c1.289,0.551,2.351,1.271,3.188,2.165c0.876,0.896,1.518,1.923,1.938,3.077c0.456,1.127,0.684,2.281,0.684,3.466
	s-0.228,2.354-0.684,3.511c-0.42,1.125-1.062,2.135-1.938,3.032c-0.837,0.894-1.899,1.617-3.188,2.165
	c-1.293,0.549-2.793,0.823-4.5,0.823c-1.709,0-3.209-0.274-4.502-0.823c-1.29-0.548-2.376-1.271-3.245-2.165
	c-0.841-0.897-1.482-1.907-1.941-3.032c-0.413-1.156-0.623-2.326-0.623-3.511s0.21-2.339,0.623-3.466
	c0.459-1.154,1.101-2.181,1.941-3.077c0.869-0.894,1.956-1.614,3.245-2.165C298.488,214.678,299.988,214.403,301.698,214.403
	 M237.841,212.757l11.734,22.268l-1.254,2.512c-0.303,0.522-0.588,0.999-0.855,1.431c-0.267,0.436-0.588,0.797-0.965,1.084
	c-0.381,0.316-0.837,0.561-1.368,0.736c-0.495,0.174-1.14,0.257-1.938,0.257c-0.417,0-0.833-0.026-1.254-0.083
	c-0.381-0.027-0.777-0.071-1.197-0.133v2.299c0.306,0.088,0.648,0.131,1.026,0.131c0.417,0.027,0.991,0.055,1.71,0.086
	c1.136,0,2.073-0.086,2.79-0.262c0.762-0.145,1.407-0.404,1.941-0.781c0.566-0.346,1.079-0.834,1.535-1.474
	c0.456-0.604,0.947-1.382,1.482-2.335l12.76-25.736h-3.591l-9.055,19.063l-9.686-19.063L237.841,212.757L237.841,212.757z
	 M227.017,212.757v-6.716h-3.587v6.716h-5.126v2.298h5.126v15.293c-0.038,1.902,0.42,3.219,1.364,3.939
	c0.951,0.697,2.625,1.041,5.016,1.041c0.531,0,1.065-0.017,1.596-0.049c0.53-0.027,1.062-0.044,1.592-0.044v-2.294
	c-1.022,0.083-2.048,0.129-3.074,0.129c-1.293-0.055-2.109-0.33-2.451-0.826c-0.302-0.518-0.456-1.225-0.456-2.118v-15.077h5.981
	v-2.298h-5.981L227.017,212.757z M207.877,235.114h3.591v-22.356h-3.591V235.114L207.877,235.114z M207.877,208.553h3.591v-4.373
	h-3.591V208.553z M195.061,219.3h3.591c-0.078-1.214-0.399-2.268-0.969-3.161c-0.567-0.897-1.35-1.648-2.333-2.255
	c-0.951-0.609-2.069-1.057-3.362-1.344c-1.25-0.29-2.619-0.431-4.1-0.431c-1.29,0-2.604,0.113-3.933,0.345
	c-1.29,0.232-2.465,0.591-3.53,1.083c-1.065,0.491-1.938,1.141-2.619,1.951c-0.648,0.808-0.972,1.775-0.972,2.902
	c0,0.953,0.21,1.761,0.627,2.428c0.42,0.633,0.987,1.184,1.714,1.645c0.755,0.433,1.631,0.81,2.618,1.127
	c0.986,0.287,2.069,0.549,3.249,0.779l4.613,0.777c0.794,0.146,1.574,0.318,2.333,0.523c0.798,0.201,1.5,0.461,2.109,0.777
	c0.605,0.291,1.08,0.667,1.421,1.127c0.381,0.434,0.573,0.984,0.573,1.648c0,0.777-0.271,1.441-0.798,1.988
	c-0.499,0.523-1.14,0.956-1.938,1.303c-0.798,0.347-1.67,0.594-2.618,0.734c-0.916,0.144-1.806,0.22-2.682,0.22
	c-2.39,0-4.403-0.463-6.038-1.388c-1.592-0.955-2.465-2.354-2.618-4.201h-3.591c0.307,2.744,1.521,4.738,3.648,5.979
	c2.166,1.242,4.976,1.861,8.432,1.861c1.368,0,2.75-0.115,4.157-0.347c1.403-0.231,2.657-0.604,3.758-1.124
	c1.144-0.553,2.073-1.244,2.793-2.081c0.723-0.867,1.08-1.905,1.08-3.118c0-0.986-0.242-1.834-0.738-2.558
	c-0.495-0.721-1.14-1.327-1.938-1.821c-0.755-0.487-1.649-0.88-2.679-1.168c-0.983-0.316-1.991-0.533-3.017-0.649l-4.784-0.821
	c-0.609-0.116-1.271-0.26-1.995-0.434c-0.723-0.205-1.386-0.449-1.991-0.738c-0.609-0.288-1.122-0.635-1.539-1.041
	c-0.381-0.434-0.57-0.951-0.57-1.561c0-0.719,0.21-1.324,0.627-1.818c0.417-0.487,0.965-0.877,1.653-1.168
	c0.681-0.316,1.421-0.535,2.219-0.652c0.834-0.141,1.653-0.217,2.451-0.217c1.022,0,1.995,0.1,2.903,0.305
	c0.912,0.172,1.709,0.461,2.394,0.867c0.723,0.4,1.29,0.924,1.71,1.559C194.794,217.742,195.026,218.46,195.061,219.3
	 M156.557,212.757v22.356h3.59v-11.915c0-1.184,0.268-2.268,0.794-3.251c0.531-1.011,1.272-1.875,2.223-2.598
	c0.987-0.721,2.148-1.269,3.473-1.645c1.332-0.406,2.814-0.578,4.445-0.521v-2.73c-2.657-0.086-4.955,0.361-6.893,1.344
	c-1.899,0.984-3.306,2.385-4.218,4.202h-0.11v-5.242H156.557L156.557,212.757z M126.141,224.671h22.613
	c0.075-1.561-0.114-3.091-0.57-4.589c-0.456-1.534-1.215-2.878-2.28-4.031c-1.026-1.185-2.373-2.139-4.043-2.859
	c-1.671-0.723-3.684-1.084-6.038-1.084c-2.319,0-4.328,0.346-6.038,1.038c-1.67,0.667-3.039,1.561-4.1,2.688
	c-1.065,1.1-1.859,2.354-2.39,3.768c-0.495,1.414-0.741,2.861-0.741,4.336c0,1.584,0.246,3.102,0.741,4.545
	c0.531,1.42,1.325,2.675,2.39,3.77c1.062,1.07,2.43,1.92,4.1,2.557c1.71,0.604,3.719,0.908,6.038,0.908
	c3.723,0,6.586-0.693,8.603-2.075c2.048-1.39,3.456-3.354,4.214-5.896h-3.587c-0.57,1.734-1.599,3.121-3.074,4.158
	c-1.482,1.043-3.534,1.561-6.155,1.561c-1.71,0-3.17-0.271-4.385-0.823c-1.215-0.548-2.223-1.241-3.021-2.077
	c-0.798-0.841-1.386-1.775-1.767-2.818C126.308,226.679,126.141,225.654,126.141,224.671 M145.167,222.373h-19.026
	c0.149-1.01,0.452-1.99,0.908-2.944c0.495-0.983,1.144-1.831,1.938-2.556c0.798-0.752,1.767-1.344,2.907-1.777
	c1.136-0.463,2.447-0.693,3.929-0.693c1.443,0,2.732,0.23,3.872,0.693c1.14,0.434,2.109,1.025,2.907,1.777
	c0.798,0.725,1.403,1.559,1.824,2.512C144.877,220.339,145.127,221.338,145.167,222.373 M91.394,212.757l11.335,22.356h3.815
	l10.993-22.356h-3.701l-9.112,19.626h-0.118l-9.226-19.626H91.394L91.394,212.757z M81.251,235.114h3.59v-22.356h-3.59V235.114
	L81.251,235.114z M81.251,208.553h3.59v-4.373h-3.59V208.553z M47.587,212.757v22.356h3.591v-13.042
	c0.038-1.101,0.267-2.108,0.684-3.034c0.456-0.951,1.065-1.758,1.82-2.422c0.801-0.693,1.749-1.228,2.85-1.604
	c1.14-0.403,2.43-0.609,3.876-0.609c1.439,0,2.636,0.177,3.587,0.522c0.987,0.348,1.767,0.824,2.333,1.432
	c0.57,0.604,0.969,1.324,1.2,2.164c0.228,0.811,0.338,1.69,0.338,2.645v13.949h3.587v-14.386c0-1.327-0.167-2.524-0.51-3.595
	c-0.342-1.068-0.933-1.965-1.767-2.686c-0.833-0.75-1.956-1.327-3.359-1.734c-1.371-0.402-3.078-0.604-5.129-0.604
	c-2.087,0-4.007,0.417-5.753,1.254c-1.746,0.809-2.96,1.895-3.644,3.252h-0.114v-3.857L47.587,212.757L47.587,212.757z
	 M5.949,204.18v19.799c0,1.59,0.285,3.105,0.855,4.546c0.605,1.417,1.539,2.661,2.793,3.726c1.29,1.072,2.924,1.921,4.898,2.561
	c2.009,0.602,4.424,0.907,7.231,0.907c2.85,0,5.262-0.306,7.239-0.907c2.009-0.64,3.641-1.488,4.898-2.561
	c1.29-1.064,2.219-2.309,2.789-3.726c0.609-1.44,0.912-2.956,0.912-4.546V204.18h-3.872v19.146c0,1.793-0.267,3.324-0.802,4.594
	c-0.527,1.244-1.307,2.268-2.333,3.076c-1.022,0.779-2.28,1.357-3.758,1.733c-1.479,0.347-3.174,0.518-5.073,0.518
	c-1.855,0-3.53-0.171-5.012-0.518c-1.479-0.377-2.732-0.954-3.758-1.733c-1.022-0.809-1.802-1.832-2.333-3.076
	c-0.531-1.27-0.798-2.801-0.798-4.594V204.18H5.949L5.949,204.18z"/>
<path id="path28029" fill="#414141" d="M814.652,76.074c0-1.853-0.313-3.368-0.962-4.538c-0.637-1.219-1.791-2.17-3.462-2.856
	c-1.6-0.731-3.815-1.219-6.637-1.463c-2.824-0.292-6.387-0.441-10.687-0.441c-3.851,0-7.028,0.149-9.532,0.441
	c-2.437,0.244-4.425,0.71-5.963,1.393c-1.476,0.683-2.533,1.634-3.175,2.853c-0.645,1.17-1.064,2.709-1.257,4.611H814.652z
	 M822.354,85.955c-0.062,2.054-0.542,3.782-1.439,5.199c-0.905,1.366-2.312,2.49-4.239,3.371c-1.92,0.826-4.46,1.436-7.602,1.829
	c-3.078,0.338-6.868,0.509-11.356,0.509c-3.854,0-7.185-0.049-10.01-0.146c-2.817-0.097-5.297-0.268-7.413-0.509
	c-2.052-0.293-3.783-0.634-5.197-1.027c-1.41-0.391-2.601-0.878-3.562-1.463c-4.235-2.49-6.352-7.199-6.352-14.129
	c0-4.146,0.677-7.442,2.026-9.881c1.344-2.49,3.463-4.346,6.345-5.565c0.904-0.391,1.927-0.707,3.081-0.951
	c1.154-0.293,2.504-0.512,4.043-0.661c1.543-0.144,3.306-0.241,5.294-0.29c2.052-0.098,4.431-0.149,7.124-0.149
	c3.848,0,7.125,0.076,9.817,0.223c2.693,0.146,4.977,0.39,6.833,0.731c1.862,0.293,3.43,0.729,4.716,1.317
	c1.29,0.587,2.437,1.319,3.466,2.197c0.834,0.731,1.539,1.512,2.123,2.341c0.57,0.832,1.022,1.783,1.344,2.855
	c0.316,1.076,0.541,2.343,0.673,3.807c0.189,1.414,0.32,3.124,0.381,5.123h-49.66c0.124,2.197,0.416,4.004,0.861,5.418
	c0.517,1.366,1.322,2.463,2.408,3.292c0.648,0.539,1.475,0.978,2.505,1.319c1.021,0.344,2.344,0.637,3.946,0.88
	c1.6,0.193,3.563,0.341,5.871,0.439c2.372,0.097,5.226,0.144,8.563,0.144c2.504,0,4.655-0.027,6.451-0.073
	c1.855-0.098,3.401-0.244,4.62-0.436c1.278-0.198,2.344-0.466,3.177-0.808c0.838-0.342,1.539-0.756,2.116-1.244
	c0.577-0.438,0.962-0.88,1.154-1.316c0.188-0.438,0.349-1.219,0.481-2.346H822.354L822.354,85.955z M758.067,96.423h-7.028V47.599
	h7.028V96.423z M696.182,62.532v17.131c0,1.609,0.027,2.975,0.096,4.099c0.128,1.07,0.32,1.999,0.576,2.782
	c0.254,0.731,0.574,1.366,0.962,1.902c0.445,0.537,0.994,1.024,1.636,1.463c1.278,0.832,3.045,1.417,5.293,1.758
	c2.248,0.342,5.457,0.51,9.622,0.51c5.325,0,9.465-0.292,12.421-0.875c3.014-0.637,5.258-1.683,6.732-3.148
	c0.962-0.829,1.61-1.905,1.928-3.221c0.385-1.317,0.573-3.197,0.573-5.635V62.532h7.032v33.893h-7.032v-5.05h-0.386
	c-0.89,1.073-1.891,1.975-2.978,2.709c-1.09,0.683-2.469,1.241-4.14,1.683c-1.67,0.39-3.723,0.658-6.162,0.802
	c-2.373,0.198-5.29,0.293-8.76,0.293c-5.518,0-9.817-0.241-12.892-0.729c-3.085-0.488-5.485-1.317-7.224-2.49
	c-0.767-0.537-1.439-1.146-2.017-1.829c-0.577-0.685-1.029-1.512-1.351-2.487c-0.32-0.978-0.576-2.127-0.772-3.443
	c-0.125-1.317-0.189-2.856-0.189-4.611v-18.74h7.028H696.182z M633.814,47.599v19.914h0.577c0.766-1.076,1.664-1.956,2.693-2.639
	c1.094-0.731,2.504-1.292,4.229-1.682c1.741-0.439,3.857-0.731,6.361-0.875c2.558-0.198,5.668-0.295,9.33-0.295
	c3.081,0,5.745,0.074,7.993,0.22c2.302,0.097,4.3,0.292,5.963,0.585c1.668,0.295,3.082,0.686,4.236,1.173
	c1.154,0.485,2.18,1.07,3.074,1.756c0.779,0.585,1.386,1.219,1.838,1.902c0.509,0.683,0.897,1.512,1.146,2.49
	c0.328,0.976,0.517,2.173,0.577,3.587c0.136,1.368,0.196,3.051,0.196,5.05v17.64h-7.025V80.468c0-1.758-0.026-3.224-0.092-4.395
	c-0.068-1.167-0.196-2.146-0.389-2.929c-0.189-0.78-0.445-1.438-0.766-1.975c-0.32-0.537-0.737-1.049-1.262-1.537
	c-1.146-1.073-2.978-1.832-5.481-2.27c-2.434-0.439-6.06-0.656-10.872-0.656c-5.457,0-9.722,0.292-12.803,0.875
	c-3.014,0.585-5.262,1.539-6.736,2.855c-0.577,0.537-1.064,1.051-1.446,1.536c-0.381,0.49-0.673,1.1-0.862,1.829
	c-0.195,0.734-0.32,1.639-0.392,2.712c-0.061,1.021-0.089,2.341-0.089,3.953v15.955h-7.028V47.599L633.814,47.599L633.814,47.599z
	 M620.436,84.127c-0.071,2.295-0.389,4.124-0.962,5.492c-0.584,1.314-1.507,2.487-2.796,3.514c-0.898,0.68-1.892,1.268-2.985,1.753
	c-1.083,0.49-2.433,0.88-4.04,1.173c-1.539,0.295-3.369,0.485-5.482,0.585c-2.115,0.146-4.62,0.22-7.509,0.22
	c-3.979,0-7.381-0.049-10.198-0.146c-2.825-0.098-5.269-0.269-7.32-0.512c-1.988-0.245-3.651-0.561-5.002-0.951
	c-1.35-0.438-2.504-0.975-3.466-1.609c-2.052-1.271-3.598-3.05-4.62-5.342c-1.029-2.347-1.535-5.275-1.535-8.787
	c0-4.099,0.638-7.369,1.92-9.808c1.35-2.441,3.438-4.245,6.255-5.418c0.966-0.39,2.023-0.731,3.178-1.027
	c1.219-0.29,2.597-0.512,4.14-0.656c1.539-0.198,3.306-0.317,5.297-0.368c2.052-0.095,4.424-0.146,7.117-0.146
	c3.534,0,6.572,0.076,9.147,0.223c2.622,0.095,4.87,0.292,6.736,0.585c1.928,0.292,3.498,0.683,4.717,1.17
	c1.278,0.487,2.372,1.097,3.27,1.829c1.279,0.978,2.213,2.124,2.79,3.441c0.584,1.319,0.933,3.075,1.058,5.272h-7.313
	c-0.062-1.609-0.381-2.904-0.958-3.882c-0.577-1.021-1.635-1.829-3.181-2.414c-1.539-0.585-3.623-0.975-6.256-1.17
	c-2.564-0.244-5.898-0.368-10.01-0.368c-4.3,0-7.794,0.171-10.494,0.515c-2.629,0.293-4.681,0.927-6.155,1.902
	c-1.476,0.926-2.469,2.246-2.985,3.953c-0.517,1.709-0.766,3.953-0.766,6.735c0,3.072,0.445,5.464,1.343,7.174
	c0.904,1.707,2.38,2.904,4.424,3.587c1.422,0.539,3.502,0.927,6.263,1.17c2.825,0.195,6.576,0.293,11.257,0.293
	c3.598,0,6.547-0.098,8.858-0.293c2.309-0.244,4.104-0.659,5.383-1.246c1.351-0.583,2.283-1.387,2.797-2.414
	c0.517-1.024,0.801-2.368,0.865-4.026L620.436,84.127L620.436,84.127z M510.231,84.64l0.096,0.951c0,1.563,0.164,2.783,0.481,3.661
	c0.385,0.877,1.285,1.539,2.696,1.978c1.475,0.438,3.626,0.707,6.451,0.805c2.889,0.097,6.868,0.144,11.934,0.144
	c3.081,0,5.613-0.027,7.602-0.071c2.056-0.054,3.758-0.122,5.101-0.223c1.351-0.146,2.408-0.316,3.182-0.509
	c0.762-0.195,1.41-0.466,1.92-0.807c1.286-0.78,1.927-2,1.927-3.658c0-2.002-0.869-3.395-2.597-4.175
	c-1.67-0.78-4.752-1.146-9.247-1.097h-1.636h-2.885h-5.774c-2.505-0.049-5.874-0.098-10.103-0.146
	c-2.949-0.049-5.454-0.244-7.509-0.585c-1.991-0.342-3.627-0.88-4.909-1.612c-1.222-0.729-2.119-1.682-2.696-2.853
	c-0.51-1.171-0.77-2.612-0.77-4.321c0-3.609,1.574-6.221,4.716-7.83c1.604-0.78,4.176-1.341,7.695-1.683
	c3.598-0.344,8.67-0.515,15.21-0.515c3.723,0,6.936,0.073,9.629,0.223c2.754,0.144,5.065,0.388,6.929,0.731
	c1.92,0.293,3.494,0.729,4.716,1.314c1.219,0.537,2.241,1.198,3.078,1.978c0.389,0.393,0.709,0.78,0.958,1.173
	c0.328,0.338,0.553,0.756,0.684,1.244c0.125,0.488,0.222,1.073,0.285,1.758c0.063,0.634,0.097,1.46,0.097,2.487h-7.506
	c0-1.268-0.101-2.173-0.292-2.709c-0.188-0.536-0.545-1-1.058-1.393c-0.962-0.78-2.854-1.314-5.679-1.606
	c-2.761-0.345-6.804-0.515-12.125-0.515c-9.949,0-15.885,0.561-17.805,1.683c-1.35,0.731-2.026,1.978-2.026,3.736
	c0,0.926,0.192,1.707,0.58,2.341c0.381,0.587,1.055,1.051,2.023,1.39c1.022,0.295,2.372,0.515,4.043,0.661
	c1.731,0.098,3.943,0.122,6.637,0.074h3.854c1.795,0,3.722,0.027,5.773,0.073c2.116,0.049,4.168,0.097,6.156,0.146
	c1.991,0,3.562,0.027,4.72,0.073c5.133,0.146,8.784,1,10.972,2.561c2.24,1.514,3.366,3.953,3.366,7.323
	c0,2.094-0.417,3.804-1.251,5.123c-0.837,1.268-2.187,2.292-4.043,3.072c-1.606,0.686-4.139,1.149-7.605,1.393
	c-3.466,0.293-8.371,0.436-14.722,0.436c-3.79,0-7.061-0.049-9.817-0.144c-2.701-0.049-5.002-0.174-6.929-0.366
	c-1.928-0.198-3.534-0.439-4.816-0.731c-1.218-0.341-2.244-0.759-3.074-1.247c-1.546-0.829-2.636-1.829-3.277-2.999
	c-0.577-1.222-0.862-2.88-0.862-4.98V84.64H510.231L510.231,84.64z M448.349,47.599v19.913h0.577
	c0.769-1.076,1.667-1.956,2.692-2.639c1.09-0.731,2.505-1.292,4.235-1.683c1.735-0.438,3.852-0.731,6.355-0.875
	c2.561-0.198,5.675-0.295,9.336-0.295c3.078,0,5.742,0.073,7.983,0.22c2.312,0.098,4.3,0.292,5.97,0.585
	c1.668,0.295,3.078,0.686,4.239,1.173c1.151,0.485,2.177,1.07,3.074,1.755c0.773,0.585,1.383,1.219,1.828,1.902
	c0.52,0.683,0.904,1.512,1.157,2.49c0.32,0.976,0.514,2.173,0.577,3.587c0.132,1.368,0.195,3.051,0.195,5.05v17.641h-7.031V80.468
	c0-1.758-0.032-3.224-0.093-4.395c-0.061-1.168-0.195-2.146-0.385-2.929c-0.195-0.78-0.449-1.439-0.772-1.975
	c-0.321-0.537-0.737-1.048-1.251-1.536c-1.15-1.073-2.981-1.832-5.485-2.271c-2.437-0.438-6.06-0.656-10.876-0.656
	c-5.453,0-9.718,0.292-12.803,0.875c-3.01,0.585-5.261,1.539-6.735,2.855c-0.577,0.537-1.059,1.051-1.443,1.536
	c-0.384,0.491-0.677,1.1-0.869,1.829c-0.192,0.734-0.32,1.639-0.385,2.712c-0.062,1.021-0.092,2.341-0.092,3.953v15.955h-7.028
	V47.598L448.349,47.599L448.349,47.599z M434.971,84.127c-0.067,2.294-0.385,4.124-0.965,5.492
	c-0.577,1.314-1.504,2.487-2.789,3.514c-0.901,0.68-1.892,1.268-2.981,1.753c-1.094,0.49-2.44,0.881-4.044,1.173
	c-1.539,0.295-3.373,0.485-5.485,0.585c-2.116,0.146-4.621,0.22-7.509,0.22c-3.979,0-7.381-0.049-10.199-0.146
	c-2.828-0.097-5.265-0.268-7.317-0.512c-1.988-0.244-3.662-0.561-5.008-0.951c-1.347-0.439-2.5-0.976-3.466-1.609
	c-2.048-1.271-3.591-3.051-4.617-5.343c-1.026-2.346-1.542-5.275-1.542-8.786c0-4.099,0.645-7.369,1.923-9.808
	c1.354-2.441,3.434-4.246,6.263-5.418c0.958-0.39,2.02-0.731,3.17-1.027c1.225-0.29,2.6-0.512,4.139-0.656
	c1.539-0.198,3.309-0.317,5.297-0.369c2.056-0.095,4.424-0.146,7.125-0.146c3.523,0,6.576,0.076,9.141,0.223
	c2.629,0.095,4.873,0.293,6.74,0.585c1.92,0.292,3.498,0.683,4.716,1.17c1.282,0.488,2.369,1.098,3.267,1.829
	c1.286,0.978,2.216,2.124,2.796,3.44c0.577,1.32,0.931,3.075,1.055,5.272h-7.313c-0.061-1.609-0.381-2.904-0.965-3.882
	c-0.573-1.021-1.635-1.829-3.17-2.414c-1.543-0.585-3.627-0.975-6.259-1.17c-2.565-0.244-5.903-0.368-10.006-0.368
	c-4.303,0-7.798,0.171-10.491,0.515c-2.632,0.293-4.688,0.927-6.163,1.902c-1.475,0.927-2.469,2.246-2.985,3.953
	c-0.513,1.71-0.77,3.953-0.77,6.735c0,3.072,0.452,5.465,1.35,7.174c0.897,1.707,2.372,2.904,4.424,3.587
	c1.411,0.539,3.501,0.926,6.259,1.17c2.825,0.195,6.579,0.292,11.26,0.292c3.595,0,6.544-0.097,8.856-0.292
	c2.309-0.244,4.104-0.659,5.386-1.247c1.351-0.582,2.276-1.387,2.793-2.414c0.517-1.024,0.805-2.368,0.869-4.026H434.971
	L434.971,84.127z M343.053,66.777c-4.424,0-8.015,0.171-10.776,0.515c-2.761,0.293-4.912,0.902-6.451,1.829
	c-1.475,0.929-2.472,2.246-2.978,3.953c-0.516,1.661-0.776,3.855-0.776,6.589c0,3.514,0.513,6.123,1.542,7.83
	c1.029,1.709,2.857,2.907,5.486,3.59c1.475,0.39,3.37,0.683,5.682,0.878c2.305,0.146,5.546,0.217,9.714,0.217
	c2.568,0,4.788-0.022,6.647-0.071c1.856-0.098,3.43-0.22,4.716-0.369c1.343-0.192,2.469-0.411,3.363-0.656
	c0.965-0.293,1.799-0.659,2.504-1.1c1.479-0.875,2.504-2.121,3.078-3.733c0.648-1.658,0.965-3.975,0.965-6.952
	c0-3.319-0.478-5.806-1.443-7.467c-0.897-1.709-2.469-2.953-4.72-3.733c-1.343-0.487-3.299-0.829-5.867-1.024
	C351.171,66.877,347.612,66.777,343.053,66.777 M341.898,62.092c3.594,0,6.676,0.055,9.244,0.146
	c2.564,0.055,4.748,0.171,6.54,0.368c1.863,0.196,3.406,0.461,4.624,0.805c1.279,0.293,2.405,0.656,3.367,1.098
	c2.693,1.316,4.62,3.148,5.774,5.489c1.218,2.344,1.827,5.492,1.827,9.445c0,4.148-0.642,7.418-1.92,9.808
	c-1.218,2.392-3.245,4.196-6.063,5.418c-0.965,0.438-2.023,0.805-3.181,1.097c-1.154,0.244-2.533,0.466-4.139,0.659
	c-1.539,0.146-3.366,0.244-5.486,0.292c-2.116,0.098-4.588,0.144-7.409,0.144c-3.274,0-6.095-0.049-8.471-0.144
	c-2.373-0.049-4.46-0.173-6.255-0.363c-1.728-0.198-3.241-0.441-4.524-0.734c-1.215-0.342-2.336-0.734-3.37-1.173
	c-1.411-0.634-2.629-1.387-3.655-2.271c-0.965-0.875-1.767-1.902-2.408-3.07c-0.642-1.222-1.122-2.636-1.439-4.248
	c-0.256-1.609-0.389-3.462-0.389-5.562c0-4.053,0.673-7.296,2.023-9.737c1.411-2.487,3.591-4.318,6.543-5.492
	c0.898-0.339,1.892-0.631,2.985-0.875c1.154-0.295,2.469-0.515,3.947-0.661c1.539-0.146,3.267-0.241,5.194-0.293
	C337.182,62.144,339.401,62.092,341.898,62.092 M259.9,47.599v19.913h0.574c0.773-1.076,1.67-1.956,2.696-2.639
	c1.09-0.732,2.504-1.292,4.236-1.683c1.731-0.438,3.851-0.731,6.351-0.875c2.565-0.198,5.678-0.295,9.337-0.295
	c3.078,0,5.742,0.073,7.986,0.22c2.312,0.097,4.299,0.292,5.97,0.585c1.667,0.295,3.078,0.686,4.232,1.173
	c1.158,0.485,2.184,1.07,3.082,1.756c0.769,0.585,1.378,1.219,1.831,1.902c0.51,0.683,0.895,1.512,1.154,2.49
	c0.321,0.976,0.509,2.173,0.577,3.587c0.129,1.368,0.193,3.05,0.193,5.05v17.64h-7.028V80.468c0-1.758-0.033-3.224-0.089-4.395
	c-0.071-1.168-0.199-2.146-0.392-2.929c-0.189-0.78-0.449-1.439-0.77-1.975c-0.316-0.537-0.737-1.049-1.25-1.536
	c-1.151-1.073-2.985-1.832-5.486-2.271c-2.44-0.438-6.063-0.656-10.875-0.656c-5.454,0-9.721,0.292-12.803,0.875
	c-3.01,0.585-5.261,1.539-6.736,2.855c-0.573,0.537-1.062,1.051-1.442,1.536c-0.389,0.491-0.677,1.1-0.869,1.829
	c-0.188,0.734-0.321,1.639-0.385,2.712c-0.062,1.021-0.093,2.341-0.093,3.953v15.955h-7.028V47.598L259.9,47.599L259.9,47.599z
	 M196.955,47.599v19.913h0.577c0.769-1.076,1.667-1.956,2.693-2.639c1.094-0.732,2.504-1.292,4.235-1.683
	c1.731-0.438,3.851-0.731,6.355-0.875c2.562-0.198,5.675-0.295,9.337-0.295c3.074,0,5.739,0.073,7.986,0.22
	c2.308,0.097,4.299,0.292,5.97,0.585c1.664,0.295,3.078,0.686,4.232,1.173c1.154,0.485,2.18,1.07,3.078,1.756
	c0.773,0.585,1.382,1.219,1.831,1.902c0.513,0.683,0.898,1.512,1.154,2.49c0.32,0.976,0.513,2.173,0.577,3.587
	c0.128,1.368,0.193,3.05,0.193,5.05v17.64h-7.028V80.468c0-1.758-0.027-3.224-0.093-4.395c-0.061-1.168-0.192-2.146-0.385-2.929
	c-0.192-0.78-0.449-1.439-0.769-1.975c-0.321-0.537-0.741-1.049-1.254-1.536c-1.154-1.073-2.982-1.832-5.486-2.271
	c-2.437-0.438-6.063-0.656-10.875-0.656c-5.454,0-9.722,0.292-12.799,0.875c-3.017,0.585-5.265,1.539-6.736,2.855
	c-0.577,0.537-1.062,1.051-1.446,1.536c-0.381,0.491-0.677,1.1-0.866,1.829c-0.193,0.734-0.321,1.639-0.389,2.712
	c-0.062,1.021-0.092,2.341-0.092,3.953v15.955h-7.028V47.598L196.955,47.599L196.955,47.599z M183.575,84.126
	c-0.061,2.295-0.381,4.124-0.961,5.492c-0.577,1.313-1.507,2.487-2.79,3.514c-0.901,0.68-1.895,1.268-2.985,1.753
	c-1.09,0.49-2.437,0.88-4.043,1.173c-1.539,0.295-3.37,0.485-5.486,0.585c-2.116,0.146-4.617,0.22-7.506,0.22
	c-3.979,0-7.381-0.049-10.206-0.146c-2.821-0.097-5.258-0.268-7.31-0.512c-1.988-0.244-3.662-0.561-5.009-0.951
	c-1.346-0.439-2.5-0.976-3.462-1.609c-2.052-1.271-3.594-3.051-4.62-5.343c-1.026-2.346-1.539-5.275-1.539-8.786
	c0-4.099,0.638-7.369,1.924-9.808c1.35-2.441,3.434-4.246,6.255-5.418c0.961-0.391,2.02-0.731,3.177-1.027
	c1.218-0.29,2.597-0.512,4.136-0.656c1.542-0.198,3.31-0.317,5.297-0.369c2.052-0.095,4.424-0.146,7.121-0.146
	c3.526,0,6.576,0.076,9.144,0.223c2.629,0.095,4.873,0.293,6.736,0.585c1.923,0.292,3.498,0.683,4.716,1.17
	c1.286,0.488,2.373,1.098,3.273,1.829c1.283,0.978,2.212,2.124,2.79,3.44c0.581,1.319,0.93,3.075,1.058,5.272h-7.313
	c-0.062-1.609-0.385-2.904-0.965-3.882c-0.573-1.021-1.635-1.829-3.174-2.414c-1.539-0.585-3.626-0.976-6.255-1.17
	c-2.565-0.244-5.902-0.369-10.01-0.369c-4.296,0-7.798,0.171-10.491,0.515c-2.632,0.292-4.688,0.927-6.159,1.902
	c-1.478,0.927-2.472,2.246-2.985,3.953c-0.517,1.71-0.77,3.953-0.77,6.735c0,3.072,0.449,5.465,1.35,7.174
	c0.897,1.707,2.369,2.904,4.428,3.587c1.411,0.539,3.495,0.926,6.251,1.17c2.825,0.196,6.576,0.293,11.26,0.293
	c3.594,0,6.547-0.097,8.856-0.293c2.308-0.244,4.107-0.658,5.39-1.246c1.346-0.582,2.276-1.387,2.792-2.414
	c0.513-1.024,0.802-2.368,0.866-4.026L183.575,84.126L183.575,84.126z M93.781,80.978c-2.953,0-5.421,0.027-7.413,0.074
	c-1.988,0-3.626,0.054-4.909,0.146c-1.282,0.097-2.308,0.222-3.078,0.369c-0.705,0.146-1.318,0.341-1.827,0.585
	c-1.735,0.875-2.601,2.39-2.601,4.538c0,1.271,0.256,2.271,0.77,3.002c0.513,0.683,1.414,1.219,2.693,1.612
	c1.026,0.342,2.857,0.582,5.489,0.731c2.693,0.097,6.797,0.144,12.318,0.144c3.723,0,6.772-0.073,9.144-0.217
	c2.44-0.198,4.332-0.49,5.675-0.88c1.414-0.438,2.376-1.024,2.889-1.756c0.517-0.731,0.773-1.658,0.773-2.782
	c0-1.076-0.324-1.978-0.966-2.709c-0.577-0.732-1.635-1.292-3.174-1.683c-1.475-0.439-3.498-0.731-6.063-0.881
	C100.934,81.079,97.692,80.979,93.781,80.978 M68.372,72.708v-1.463c0-1.758,0.385-3.222,1.154-4.392
	c0.833-1.219,2.212-2.173,4.139-2.855c1.924-0.686,4.492-1.17,7.698-1.466c3.21-0.292,7.221-0.438,12.033-0.438
	c3.787,0,6.993,0.076,9.622,0.223c2.633,0.095,4.845,0.292,6.644,0.585c1.859,0.293,3.366,0.683,4.521,1.17
	c1.218,0.487,2.312,1.097,3.274,1.829c0.773,0.585,1.382,1.195,1.831,1.832c0.51,0.634,0.898,1.417,1.154,2.344
	c0.321,0.926,0.513,2.072,0.577,3.44c0.128,1.366,0.192,3.048,0.192,5.05v17.86h-7.028l0.1-3.953h-0.292
	c-0.833,0.929-1.728,1.685-2.693,2.271c-0.898,0.537-2.084,0.975-3.563,1.317c-1.478,0.295-3.338,0.487-5.578,0.585
	c-2.184,0.146-4.973,0.22-8.375,0.22c-3.979,0-7.313-0.049-10.013-0.146c-2.625-0.049-4.809-0.146-6.544-0.292
	c-1.728-0.193-3.11-0.436-4.136-0.729c-1.029-0.295-1.956-0.686-2.793-1.17c-1.475-0.881-2.5-1.907-3.078-3.078
	c-0.517-1.17-0.769-2.783-0.769-4.831c0-2.685,0.478-4.733,1.442-6.147c0.958-1.415,2.597-2.466,4.909-3.148
	c0.641-0.195,1.411-0.366,2.309-0.512c0.961-0.149,2.083-0.247,3.366-0.292c1.286-0.1,2.792-0.174,4.527-0.223
	c1.731-0.049,3.783-0.071,6.159-0.071c4.552,0,8.247,0.049,11.068,0.146c2.825,0.049,5.101,0.217,6.836,0.509
	c1.728,0.247,3.045,0.609,3.943,1.1c0.961,0.487,1.827,1.122,2.597,1.902h0.577v-3.658c0-1.758-0.157-3.078-0.478-3.956
	c-0.256-0.929-0.801-1.755-1.639-2.487c-0.642-0.588-1.414-1.073-2.308-1.466c-0.833-0.388-1.959-0.683-3.366-0.878
	c-1.415-0.244-3.149-0.414-5.197-0.512c-1.991-0.097-4.432-0.149-7.317-0.149c-3.851,0-6.96,0.076-9.336,0.223
	c-2.312,0.095-4.14,0.366-5.486,0.805c-1.283,0.39-2.148,0.951-2.601,1.682c-0.449,0.683-0.673,1.612-0.673,2.783v0.438
	L68.372,72.708L68.372,72.708z M5.811,47.599h60.251v5.708H14.378v15.521H63.75v5.708H14.378v21.886H5.811V47.599z"/>
<path id="path28077" d="M774.647,125.649v5.126h0.577c0.701-1.076,1.574-1.978,2.604-2.709c1.083-0.732,2.469-1.293,4.133-1.683
	c1.73-0.441,3.854-0.734,6.352-0.88c2.568-0.196,5.685-0.291,9.336-0.291c3.206,0,5.971,0.071,8.278,0.217
	c2.313,0.098,4.3,0.293,5.971,0.588c1.724,0.29,3.146,0.683,4.231,1.167c1.154,0.439,2.184,1.027,3.082,1.758
	c1.35,1.123,2.272,2.537,2.789,4.246c0.576,1.66,0.869,4.074,0.869,7.248v19.105h-7.028v-16.836c0-1.514-0.032-2.782-0.096-3.807
	c-0.062-1.075-0.196-1.978-0.381-2.707c-0.196-0.782-0.452-1.419-0.773-1.906c-0.32-0.537-0.737-1.021-1.254-1.463
	c-1.154-1.073-2.985-1.829-5.489-2.268c-2.433-0.441-6.095-0.662-10.972-0.662c-5.518,0-9.782,0.32-12.796,0.951
	c-3.017,0.588-5.293,1.588-6.836,3.002c-0.58,0.488-1.025,1.002-1.343,1.539c-0.32,0.487-0.581,1.098-0.772,1.832
	c-0.189,0.729-0.32,1.633-0.386,2.706c-0.061,1.024-0.096,2.343-0.096,3.952v15.666h-7.028v-33.894H774.647L774.647,125.649z
	 M753.476,139.193c0-1.855-0.32-3.367-0.962-4.541c-0.645-1.219-1.799-2.17-3.469-2.852c-1.6-0.732-3.813-1.223-6.637-1.467
	c-2.825-0.293-6.387-0.438-10.687-0.438c-3.851,0-7.021,0.146-9.525,0.438c-2.437,0.244-4.432,0.707-5.971,1.393
	c-1.475,0.684-2.532,1.635-3.174,2.855c-0.645,1.168-1.058,2.71-1.25,4.611H753.476z M761.178,149.074
	c-0.068,2.051-0.549,3.783-1.446,5.197c-0.897,1.367-2.313,2.489-4.239,3.369c-1.92,0.827-4.453,1.439-7.602,1.83
	c-3.078,0.338-6.861,0.512-11.356,0.512c-3.848,0-7.185-0.055-10.01-0.146c-2.825-0.1-5.29-0.269-7.406-0.512
	c-2.059-0.293-3.79-0.635-5.2-1.024c-1.414-0.394-2.598-0.878-3.559-1.464c-4.236-2.492-6.352-7.201-6.352-14.129
	c0-4.147,0.669-7.441,2.02-9.883c1.343-2.49,3.463-4.344,6.352-5.563c0.897-0.393,1.927-0.709,3.081-0.954
	c1.154-0.29,2.497-0.512,4.043-0.658c1.539-0.146,3.299-0.244,5.286-0.293c2.06-0.097,4.432-0.144,7.125-0.144
	c3.854,0,7.124,0.071,9.817,0.217c2.7,0.149,4.977,0.39,6.832,0.731c1.866,0.295,3.438,0.731,4.717,1.319
	c1.282,0.585,2.437,1.317,3.466,2.194c0.834,0.734,1.539,1.515,2.116,2.344c0.576,0.829,1.029,1.783,1.35,2.854
	c0.316,1.074,0.542,2.346,0.674,3.809c0.189,1.414,0.32,3.123,0.389,5.123h-49.668c0.132,2.197,0.417,4.002,0.869,5.416
	c0.509,1.365,1.314,2.463,2.4,3.295c0.648,0.536,1.482,0.975,2.505,1.316c1.029,0.342,2.344,0.637,3.946,0.881
	c1.606,0.195,3.563,0.341,5.871,0.438c2.372,0.098,5.232,0.145,8.57,0.145c2.497,0,4.648-0.021,6.444-0.07
	c1.862-0.098,3.401-0.247,4.62-0.439c1.286-0.195,2.344-0.463,3.177-0.805c0.838-0.344,1.539-0.756,2.116-1.246
	c0.577-0.438,0.962-0.877,1.154-1.316c0.196-0.439,0.356-1.219,0.481-2.344H761.178L761.178,149.074z M696.883,159.541h-7.028
	v-48.824h7.028V159.541L696.883,159.541z M654.729,144.096c-2.949,0-5.418,0.027-7.409,0.074c-1.991,0-3.634,0.054-4.912,0.146
	c-1.279,0.097-2.309,0.219-3.074,0.368c-0.709,0.146-1.321,0.341-1.831,0.585c-1.731,0.878-2.601,2.39-2.601,4.535
	c0,1.271,0.257,2.271,0.77,3.006c0.517,0.682,1.414,1.219,2.693,1.611c1.029,0.342,2.86,0.582,5.482,0.729
	c2.7,0.098,6.804,0.146,12.321,0.146c3.729,0,6.771-0.073,9.151-0.217c2.433-0.198,4.328-0.49,5.675-0.881
	c1.414-0.441,2.372-1.023,2.889-1.756c0.51-0.73,0.773-1.658,0.773-2.782c0-1.075-0.328-1.978-0.969-2.709
	c-0.577-0.731-1.636-1.292-3.178-1.683c-1.475-0.438-3.495-0.734-6.06-0.881C661.882,144.193,658.641,144.096,654.729,144.096
	 M629.319,135.824v-1.463c0-1.758,0.386-3.221,1.154-4.392c0.837-1.22,2.212-2.173,4.144-2.855c1.92-0.686,4.484-1.17,7.693-1.466
	c3.214-0.292,7.221-0.436,12.03-0.436c3.79,0,6.996,0.073,9.628,0.217c2.629,0.098,4.842,0.295,6.644,0.588
	c1.856,0.292,3.359,0.683,4.518,1.17c1.222,0.485,2.315,1.098,3.273,1.832c0.766,0.582,1.379,1.195,1.831,1.826
	c0.51,0.637,0.897,1.416,1.154,2.346c0.32,0.924,0.516,2.072,0.576,3.438c0.129,1.368,0.196,3.051,0.196,5.053v17.86h-7.032
	l0.104-3.953h-0.291c-0.838,0.929-1.731,1.685-2.693,2.27c-0.897,0.537-2.088,0.976-3.563,1.316
	c-1.475,0.296-3.341,0.488-5.585,0.586c-2.181,0.146-4.97,0.22-8.371,0.22c-3.979,0-7.321-0.049-10.014-0.144
	c-2.629-0.055-4.806-0.149-6.544-0.295c-1.728-0.196-3.109-0.439-4.143-0.729c-1.022-0.296-1.952-0.686-2.782-1.173
	c-1.475-0.879-2.504-1.904-3.081-3.076c-0.517-1.17-0.773-2.781-0.773-4.83c0-2.685,0.481-4.732,1.439-6.146
	c0.969-1.418,2.604-2.469,4.912-3.151c0.648-0.196,1.414-0.364,2.312-0.513c0.958-0.146,2.088-0.244,3.366-0.289
	c1.286-0.1,2.79-0.174,4.531-0.223c1.731-0.049,3.783-0.072,6.156-0.072c4.549,0,8.246,0.049,11.071,0.146
	c2.817,0.049,5.097,0.219,6.832,0.512c1.731,0.244,3.046,0.611,3.943,1.1c0.958,0.484,1.831,1.121,2.593,1.902h0.581v-3.66
	c0-1.756-0.16-3.076-0.474-3.953c-0.264-0.93-0.808-1.756-1.642-2.49c-0.642-0.585-1.414-1.072-2.312-1.463
	c-0.827-0.391-1.952-0.683-3.367-0.878c-1.41-0.243-3.145-0.414-5.197-0.515c-1.991-0.098-4.424-0.144-7.32-0.144
	c-3.847,0-6.957,0.073-9.329,0.22c-2.309,0.098-4.14,0.365-5.482,0.805c-1.286,0.391-2.155,0.951-2.601,1.682
	c-0.452,0.686-0.677,1.613-0.677,2.783v0.438L629.319,135.824L629.319,135.824z M585.433,125.649h10.007
	c0-2.978,0.291-5.391,0.869-7.245c0.576-1.904,1.663-3.395,3.27-4.465c1.606-1.124,3.783-1.904,6.548-2.346
	c2.761-0.438,6.351-0.707,10.775-0.802l8.086-0.223v4.614l-7.605,0.22c-3.138,0.049-5.678,0.195-7.598,0.439
	c-1.928,0.195-3.402,0.631-4.432,1.316c-1.022,0.634-1.734,1.539-2.116,2.709c-0.32,1.17-0.48,2.709-0.48,4.611l-0.096,1.17h22.328
	v4.611h-22.518v29.282h-7.031v-29.282h-10.007V125.649L585.433,125.649z M552.899,117.233v8.415h31.184v4.613h-31.184v14.642
	c0.062,1.609,0.097,2.878,0.097,3.804c0.061,0.881,0.127,1.588,0.195,2.125c0.125,0.486,0.285,0.88,0.481,1.17
	c0.189,0.293,0.48,0.612,0.862,0.953c0.897,0.83,2.219,1.439,3.943,1.829c1.802,0.341,4.398,0.513,7.801,0.513
	c3.146,0,5.418-0.146,6.832-0.439c1.475-0.342,2.594-0.978,3.366-1.902c0.517-0.637,0.87-1.365,1.065-2.197
	c0.189-0.877,0.285-2.367,0.285-4.465v-2.123h7.028v2.123c0,2.637-0.196,4.639-0.577,6.002c-0.32,1.319-0.933,2.49-1.831,3.514
	c-1.286,1.515-3.241,2.588-5.874,3.225c-2.564,0.631-6.227,0.947-10.972,0.947c-4.813,0-8.563-0.293-11.264-0.877
	c-2.692-0.586-4.681-1.561-5.963-2.93c-0.513-0.486-0.93-0.999-1.25-1.533c-0.321-0.588-0.577-1.246-0.767-1.98
	c-0.195-0.729-0.327-1.584-0.389-2.561c-0.061-0.975-0.1-2.121-0.1-3.439v-16.397h-10.972v-4.614h10.972v-8.415L552.899,117.233
	L552.899,117.233z M483.798,147.758l0.09,0.951c0,1.563,0.167,2.782,0.484,3.66c0.389,0.878,1.286,1.539,2.696,1.975
	c1.479,0.441,3.626,0.707,6.451,0.809c2.886,0.097,6.864,0.143,11.93,0.143c3.085,0,5.614-0.027,7.605-0.07
	c2.052-0.055,3.758-0.122,5.102-0.22c1.346-0.149,2.404-0.317,3.177-0.515c0.767-0.193,1.407-0.463,1.928-0.805
	c1.282-0.781,1.92-2.002,1.92-3.658c0-2.002-0.869-3.395-2.601-4.175c-1.664-0.78-4.745-1.146-9.24-1.097h-1.635h-2.89h-5.771
	c-2.501-0.049-5.87-0.098-10.103-0.146c-2.953-0.055-5.457-0.244-7.513-0.586c-1.991-0.344-3.626-0.877-4.905-1.611
	c-1.218-0.729-2.119-1.683-2.692-2.854c-0.521-1.172-0.773-2.611-0.773-4.318c0-3.611,1.571-6.223,4.717-7.835
	c1.606-0.78,4.171-1.341,7.701-1.683c3.591-0.341,8.663-0.509,15.207-0.509c3.715,0,6.925,0.071,9.621,0.217
	c2.758,0.146,5.066,0.39,6.933,0.731c1.92,0.295,3.491,0.731,4.716,1.319c1.219,0.536,2.241,1.194,3.082,1.976
	c0.384,0.393,0.701,0.779,0.962,1.173c0.32,0.341,0.541,0.753,0.673,1.243c0.125,0.484,0.225,1.073,0.285,1.756
	c0.062,0.637,0.101,1.463,0.101,2.49h-7.51c0-1.271-0.096-2.174-0.285-2.71c-0.195-0.536-0.549-0.999-1.064-1.393
	c-0.958-0.78-2.851-1.316-5.675-1.606c-2.765-0.344-6.801-0.515-12.129-0.515c-9.946,0-15.881,0.561-17.808,1.683
	c-1.344,0.734-2.021,1.978-2.021,3.732c0,0.93,0.196,1.711,0.577,2.344c0.384,0.586,1.058,1.049,2.023,1.391
	c1.029,0.295,2.376,0.515,4.043,0.658c1.734,0.098,3.947,0.122,6.64,0.076h3.848c1.803,0,3.723,0.021,5.777,0.073
	c2.113,0.05,4.172,0.098,6.159,0.146c1.991,0,3.563,0.027,4.717,0.073c5.13,0.146,8.788,1,10.972,2.561
	c2.248,1.515,3.369,3.953,3.369,7.323c0,2.097-0.42,3.804-1.254,5.124c-0.833,1.268-2.176,2.291-4.043,3.072
	c-1.6,0.686-4.132,1.148-7.598,1.393c-3.47,0.292-8.379,0.438-14.727,0.438c-3.79,0-7.061-0.055-9.82-0.146
	c-2.693-0.054-5.002-0.17-6.926-0.365c-1.927-0.195-3.533-0.439-4.815-0.732c-1.219-0.341-2.248-0.758-3.082-1.246
	c-1.535-0.828-2.629-1.828-3.27-3.002c-0.577-1.219-0.866-2.877-0.866-4.977v-1.756H483.798L483.798,147.758z M463.393,139.193
	c0-1.855-0.321-3.367-0.962-4.541c-0.642-1.219-1.8-2.17-3.467-2.852c-1.603-0.732-3.818-1.223-6.64-1.467
	c-2.821-0.293-6.384-0.438-10.683-0.438c-3.852,0-7.025,0.146-9.529,0.438c-2.437,0.244-4.428,0.707-5.967,1.393
	c-1.475,0.684-2.536,1.635-3.178,2.855c-0.642,1.168-1.058,2.71-1.25,4.611H463.393L463.393,139.193z M471.094,149.074
	c-0.068,2.051-0.549,3.783-1.446,5.197c-0.897,1.367-2.309,2.489-4.235,3.369c-1.924,0.827-4.457,1.439-7.602,1.83
	c-3.082,0.338-6.868,0.512-11.354,0.512c-3.854,0-7.191-0.055-10.013-0.146c-2.821-0.1-5.294-0.269-7.413-0.512
	c-2.052-0.293-3.783-0.635-5.197-1.024c-1.407-0.394-2.594-0.878-3.559-1.464c-4.235-2.492-6.351-7.201-6.351-14.129
	c0-4.147,0.669-7.441,2.02-9.883c1.35-2.49,3.462-4.344,6.352-5.563c0.897-0.393,1.924-0.709,3.078-0.953
	c1.157-0.291,2.504-0.512,4.043-0.659c1.538-0.146,3.306-0.244,5.293-0.293c2.056-0.097,4.428-0.144,7.125-0.144
	c3.847,0,7.12,0.071,9.82,0.217c2.689,0.149,4.97,0.39,6.832,0.731c1.863,0.295,3.431,0.731,4.713,1.319
	c1.283,0.585,2.438,1.317,3.463,2.194c0.837,0.734,1.546,1.515,2.119,2.344c0.577,0.829,1.026,1.783,1.351,2.854
	c0.316,1.074,0.545,2.346,0.669,3.809c0.193,1.414,0.324,3.124,0.389,5.123h-49.664c0.128,2.197,0.417,4.002,0.865,5.416
	c0.513,1.365,1.314,2.463,2.408,3.295c0.642,0.536,1.479,0.975,2.501,1.316c1.025,0.342,2.344,0.637,3.947,0.881
	c1.603,0.195,3.562,0.341,5.874,0.438c2.372,0.097,5.226,0.144,8.56,0.144c2.504,0,4.656-0.021,6.451-0.07
	c1.859-0.098,3.402-0.247,4.62-0.439c1.286-0.195,2.341-0.463,3.174-0.805c0.837-0.344,1.539-0.756,2.12-1.246
	c0.576-0.438,0.965-0.877,1.153-1.316c0.193-0.439,0.354-1.219,0.484-2.344H471.094L471.094,149.074z M330.093,125.649
	l17.323,28.989h0.677l13.473-28.989h11.067l13.672,28.989h0.77l17.131-28.989h8.179l-20.689,33.894H381.2l-13.765-28.844h-0.669
	l-13.576,28.844h-10.394l-20.597-33.894H330.093L330.093,125.649z M291.594,129.822c-2.757,0-5.133,0.055-7.121,0.149
	c-1.927,0.049-3.594,0.144-5.005,0.29c-1.414,0.148-2.6,0.368-3.562,0.658c-0.962,0.244-1.795,0.561-2.504,0.953
	c-1.603,0.879-2.757,2.148-3.462,3.807c-0.641,1.658-0.965,4.002-0.965,7.028c0,2.636,0.256,4.782,0.773,6.44
	c0.513,1.611,1.51,2.88,2.981,3.807c1.542,0.926,3.626,1.561,6.259,1.901c2.629,0.296,6.063,0.438,10.298,0.438
	c2.825,0,5.262-0.021,7.313-0.07c2.052-0.098,3.787-0.22,5.197-0.369c1.475-0.143,2.696-0.342,3.662-0.584
	c1.022-0.29,1.888-0.635,2.597-1.024c1.6-0.878,2.725-2.097,3.366-3.657c0.706-1.612,1.058-3.832,1.058-6.662
	c0-2.783-0.253-5.029-0.77-6.732c-0.513-1.711-1.503-3.029-2.981-3.953c-1.475-0.98-3.594-1.612-6.355-1.908
	C299.616,129.992,296.021,129.822,291.594,129.822 M319.215,159.543h-6.928v-4.318h-0.385c-0.833,0.975-1.763,1.779-2.793,2.416
	c-0.961,0.635-2.244,1.123-3.851,1.464c-1.539,0.342-3.495,0.561-5.867,0.658c-2.375,0.144-5.357,0.22-8.952,0.22
	c-3.078,0-5.774-0.055-8.086-0.146c-2.245-0.049-4.204-0.17-5.871-0.365c-1.667-0.195-3.114-0.439-4.332-0.731
	c-1.218-0.342-2.305-0.756-3.266-1.247c-2.7-1.316-4.624-3.099-5.782-5.342c-1.09-2.293-1.635-5.443-1.635-9.442
	c0-4.147,0.645-7.442,1.924-9.884c1.286-2.44,3.37-4.297,6.259-5.562c0.898-0.393,1.956-0.71,3.174-0.954
	c1.222-0.291,2.697-0.512,4.432-0.659c1.731-0.193,3.815-0.317,6.251-0.366c2.444-0.098,5.329-0.146,8.664-0.146
	c3.081,0,5.678,0.076,7.801,0.22c2.112,0.146,3.908,0.391,5.386,0.732c1.539,0.341,2.79,0.805,3.751,1.393
	c0.965,0.585,1.831,1.316,2.601,2.194h0.481v-18.959h7.025L319.215,159.543L319.215,159.543z M245.298,117.819h-12.415v-5.857
	h12.415V117.819z M222.97,117.819h-12.226v-5.857h12.226V117.819z M207.859,125.649v17.134c0,1.605,0.033,2.975,0.096,4.096
	c0.128,1.073,0.321,2.002,0.577,2.783c0.256,0.729,0.577,1.365,0.962,1.901c0.449,0.536,0.998,1.026,1.639,1.466
	c1.282,0.832,3.046,1.414,5.293,1.756c2.244,0.341,5.454,0.512,9.625,0.512c5.326,0,9.465-0.293,12.415-0.875
	c3.017-0.637,5.265-1.686,6.736-3.15c0.961-0.83,1.606-1.905,1.923-3.222c0.389-1.313,0.581-3.197,0.581-5.636v-16.765h7.021v33.894
	h-7.021v-5.051h-0.389c-0.894,1.072-1.892,1.975-2.981,2.709c-1.09,0.684-2.469,1.244-4.139,1.684
	c-1.667,0.392-3.719,0.658-6.159,0.805c-2.373,0.195-5.293,0.292-8.76,0.292c-5.518,0-9.814-0.247-12.895-0.731
	c-3.078-0.488-5.486-1.316-7.221-2.487c-0.766-0.536-1.443-1.148-2.02-1.831c-0.577-0.684-1.026-1.515-1.347-2.487
	c-0.324-0.976-0.581-2.124-0.773-3.44c-0.128-1.32-0.193-2.855-0.193-4.614v-18.74L207.859,125.649L207.859,125.649z
	 M131.729,144.316v1.027c0.062,1.414,0.128,2.584,0.193,3.514c0.128,0.877,0.324,1.584,0.581,2.121
	c0.321,0.536,0.734,0.975,1.247,1.316c0.517,0.296,1.186,0.561,2.023,0.805c1.282,0.393,3.787,0.686,7.505,0.881
	c3.79,0.146,8.987,0.217,15.595,0.217c2.116,0,4.2-0.021,6.252-0.07c2.055-0.049,3.979-0.122,5.778-0.221
	c1.863-0.097,3.527-0.219,5.005-0.365c1.475-0.146,2.661-0.293,3.562-0.441c4.107-0.631,6.159-3.048,6.159-7.247
	c0-2.146-0.353-3.733-1.062-4.755c-0.705-1.076-1.892-1.832-3.559-2.27c-0.513-0.146-1.029-0.269-1.539-0.366
	c-0.452-0.098-1.09-0.171-1.927-0.22c-0.77-0.049-1.86-0.076-3.274-0.076c-1.346-0.049-3.242-0.073-5.674-0.073
	c-2.376-0.049-5.358-0.071-8.952-0.071h-13.187c-4.236,0-7.827-0.243-10.779-0.73c-2.953-0.488-5.358-1.271-7.217-2.344
	c-1.799-1.073-3.113-2.463-3.947-4.173c-0.833-1.755-1.25-3.882-1.25-6.369c0-4.392,1.603-7.586,4.813-9.588
	c0.83-0.488,1.664-0.929,2.501-1.319c0.897-0.391,1.892-0.707,2.981-0.951c1.094-0.292,2.312-0.537,3.662-0.731
	c1.346-0.195,2.949-0.366,4.813-0.515c1.15-0.095,2.533-0.193,4.136-0.29c1.603-0.098,3.273-0.171,5.005-0.22
	c1.795-0.098,3.591-0.146,5.39-0.146c1.795-0.049,3.466-0.076,5.005-0.076c3.594,0,6.768,0.076,9.529,0.223
	c2.757,0.146,5.165,0.366,7.221,0.658c2.048,0.293,3.815,0.686,5.29,1.17c1.539,0.441,2.857,1.002,3.947,1.683
	c0.897,0.539,1.639,1.125,2.216,1.758c0.641,0.585,1.15,1.319,1.539,2.197c0.385,0.829,0.638,1.804,0.77,2.929
	c0.193,1.119,0.285,2.463,0.285,4.026h-8.563v-0.731c0-1.807-0.161-3.102-0.481-3.882c-0.256-0.78-0.769-1.39-1.542-1.829
	c-1.539-0.927-3.911-1.585-7.121-1.978c-3.209-0.438-7.762-0.656-13.665-0.656c-8.214,0-14.406,0.241-18.577,0.731
	c-4.107,0.488-6.896,1.268-8.371,2.341c-1.35,1.024-2.02,2.783-2.02,5.272c0,1.122,0.061,2.07,0.188,2.853
	c0.196,0.731,0.481,1.365,0.866,1.904c0.449,0.537,1.029,0.976,1.735,1.316c0.705,0.29,1.603,0.561,2.693,0.805
	c1.479,0.293,3.466,0.537,5.967,0.732c2.568,0.148,5.742,0.243,9.529,0.295h2.985h3.273c1.347,0,3.206,0.021,5.579,0.07h10.01
	c2.312,0,4.332,0.074,6.066,0.221c1.799,0.148,3.338,0.414,4.617,0.807c1.35,0.342,2.504,0.805,3.47,1.391
	c0.958,0.536,1.827,1.219,2.597,2.048c1.859,2.002,2.793,4.81,2.793,8.421c0,3.074-0.609,5.586-1.831,7.539
	c-1.222,1.902-3.11,3.344-5.678,4.318c-1.218,0.439-2.761,0.83-4.62,1.171c-1.795,0.293-4.043,0.536-6.736,0.731
	c-2.632,0.195-5.774,0.342-9.433,0.439c-3.655,0.097-7.891,0.146-12.707,0.146c-3.655,0-6.8-0.05-9.429-0.146
	c-2.568-0.049-4.78-0.168-6.644-0.366c-1.859-0.195-3.43-0.438-4.713-0.731c-1.286-0.342-2.412-0.734-3.37-1.17
	c-1.094-0.54-2.023-1.101-2.793-1.686c-0.769-0.635-1.378-1.365-1.831-2.195c-0.449-0.828-0.766-1.804-0.958-2.926
	c-0.192-1.127-0.292-2.443-0.292-3.955v-0.805c0-0.49,0.033-0.953,0.1-1.393H131.729L131.729,144.316z"/>
</svg>
