<svg id="Layer_1" data-name="Layer 1" xmlns="http://www.w3.org/2000/svg" viewBox="0 0 199.2 110"><title>TUDublin_small</title><path d="M90.57,15.07c0,2.22-.46,3.52-2.13,3.52s-2.13-1.3-2.13-3.52.46-3.52,2.13-3.52S90.57,12.75,90.57,15.07Zm-.83.09c0-1.67-.1-2.87-1.21-2.87s-1.2,1.2-1.2,2.59c0,1.67.09,2.87,1.2,2.87s1.21-1.2,1.21-2.59Z" style="fill:#fff"/><path d="M94.83,18.4H91.77V11.73h.84v5.93h2.22Z" style="fill:#fff"/><path d="M98.9,18.4h-3V11.73h.83v5.93H99Z" style="fill:#fff"/><path d="M101.59,18.59c-1.21,0-1.85-.84-1.85-2.41h.92c0,1.11.28,1.57,1,1.57a.93.93,0,0,0,1-1c0-.74-.46-1-1.11-1.38s-1.58-.75-1.58-2a1.6,1.6,0,0,1,1.76-1.76c1.11,0,1.76.65,1.76,1.94h-.83c0-.74-.28-1.2-.93-1.2a.85.85,0,0,0-.92.83v.19c0,.74.55,1,1.2,1.39a2.13,2.13,0,0,1,1.48,2A1.77,1.77,0,0,1,101.59,18.59Z" style="fill:#fff"/><path d="M106.31,18.59c-1.76,0-2-1.58-2-3.61s.28-3.43,2.13-3.43c1.39,0,1.76.83,1.86,2.22h-.84c0-.83-.09-1.48-1-1.48-1.2,0-1.2,1.3-1.2,2.59,0,1.67,0,3,1.2,3,.74,0,1-.56,1-1.76h.84C108.26,17.57,107.7,18.59,106.31,18.59Z" style="fill:#fff"/><path d="M113.26,15.07c0,2.22-.47,3.52-2.13,3.52S109,17.29,109,15.07s.46-3.52,2.13-3.52S113.26,12.75,113.26,15.07Zm-.84.09c0-1.67-.09-2.87-1.2-2.87S110,13.49,110,14.88c0,1.67.1,2.87,1.21,2.87s1.2-1.2,1.2-2.59Z" style="fill:#fff"/><path d="M115.29,18.4h-.83V11.73h.83Z" style="fill:#fff"/><path d="M119.92,18.4h-3V11.73h.83v5.93h2.22Z" style="fill:#fff"/><path d="M126.59,12.38h-1.76v5.93H124V12.38h-1.76v-.74h4.35Z" style="fill:#fff"/><path d="M127.52,18.4V11.73h3v.74h-2.13V14.7h1.94v.74h-1.94v2.22h2.22v.74Z" style="fill:#fff"/><path d="M132.7,18.4h-.83V11.73h.83Z" style="fill:#fff"/><path d="M136,18.59c-1.76,0-2-1.58-2-3.61s.28-3.43,2.13-3.43c1.39,0,1.76.83,1.85,2.22h-.83c0-.83-.1-1.48-1-1.48-1.21,0-1.21,1.3-1.21,2.59,0,1.67,0,3,1.21,3,.74,0,1-.56,1-1.76H138C138,17.57,137.42,18.59,136,18.59Z" style="fill:#fff"/><path d="M143.26,18.4h-.84l-2.5-5.18V18.4h-.83V11.73h1l2.31,5.1v-5.1h.84Z" style="fill:#fff"/><path d="M144.74,18.4V11.73h3v.74h-2.22V14.7h2v.74h-2v2.22h2.22v.74Z" style="fill:#fff"/><path d="M152.89,15.07c0,2.22-.46,3.52-2.13,3.52s-2.13-1.3-2.13-3.52.46-3.52,2.13-3.52S152.89,12.75,152.89,15.07Zm-.83.09c0-1.67-.1-2.87-1.21-2.87s-1.2,1.2-1.2,2.59c0,1.67.09,2.87,1.2,2.87s1.21-1.2,1.21-2.59Z" style="fill:#fff"/><path d="M157.06,18.4H154V11.73h.83v5.93h2.23v.74Z" style="fill:#fff"/><path d="M161,16.55h-2.13l-.47,1.85h-.83l1.95-6.67h.92l2,6.67h-.84Zm-.19-.74L160,12.75l-.83,3.06Z" style="fill:#fff"/><path d="M164.28,18.4h-.84V11.73h.84ZM164.19,11h-.65l1.11-1.66.65.46Z" style="fill:#fff"/><path d="M169.65,15.07c0,2.22-.46,3.52-2.13,3.52s-2.13-1.3-2.13-3.52.46-3.52,2.13-3.52S169.65,12.75,169.65,15.07Zm-.83.09c0-1.67-.1-2.87-1.21-2.87s-1.2,1.2-1.2,2.59c0,1.67.09,2.87,1.2,2.87s1.21-1.2,1.21-2.59Z" style="fill:#fff"/><path d="M172.8,18.59c-1.76,0-2-1.58-2-3.61s.28-3.43,2.13-3.43c1.39,0,1.76.83,1.85,2.22h-.83c0-.83-.09-1.48-1-1.48-1.2,0-1.2,1.3-1.2,2.59,0,1.67,0,3,1.2,3,.74,0,1-.56,1-1.76h.83C174.83,17.57,174.28,18.59,172.8,18.59Z" style="fill:#fff"/><path d="M180,18.4h-.83v-3h-2.5v3h-.84V11.73h.84v3h2.5v-3H180Z" style="fill:#fff"/><path d="M185.3,12.38h-1.76v5.93h-.83V12.38H181v-.74h4.35v.74Z" style="fill:#fff"/><path d="M188.35,16.55h-2.13l-.46,1.85h-.83l1.94-6.67h.93l1.94,6.67h-.83Zm-.18-.74-.83-3.06-.84,3.06Z" style="fill:#fff"/><path d="M90.38,26.64a1.81,1.81,0,0,1-1.85,1.95H86.77V21.92h2c1,0,1.39.74,1.39,1.57a1.51,1.51,0,0,1-.93,1.58A1.41,1.41,0,0,1,90.38,26.64ZM87.61,24.7h.83c.65,0,.93-.56.93-1.11s-.19-.93-.75-.93h-1Zm1.94,1.94c0-.65-.28-1.2-.93-1.2h-1v2.41h.92c.74,0,1-.56,1-1.21Z" style="fill:#fff"/><path d="M95.66,28.59h-.83v-3H92.42v3h-.83V21.92h.83v3h2.5v-3h.83Z" style="fill:#fff"/><path d="M100,26.83H97.88l-.46,1.85h-.83L98.53,22h.93l1.94,6.67h-.83Zm-.18-.74L99,23l-.84,3.06Z" style="fill:#fff"/><path d="M103.26,28.59h-.84V21.92h.84Z" style="fill:#fff"/><path d="M107.89,28.59h-3.06V21.92h.83v5.93h2.23Z" style="fill:#fff"/><path d="M109,28.59V21.92h3v.74h-2.13v2.22h2v.74h-2v2.23h2.22v.74Z" style="fill:#fff"/><path d="M118.07,26.83h-2.13l-.46,1.85h-.84l2-6.67h.93l1.94,6.67h-.83Zm-.18-.74L117.05,23l-.83,3.06Zm-.47-4.91h-.65l1.12-1.67.64.47Z" style="fill:#fff"/><path d="M123.44,22.66h-1.76v5.93h-.83V22.66h-1.76v-.74h4.35Z" style="fill:#fff"/><path d="M128.44,28.59h-.83v-3h-2.5v3h-.83V21.92h.83v3h2.5v-3h.83Z" style="fill:#fff"/><path d="M132.89,26.83h-2.13l-.56,1.85h-.83L131.31,22h.93l1.94,6.67h-.83Zm-.19-.74L131.87,23,131,26.09Z" style="fill:#fff"/><path d="M138.63,28.77c-1.76,0-2-1.57-2-3.61s.28-3.43,2.13-3.43c1.39,0,1.76.84,1.85,2.32h-.83c0-.83-.09-1.48-1-1.48-1.2,0-1.2,1.29-1.2,2.59,0,1.67,0,3,1.2,3,.74,0,1-.55,1-1.76h.83C140.67,27.85,140.11,28.77,138.63,28.77Z" style="fill:#fff"/><path d="M144.83,28.59h-3.05V21.92h.83v5.93h2.22Z" style="fill:#fff"/><path d="M146.78,28.59h-.84V21.92h.84Z" style="fill:#fff"/><path d="M151.22,26.83h-2.13l-.46,1.85h-.83L149.74,22h.93l1.94,6.67h-.83Zm-.18-.74L150.2,23l-.83,3.06Z" style="fill:#fff"/><path d="M156.59,22.66h-1.76v5.93H154V22.66h-1.76v-.74h4.35v.74Z" style="fill:#fff"/><path d="M161.59,28.59h-.83v-3h-2.5v3h-.83V21.92h.83v3h2.5v-3h.83Z" style="fill:#fff"/><polygon points="184.84 40.72 184.84 66.09 183.54 64.14 165.67 38.22 165.57 38.13 163.26 38.13 160.76 38.13 160.76 40.72 160.76 74.7 165.76 74.7 165.76 46.83 166.87 48.68 184.93 74.61 184.93 74.7 189.84 74.7 189.84 38.13 187.43 38.13 184.84 40.72" style="fill:#fff"/><polygon points="122.61 69.98 122.61 38.13 120.2 38.13 117.61 40.72 117.61 74.7 138.81 74.7 138.81 69.98 122.61 69.98" style="fill:#fff"/><polygon points="147.43 40.72 147.43 74.7 152.43 74.7 152.43 38.13 150.02 38.13 147.43 40.72" style="fill:#fff"/><polygon points="55.1 39.24 66.12 39.24 66.12 12.47 77.51 12.47 77.51 0.9 43.71 0.9 43.71 12.47 55.1 12.47 55.1 39.24" style="fill:#fff"/><path d="M77.51,69.89a14.61,14.61,0,0,1-5,11.2,18,18,0,0,1-11.94,4.17h-.28a17.91,17.91,0,0,1-11.67-4.17,14.47,14.47,0,0,1-5-11.2V46h11V68.31A5.28,5.28,0,0,0,56.4,72.2a6.13,6.13,0,0,0,4.17,1.58h.09a6.51,6.51,0,0,0,4.17-1.58,5.19,5.19,0,0,0,1.66-3.89V45.9h11Z" style="fill:#fff"/><path d="M104.55,55.53a8.54,8.54,0,0,0,3.71-7.4,9.47,9.47,0,0,0-3.15-7.32,12.61,12.61,0,0,0-8.43-2.69H84.46V45.9L86.59,48V74.7H98.44c7.32,0,12.13-4.17,12.13-10.46A9.13,9.13,0,0,0,104.55,55.53Zm-13,2.87h6.85c4.35,0,7,2.13,7,5.75s-2.6,5.92-7,5.92H91.59Zm5.46-4.63H91.59V49.89l-2.13-2.13V42.85h7.31c4.08,0,6.49,2,6.49,5.55,0,3.24-2.5,5.37-6.21,5.37Z" style="fill:#fff"/><path d="M36.58,46.09h0c-3.24-5.09-8.79-7.87-15.74-7.87H7.6V74.79H17.69c5.56,0,10.19-1.76,13.52-5s5-7.87,5-13.24a21.25,21.25,0,0,0-1.66-8.33ZM29.92,50c.18.37.27.74.46,1.2a17.31,17.31,0,0,1,.83,5.28c0,4.17-1.2,7.59-3.61,10s-5.74,3.61-9.81,3.61H12.6V42.85h8.24c4.91,0,8.71,1.76,11,5L29.92,50Z" style="fill:#fff"/><path d="M122.05,85h-1.76v5.93h-.83V85H117.7v-.74h4.35Z" style="fill:#fff"/><path d="M122.89,90.91V84.24h3V85h-2.13v2.13h2v.74h-2v2.32h2.22v.74Z" style="fill:#fff"/><path d="M128.91,91.09c-1.76,0-2-1.57-2-3.61s.28-3.43,2.13-3.43c1.39,0,1.76.84,1.85,2.23H130c0-.84-.1-1.48-1-1.48-1.21,0-1.21,1.29-1.21,2.59,0,1.66,0,3,1.21,3,.74,0,1-.55,1-1.76h.83C130.85,90.17,130.29,91.09,128.91,91.09Z" style="fill:#fff"/><path d="M136.13,90.91h-.84v-3h-2.5v3h-.74V84.24h.84v3h2.5v-3h.83Z" style="fill:#fff"/><path d="M141.78,90.91h-.84l-2.5-5.19v5.19h-.83V84.24h1l2.31,5.09V84.24h.84Z" style="fill:#fff"/><path d="M147.15,87.57c0,2.23-.47,3.52-2.13,3.52s-2.13-1.29-2.13-3.52.46-3.52,2.13-3.52S147.15,85.35,147.15,87.57Zm-.93.19c0-1.67-.09-2.87-1.2-2.87s-1.21,1.2-1.21,2.59c0,1.67.1,2.87,1.21,2.87s1.29-1.3,1.2-2.59Z" style="fill:#fff"/><path d="M151.31,90.91h-3.05V84.24h.83v5.93h2.22Z" style="fill:#fff"/><path d="M156,87.57c0,2.23-.47,3.52-2.13,3.52s-2.13-1.29-2.13-3.52.46-3.52,2.13-3.52S156,85.35,156,87.57Zm-.84.19c0-1.67-.09-2.87-1.2-2.87s-1.2,1.2-1.2,2.59c0,1.67.09,2.87,1.2,2.87S155.2,89.05,155.2,87.76Z" style="fill:#fff"/><path d="M159,87.57h1.94V91h-.74v-.56a1.45,1.45,0,0,1-1.29.74c-1.58,0-1.85-1.75-1.85-3.51,0-2,.27-3.52,2.13-3.52,1.38,0,1.75.83,1.85,2.22h-.84c0-.83-.09-1.48-1-1.48-1.21,0-1.21,1.29-1.21,2.59,0,1.67.09,3,1.21,3,.74,0,1.11-.55,1.11-1.76v-.27h-1.21Z" style="fill:#fff"/><path d="M163.17,90.91h-.84V84.24h.84Z" style="fill:#fff"/><path d="M166.5,91.09c-1.76,0-2-1.57-2-3.61s.28-3.43,2.13-3.43c1.39,0,1.76.84,1.86,2.23h-.84c0-.84-.09-1.48-1-1.48-1.2,0-1.2,1.29-1.2,2.59,0,1.66,0,3,1.2,3,.74,0,1-.55,1-1.76h.84C168.45,90.17,167.89,91.09,166.5,91.09Z" style="fill:#fff"/><path d="M172.24,89.15h-2.13L169.65,91h-.83l1.94-6.67h.93L173.63,91h-.83Zm-.18-.84-.84-3-.83,3Z" style="fill:#fff"/><path d="M177.61,90.91h-3V84.24h.83v5.93h2.23Z" style="fill:#fff"/><path d="M121.59,94.15v4.63c0,1.29-.56,2.22-1.94,2.22s-2-.93-2-2.22V94.15h.83v4.54c0,.92.28,1.57,1.21,1.57s1.11-.56,1.11-1.39V94.15Z" style="fill:#fff"/><path d="M127.15,100.81h-.84l-2.5-5.18v5.18H123V94.15h1l2.31,5.09V94.15h.84Z" style="fill:#fff"/><path d="M129.55,100.81h-.83V94.15h.83Z" style="fill:#fff"/><path d="M134.65,94.15,133,100.81h-.83l-1.67-6.66h.93l1.2,5.46,1.2-5.46Z" style="fill:#fff"/><path d="M135.48,100.81V94.15h3v.74h-2.22v2.22h2v.74h-2v2.32h2.22v.74h-3Z" style="fill:#fff"/><path d="M143.63,100.81h-.83l-1.21-2.87h-.92v2.87h-.84V94.15h1.67A1.72,1.72,0,0,1,143.44,96a1.69,1.69,0,0,1-1.11,1.76Zm-1-4.81a1,1,0,0,0-1.11-1.11h-.83V97.3h.74a1.14,1.14,0,0,0,1.2-1.3Z" style="fill:#fff"/><path d="M146.22,101c-1.2,0-1.85-.83-1.85-2.41h.93c0,1.11.27,1.58,1,1.58a.93.93,0,0,0,1-1c0-.74-.46-1-1.11-1.39s-1.57-.74-1.57-2A1.6,1.6,0,0,1,146.41,94c1.11,0,1.76.65,1.76,2h-.84c0-.74-.28-1.21-.92-1.21a.91.91,0,0,0-.93.84v.18c0,.74.56,1,1.2,1.39a2.13,2.13,0,0,1,1.49,2A1.78,1.78,0,0,1,146.22,101Z" style="fill:#fff"/><path d="M150.11,100.81h-.83V94.15h.83Z" style="fill:#fff"/><path d="M155.48,94.89h-1.76v5.92h-.83V94.89h-1.76v-.74h4.35v.74Z" style="fill:#fff"/><path d="M158.63,100.81h-.83V98.22L156,94.15H157l1.3,3.33,1.2-3.33h.84l-1.76,4.07Z" style="fill:#fff"/><path d="M167.8,97.39c0,1.76-.47,3.42-2.69,3.42h-1.2V94.15h1.29C167.43,94.15,167.8,95.63,167.8,97.39Zm-.84,0c0-1.39-.18-2.59-1.85-2.59h-.46V100H165c1.76.09,1.94-1.2,1.94-2.59Z" style="fill:#fff"/><path d="M172.89,94.15v4.63c0,1.29-.56,2.22-1.94,2.22s-1.95-.93-1.95-2.22V94.15h.83v4.54c0,.92.28,1.57,1.21,1.57s1.11-.56,1.11-1.39V94.15Z" style="fill:#fff"/><path d="M177.89,98.87a1.81,1.81,0,0,1-1.85,1.94h-1.76V94.15h2c1,0,1.39.74,1.39,1.57a1.51,1.51,0,0,1-.93,1.58A1.42,1.42,0,0,1,177.89,98.87Zm-2.78-1.94H176c.64,0,.92-.56.92-1.12s-.18-.92-.74-.92h-1v2Zm1.95,1.94c0-.65-.28-1.2-.93-1.2h-1v2.4H176c.74,0,1-.55,1-1.2Z" style="fill:#fff"/><path d="M182.06,100.81H179V94.15h.83v5.92h2.23Z" style="fill:#fff"/><path d="M184.09,100.81h-.83V94.15h.83Z" style="fill:#fff"/><path d="M189.74,100.81h-.83l-2.5-5.18v5.18h-.83V94.15h1l2.32,5.09V94.15h.83v6.66Z" style="fill:#fff"/></svg>